<svg width="1236" height="170" viewBox="0 0 1236 170" fill="none" xmlns="http://www.w3.org/2000/svg">
  <path d="M489 147.5h-31v-15h-.5a35.4 35.4 0 0 1-30.9 17.4c-23.4 0-35-13.8-35-41.3V49.3h31v56.6c0 13.8 5.6 20.8 17 20.8a17 17 0 0 0 13.3-5.7c3.4-3.8 5-9 5-15.5V49.3h31v98.2Zm-108.5 0H351v-14h-.4a33 33 0 0 1-30 16.4 32 32 0 0 1-23.1-8 28.6 28.6 0 0 1-8.4-21.7c0-19 11.6-30 34.7-33l27.4-3.6c0-10.7-6-16-18-16S309.9 71 299 78V55.2a77 77 0 0 1 17.8-5.8 95.2 95.2 0 0 1 20.5-2.5c28.8 0 43.2 14 43.2 42v58.6Zm-29.3-39.9V101l-18.3 2.3c-10.1 1.3-15.2 5.7-15.2 13.3 0 3.5 1.2 6.3 3.7 8.5s5.8 3.3 10 3.3c5.9 0 10.6-2 14.3-5.9a21 21 0 0 0 5.5-14.9Zm250.7 40h-31.1V134h-.4a35.2 35.2 0 0 1-31.3 16 38.6 38.6 0 0 1-30.4-13 52.7 52.7 0 0 1-11.5-36.4c0-16.2 4.2-29.2 12.7-39a41.9 41.9 0 0 1 33.3-14.7c13 0 22 4.5 27.2 13.6h.4V2.1h31v145.4Zm-30.5-47.8v-7.4a23 23 0 0 0-5.8-16 19 19 0 0 0-14.8-6.3 19 19 0 0 0-16.2 8 36.2 36.2 0 0 0-5.8 21.7c0 8.6 1.9 15.2 5.6 19.9 3.8 4.7 9 7 15.6 7a18.9 18.9 0 0 0 15.4-7.4c4-5 6-11.4 6-19.5Zm59.8-66c-5.2 0-9.5-1.5-12.9-4.6a14.4 14.4 0 0 1-5-11.2 14 14 0 0 1 5-11.1c3.4-2.9 7.7-4.3 13-4.3a19 19 0 0 1 12.9 4.3 14 14 0 0 1 5 11.1c0 4.7-1.7 8.4-5 11.4-3.3 2.9-7.7 4.4-13 4.4Zm15 80.4c0 4.2 1 7.4 3.1 9.5 2 2.1 4.8 3.2 8.2 3.2 1.7 0 3.4-.2 5.1-.5l5.2-1v21.4a113.5 113.5 0 0 1-25 3.2c-4 0-7.9-.7-11.3-2a24.1 24.1 0 0 1-14.2-15 35 35 0 0 1-2-12V49.2h31v65ZM717 150a55 55 0 0 1-39.6-13.8A49.2 49.2 0 0 1 663 98.9c0-16.2 5-29 15-38.1a57.5 57.5 0 0 1 40.4-13.8c16.8 0 30 4.6 39.4 13.8A48.2 48.2 0 0 1 772 97c0 16.3-4.9 29.2-14.7 38.6a55.7 55.7 0 0 1-40.4 14.2Zm.8-79.8a21 21 0 0 0-17.1 7.4c-4 5-6.1 11.9-6.1 21 0 18.8 7.8 28.2 23.4 28.2 15 0 22.4-9.7 22.4-29 0-18.4-7.5-27.6-22.6-27.6Zm222.7 77.4h-31v-56c0-14.2-5.4-21.4-16.2-21.4a15 15 0 0 0-12.5 6.4 25.8 25.8 0 0 0-4.8 16v55h-31.1V91c0-13.8-5.4-20.8-15.9-20.8-5.3 0-9.6 2-12.7 6.1a26.5 26.5 0 0 0-4.9 16.7v54.6h-31V49.3h31v15.4h.5A38 38 0 0 1 844.4 47c14.2 0 24 6 29.2 18.2A37.5 37.5 0 0 1 907.5 47c22 0 32.9 13.2 32.9 39.5v61.1Zm96.6 0h-29.5v-14.1h-.4a33 33 0 0 1-30 16.5 32 32 0 0 1-23.1-8 28.7 28.7 0 0 1-8.4-21.7c0-19 11.6-30 34.7-33l27.4-3.6c0-10.7-6-16-18-16S966.4 71 955.6 78V55.2a76.9 76.9 0 0 1 17.8-5.8 95.1 95.1 0 0 1 20.5-2.5c28.8 0 43.2 14 43.2 42v58.6Zm-29.3-46.5-18.3 2.3c-10.1 1.3-15.2 5.7-15.2 13.3 0 3.5 1.2 6.3 3.7 8.5s5.8 3.3 10 3.3c5.9 0 10.6-2 14.3-5.9a21 21 0 0 0 5.5-14.9V101Zm118.4 43c-7 4-17.2 5.9-30.5 5.9-15.5 0-28-4.6-37.6-13.7a46.7 46.7 0 0 1-14.4-35.4c0-16.7 5.2-29.8 15.4-39.4a58 58 0 0 1 41.3-14.5c11.8 0 20.4 1.6 25.8 4.6v25.7a36 36 0 0 0-21.8-7c-9 0-16 2.4-21.2 7.6a28 28 0 0 0-7.9 21c0 8.7 2.5 15.5 7.5 20.5s11.9 7.4 20.6 7.4c7.8 0 15.3-2.4 22.8-7.1V144Zm109.5 3.5h-37.4L1166 98.8h-.4v48.7h-31.1V2.1h31.1v92.6h.4l30-45.4h37l-36.2 46.1 38.8 52.1Z" fill="#fff"/>
  <path d="M10.6 84s5.2-.8 7.3 1.4c2.2 2.3.8 7-2 7-2.9.1-5.5.6-7.4-1.4a4.3 4.3 0 0 1 2.1-7m56.2 32c-.5 0-1-.3-1.6-.7-3.7-5.2-5-23.1-6.7-24.2-1.8-1.1-8.2 10-20.9 8.8-5.3-.5-10.7-4-14-6.5C24 89.4 24 80 32 83c4.8 2 13 7 20.3-2.2 8-10.2 12.4-7.2 15-5 2.7 2.2 1 13.8 4.9 10.6C76 83 92 62.9 92 62.9s12.4-12.6 14.3.7c1.9 13.2 9.9 28 12 27.5 2.2-.4 27-51.6 30.6-54.9 3.5-3.3 15.5-2.8 15 5.6-.7 8.5-1.9 61.1-1.9 61.1s-1.4 14.9 1 7a10341 10341 0 0 0 25-81.1l3-10.6a75.6 75.6 0 0 1 1.8-6c.1-.6.8-1.1 1.7-1.5 1-.6 1.9-.6 3-.6 2.9-.3 6.6.1 10 1 1 .1 2.1.5 3 1.2h.1l1 1 .6.8c1.8 2.7 3 7.9 1.8 17-2.8 22.5-5 69-5 69s-.5 2.3 4.1-7.5l.5-1c.4-.2.7-.4 1-.8 2.8-3.4 10.4-5.4 15.7-5.4 2.2.3 4.1.9 5.2 1.6 2.1 3.2.9 15.1.9 15.1-4.4.4-12.8 2.8-15.8 3.3-3 .4-7.5 20-13.8 18a71 71 0 0 1-20.3-12.1l1.4-17.5V93c.3-2.6 0-3.8-1.1-1.1-1 2.2-5.6 16.8-10.6 32.6-.5 1.4-10 30.6-11.3 34.2a88.2 88.2 0 0 1-3.6 8.9c-1.3 1.8-3 3-5.6 2.2-6.1-2-14-10.6-14-12.7-.2-12.1.5-77.3-2.4-71.8-3 5.5-26 44.1-26 44.1l-1 .1c-1.7-.2-4.2-.7-5-2.3v-.3l-.2-.4-.7-3.1c-1-3.6-2.7-8.6-4.4-13.8-2.7-8.8-5.4-17.8-5.9-18.8-.8-2-2.1-1-3.3 0-5.1 4.5-16 24-26 25.1" fill="#fff"/>
</svg>