<svg width="1211" height="251" viewBox="0 0 1211 251" fill="none" xmlns="http://www.w3.org/2000/svg">
  <path fill-rule="evenodd" clip-rule="evenodd" d="M126.4 0A126 126 0 0 0 0 125.5 126 126 0 0 0 126.4 251a126 126 0 0 0 126.4-125.5A126 126 0 0 0 126.4 0ZM183 86.6c0 18-14.3 32.7-32.8 32.7a39 39 0 1 1-.4 77.8H84.4c-9.3 0-16.2-8.6-14.1-17.6l8.8-39c.1-.3.5-.6 1-.5l38 4.9c-2.5 3.1-4 7-3.9 11.3.2 10.8 10 19.3 21.2 17.5a18 18 0 0 0 15.2-17.2c.3-10-7.6-17.2-17.4-18.5l-5-.7-46-6a.8.8 0 0 1-.7-1l11.3-49.5c0-.4.5-.7.9-.6l30 4a14.9 14.9 0 0 0-2.2 8 15 15 0 0 0 18.6 14.2 14.8 14.8 0 0 0 11.5-14.1c.2-8.1-5.7-14.1-14.2-15.2l-8.7-1.2-33-4.3a.8.8 0 0 1-.6-1l2.8-12.3a5.6 5.6 0 0 1 5.5-4.3 7208.8 7208.8 0 0 0 46.8 0A33 33 0 0 1 183 86.5Z" fill="#fff"/>
  <path fill-rule="evenodd" clip-rule="evenodd" d="m960.4 154.3-.1.8-.3 1.4-.2 2.2c0 5.3 2.7 8 7.8 8 1.5 0 3.2-.2 5.1-.7 1.4-.4 2.8-1 4.1-1.6l-5.7 26.3a55.4 55.4 0 0 1-26.2 5.6c-7.9 0-14-1.8-18-5.2-4.2-3.4-6.2-8.4-6.2-15a44.3 44.3 0 0 1 1-8.5l24-109.8a5 5 0 0 1 4.9-4H982l-21.7 100.5Zm-600.3-44c8.1 0 14-6.7 15-12.8.8-3.8 0-7.4-2.1-10-2-2.5-4.8-4.3-8.4-4.3h-23.3l-5.6 27.2H360Zm-9.5 57.9c9 0 15.4-7.6 16.7-14.3.8-4.2 0-8.1-2.4-11a11.8 11.8 0 0 0-9-4.7h-26.4l-6.2 29.9h27.3Zm14.8-113.9c28.3.2 44.3 14.8 44.3 32.9a37.6 37.6 0 0 1-28.2 35.5c20.3 2.7 29.2 21.7 25.8 38.2-5.7 27.7-29.6 34.7-60.2 35.7H287a4 4 0 0 1-3.9-4.8l28.3-133.5a5 5 0 0 1 5-4h49Zm495.7 111.5c10.3-.7 20-11.4 21.7-23.7 1-6.8-.7-13-4.5-17-3-3-7-4.6-11.3-4.2-10.3.8-20 11.4-21.7 23.7-.9 6.8.8 13 4.6 17 2.6 2.8 6.2 4.3 10 4.3h1.2Zm24.6-73.7c7.2 0 13.4 1.7 18.6 5.1 5.2 3.5 9.3 8.2 12.1 14.2 2.8 6 4.3 13 4.3 20.7a66.8 66.8 0 0 1-16.6 44.7 57.2 57.2 0 0 1-17.5 13.9c-6.5 3.3-13.3 5-20.3 5-6.8 0-12.5-1.4-17-4.2a19.8 19.8 0 0 1-8.7-12.2l-.8-2.9-12.9 58.1h-36l30-136.9c.4-2.3 2.5-4 5-4h27l-3.9 17.6 1.9-2.3A42.4 42.4 0 0 1 885.7 92Zm174.2 49.8c-1.7 12.2-11.3 22.8-21.6 23.5h-1c-4 0-7.5-1.4-10.2-4.2-3.8-4-5.4-10.1-4.5-16.9 1.7-12.2 11.4-22.8 21.6-23.6 4.3-.3 8.3 1.2 11.2 4.3 3.8 4 5.4 10.1 4.5 16.9Zm34.8 20.1c-1.9.5-3 0-3.7-.5-1.4-1.2-1.8-3.6-1-7.3l12.6-56h-29.1l-2.4 11.7-1-1.3a49.6 49.6 0 0 0-14.4-12.3 41 41 0 0 0-17.3-4.2 46 46 0 0 0-21 5 64.5 64.5 0 0 0-29.9 33.9 68.1 68.1 0 0 0-4.3 24.3c0 7.7 1.5 14.7 4.4 20.7 2.9 6 7 10.7 12.3 14 5.3 3.4 11.8 5.1 19.2 5.1 6.3 0 12.6-1.4 18.7-4.1 6.9-3.1 13-7.8 17.1-13.2l1.3-1.7s-1.8 8.6 3.6 13.7c3.4 3.2 9.7 3.5 13.7 3.4 6.8-.2 13-3 15.3-4.7l5.9-26.5Zm-627.2 4.2c10.4-.8 20.2-11.5 21.9-23.8 1-6.8-.8-13-4.6-17-3-3.1-7-4.7-11.3-4.3-10.3.7-20.1 11.4-21.8 23.8-1 6.8.7 13 4.5 17a13.8 13.8 0 0 0 11.3 4.3ZM480.3 92c10.9 0 19.7 1.9 26.3 5.6a34.6 34.6 0 0 1 14.4 15.1c3 6.3 4.5 13.5 4.5 21.2a60.1 60.1 0 0 1-37.7 56.1c-8 3.3-17 5-27.1 5-10.8 0-19.6-2-26.2-5.7-6.6-3.8-11.5-9-14.5-15.3-3-6.4-4.5-13.5-4.5-21.1a60.1 60.1 0 0 1 37.7-56c7.9-3.3 17-5 27.1-5Zm119.2 51c-1.7 12.3-11.5 23-21.8 23.7h-1.2c-3.9 0-7.5-1.5-10.2-4.3-3.8-4-5.5-10.2-4.5-17 1.7-12.4 11.5-23 21.8-23.8 4.4-.4 8.4 1.2 11.4 4.3 3.8 4 5.4 10.2 4.5 17Zm31.6-30.3c-3-6.3-7.9-11.3-14.4-15a52.9 52.9 0 0 0-26.2-5.7 71.7 71.7 0 0 0-27.3 4.9 60 60 0 0 0-37.6 56A49 49 0 0 0 530 174c3 6.3 7.9 11.5 14.5 15.3a52.3 52.3 0 0 0 26.1 5.7 70 70 0 0 0 27.2-5 60.9 60.9 0 0 0 37.7-56c0-7.8-1.5-15-4.5-21.3Zm515.6 40.7c14.7-28 27.2-57.5 28.8-61.4h33.7c-5.2 10-46.2 89.5-65 116.6-20 29-55.7 26-61.3 25.4l5.7-27.2a36.3 36.3 0 0 0 22.2-5c3.3-1.8 8-6.8 10.1-9.6l.2-.3-13.3-100h33.3l4.4 63.7 1.2-2.2Zm-342.2-35 .3-5c0-3.7-.6-7.3-1.8-10.6a15.5 15.5 0 0 0-6.7-7.8c-3.8-2.4-9.7-3.4-17.5-3-2 .2-4 .4-5.9.8a54.2 54.2 0 0 0-17.8 7c-4 2.5-7.6 5.6-10.7 9.3l-1 1.3-.2-1.7c-.3-3-1.1-5.8-2.5-8.3a14.7 14.7 0 0 0-6.8-6.1 31.8 31.8 0 0 0-13.5-2.3c-7.4 0-14.6 1.4-21.4 4.2a44 44 0 0 0-17 12.3l-1.8 2.2 3.8-17.2h-28.3a5 5 0 0 0-5 3.9l-20.9 95.3h36.3l12.3-56.3c2-7.7 8.7-13.8 15.4-13.8 3 0 5.6 1.2 7.4 3.3 2.2 2.6 3.1 6.4 2.5 10.5l-.2 1-12 55.3h35.8l12.3-56.3c2-7.7 8.7-13.8 15.4-13.8 3 0 5.6 1.2 7.4 3.3a13 13 0 0 1 2.5 10.5l-.2 1-12 55.3h35.8l14.5-65.4c.8-3.6 1.3-6.6 1.5-8.8Z" fill="#fff"/>
</svg>