<svg width="935" height="179" viewBox="0 0 935 179" fill="none" xmlns="http://www.w3.org/2000/svg">
  <path d="M219 118.7c0 37.5 23.1 60 57.5 60 17 0 31.5-4.9 39.5-17.4v17.3h31.4V0h-32.6v76c-7.4-12.6-21-18.2-38.1-18.2-33.5-.1-57.7 22.8-57.7 60.9Zm96.9 0c0 21.4-14.6 34.8-32.1 34.8-18.2 0-32.1-13.4-32.1-34.8 0-21.8 14-35.5 32-35.5 17.6 0 32.2 13.9 32.2 35.5Zm132.8 13.8c-3.8 13.9-13.2 20.8-28 20.8-17.4 0-31.6-10.5-32-29h82a67 67 0 0 0 1.6-14.8c0-33.2-22.7-51.9-56-51.9a57.7 57.7 0 0 0-60.2 59.8c0 38.3 27 61.3 64.4 61.3 28.3 0 47.4-11.8 55.9-35.2l-27.7-11Zm-60-30a27.1 27.1 0 0 1 27.6-21.1c14.6 0 24.5 7.8 24.5 20.2l-.2 1h-51.9Zm180.7 30c-3.7 13.9-13.1 20.8-28 20.8-17.3 0-31.5-10.5-32-29h82.1a67 67 0 0 0 1.5-14.8c0-33.2-22.6-51.9-56-51.9a57.7 57.7 0 0 0-60.2 59.8c0 38.3 27 61.3 64.5 61.3 28.2 0 47.4-11.8 55.8-35.2l-27.7-11Zm-60-30a27.1 27.1 0 0 1 27.7-21.1c14.6 0 24.5 7.8 24.5 20.2l-.2 1h-52ZM708 178.9v-29.5h-68.4L706 84.6V57.7H600.8v28H665l-66.3 65v28.1H708Zm95.1-46.3c-3.7 13.9-13.2 20.8-28 20.8-17.4 0-31.6-10.5-32-29h82a67 67 0 0 0 1.6-14.8c0-33.2-22.7-51.9-56-51.9a57.7 57.7 0 0 0-60.2 59.8c0 38.3 27 61.3 64.5 61.3 28.2 0 47.4-11.8 55.8-35.2l-27.7-11Zm-60-30a27.1 27.1 0 0 1 27.6-21.1c14.6 0 24.6 7.8 24.6 20.2l-.2 1h-52Z" fill="#fff"/>
  <path fill-rule="evenodd" clip-rule="evenodd" d="M145.4 57.7h40.1v23.5h-40V57.7Z" fill="#fff"/>
  <path fill-rule="evenodd" clip-rule="evenodd" d="M145.4 90.2h40.1v23.5h-40V90.2Z" fill="#fff"/>
  <path fill-rule="evenodd" clip-rule="evenodd" d="M145.4 122.8h40.1v23.5h-40v-23.5Z" fill="#fff"/>
  <path fill-rule="evenodd" clip-rule="evenodd" d="M0 155.3h40.1v23.5H0v-23.5Z" fill="#fff"/>
  <path fill-rule="evenodd" clip-rule="evenodd" d="M48.4 155.3h40.2v23.5H48.4v-23.5Z" fill="#fff"/>
  <path fill-rule="evenodd" clip-rule="evenodd" d="M97 155.3H137v23.5H97v-23.5Z" fill="#fff"/>
  <path fill-rule="evenodd" clip-rule="evenodd" d="M145.4 155.3h40.1v23.5h-40v-23.5Z" fill="#fff"/>
  <path fill-rule="evenodd" clip-rule="evenodd" d="M97 122.8H137v23.5H97v-23.5Z" fill="#fff"/>
  <path fill-rule="evenodd" clip-rule="evenodd" d="M48.4 122.8h40.2v23.5H48.4v-23.5Z" fill="#fff"/>
  <path fill-rule="evenodd" clip-rule="evenodd" d="M48.4 90.2h40.2v23.5H48.4V90.2Z" fill="#fff"/>
  <path d="M903.5 99.6v3.5H935v-9.2C935 73 922 58 900.4 58c-14 0-23.8 6.8-29 18.1v-18H839v120.6h32.6V101c0-12.3 6.6-19 16.7-19 9.3 0 15.3 8.8 15.3 17.6Z" fill="#fff"/>
</svg>