<svg width="984" height="231" viewBox="0 0 984 231" fill="none" xmlns="http://www.w3.org/2000/svg">
  <path opacity="0.2" fill-rule="evenodd" clip-rule="evenodd" d="M152.6 152 22.8 225.9c-7.3 4.2-13.8 4-18 .1l-.6.7.7.6c4.1 3.8 10.6 4.1 17.9 0l130.7-74.3-.9-.8Z" fill="#fff"/>
  <path opacity="0.12" fill-rule="evenodd" clip-rule="evenodd" d="m197.2 126.7-44.7 25.4.8.8 43.8-24.9c6.2-3.6 9.3-8.2 9.3-13-.4 4.4-3.6 8.4-9.2 11.7Z" fill="#fff"/>
  <path opacity="0.25" fill-rule="evenodd" clip-rule="evenodd" d="m22.7 4.3 174.5 99.2c5.6 3.1 8.8 7.3 9.3 11.6 0-4.7-3-9.4-9.3-13L22.7 3.2C10-4.2 0 1.7 0 16v1.3C0 3.1 10.1-2.7 22.7 4.4Z" fill="#fff"/>
  <path fill-rule="evenodd" clip-rule="evenodd" d="M249.1 108.8a58.3 58.3 0 0 1 58.3-57.5c17.6 0 30 6.9 39.4 15.8l-11 11.1a41.2 41.2 0 0 0-69.6 30.6c0 23.1 18 41.8 41.2 41.8 15 0 23.6-6 29-11.5 4.5-4.5 7.5-11 8.6-19.8h-37.6v-15.7h52.9c.6 2.8.8 6.2.8 9.8a52 52 0 0 1-13.6 36.8 52.6 52.6 0 0 1-40 16.1 58.3 58.3 0 0 1-58.4-57.5Zm154.8-16.5a36.5 36.5 0 0 0-37.2 37c0 21.3 16.7 37 37.2 37a36.6 36.6 0 0 0 37.1-37c0-21.5-16.6-37-37.1-37Zm0 59.4c-11.2 0-21-9.2-21-22.4 0-13.3 9.8-22.5 21-22.5s20.9 9.2 20.9 22.5c0 13.2-9.7 22.4-21 22.4Zm81-59.4a36.5 36.5 0 0 0-37.1 37c0 21.3 16.7 37 37.2 37a36.6 36.6 0 0 0 37.1-37c0-21.5-16.7-37-37.1-37Zm0 59.4c-11.1 0-20.8-9.2-20.8-22.4 0-13.3 9.6-22.5 20.9-22.5 11.2 0 20.9 9.2 20.9 22.5 0 13.2-9.7 22.4-21 22.4Zm99.6-57.2v6h-.6a25.6 25.6 0 0 0-19.5-8.2 36.9 36.9 0 0 0-35.5 37.1c0 20.8 17 37 35.5 37 8.9 0 15.9-4 19.5-8.5h.6v5.3c0 14.2-7.6 21.8-19.8 21.8-10 0-16.1-7.2-18.7-13.2l-14.1 5.9c4 9.8 14.8 21.9 32.8 21.9 19 0 35.2-11.3 35.2-38.6V94.5h-15.4Zm-18.7 57.2c-11.2 0-20.6-9.4-20.6-22.3 0-13 9.4-22.5 20.6-22.5 11.1 0 19.8 9.5 19.8 22.5s-8.7 22.3-19.8 22.3Zm45.3-96.5h16.3v108.9H611V55.2Zm60.9 96.5c-8.3 0-14.2-3.8-18-11.2l49.6-20.5-1.7-4.2c-3.1-8.2-12.5-23.5-31.7-23.5-19.1 0-35 15-35 37 0 20.7 15.8 37 36.8 37 17 0 26.8-10.4 30.9-16.4l-12.7-8.4a21.1 21.1 0 0 1-18.2 10.2Zm-1.3-45.1c6.5 0 12 3.2 13.8 7.8l-33.1 13.8a20.3 20.3 0 0 1 19.3-21.6ZM775 55.2h-39v108.9h16.3v-41.3H775c18 0 35.7-13 35.7-33.8 0-20.7-17.7-33.8-35.7-33.8Zm.4 52.5h-23V70.4h23c12.1 0 19 10 19 18.6a19 19 0 0 1-19 18.7ZM836 164V55.2h-16.2v108.9h16.2Zm73-.2v-41.7c0-19.4-14.5-30.1-33.1-30.1-11.8 0-24 5.1-29 16.6l14.4 6c3.1-6 8.8-8 14.9-8 8.4 0 17 5 17 14v1.2c-2.9-1.7-9.2-4.2-16.9-4.2-15.5 0-31.4 8.5-31.4 24.5 0 14.6 12.8 24 27 24 11 0 17-5 20.8-10.7h.5v8.4h15.7Zm-35-12.2c-5.4 0-12.8-2.7-12.8-9.2 0-8.4 9.2-11.7 17.2-11.7a29 29 0 0 1 14.9 3.7 19.7 19.7 0 0 1-19.4 17.2Zm92-57.3-18.6 47.2h-.5l-19.3-47.2H910l29 66-16.6 36.7h17L984 94.4h-18Z" fill="#fff"/>
  <path fill-rule="evenodd" clip-rule="evenodd" d="M0 16.2c0-5.4 1.4-9.6 3.8-12.4l109.6 109.6L2.7 224.7A19.4 19.4 0 0 1 0 214V16.2ZM4.5 227c4.1 4 10.8 4.3 18.2.1l129.9-73.9s.3 0 .5-.2l-37.6-37.6-111 111.6Zm113.2-113.7 38 38.1 41.5-23.5c12.5-7.2 12.5-18.8 0-25.8l-43.7-24.8-35.8 36Zm33.1-37.6L22.7 3C16.2-.7 10.3-.8 6 2l109.4 109.4 35.3-35.5Z" fill="#fff"/>
</svg>