<svg width="1084" height="307" viewBox="0 0 1084 307" fill="none" xmlns="http://www.w3.org/2000/svg">
  <g clip-path="url(#a)">
    <path d="M56 1C33.7 10.4 9.3 36.6 1.6 69.5c-9.8 41.7 30.8 59.3 34.1 53.5 4-6.8-7.2-9-9.5-30.7-3-27.9 10-59 26.3-72.8 3-2.5 3 1 3 7.6 0 11.7-.7 116.8-.7 138.7 0 29.7-1.2 39-3.4 48.3-2.3 9.4-5.9 15.7-3.2 18.2 3 2.7 16-3.8 23.6-14.3a78 78 0 0 0 12.7-44c.7-19.7.7-51 .7-69 0-16.3.3-64.3-.3-93.2C85 4.7 65.2-2.8 56 1Zm1023 156c-3.3 0-4.7 3.3-6 8.9-4.2 19.4-8.6 23.7-14.3 23.7-6.4 0-12.1-9.6-13.6-28.8a640 640 0 0 1 .5-70.6c.3-5.7-1.2-11.3-16.5-16.8-6.6-2.4-16.1-6-20.9 5.5a285.2 285.2 0 0 0-20 68.6c0 .5-.6.6-.8-.6-.7-8.4-2.5-23.6-2.7-55.5 0-6.3-1.4-11.6-8.3-16-4.4-2.7-18-7.7-22.9-1.8-4.2 4.9-9.1 18-14.2 33.4l-7 21V81.4c0-4.9-3.3-6.5-4.3-6.8a90.6 90.6 0 0 0-17.2-3.5c-4.7 0-5.8 2.6-5.8 6.4 0 .5-.7 44.7-.7 75.6v4.3c-2.6 14.2-11 33.5-20.1 33.5-9.1 0-13.4-8-13.4-44.9 0-21.5.6-30.8 1-46.3.1-9 .5-15.9.5-17.4-.1-4.8-8.4-7.2-12.2-8.1-4-.9-7.3-1.3-10-1.1-3.6.2-6.3 2.6-6.3 6v5.2a35.6 35.6 0 0 0-17.5-14.3c-13.8-4-28.3-.4-39.1 14.8a89.4 89.4 0 0 0-15.9 45.3c-1.5 14.3-1 28.9 1.7 41.2-3.3 13.9-9.2 19.6-15.8 19.6-9.5 0-16.3-15.5-15.5-42.2.5-17.6 4-30 7.9-47.9 1.6-7.6.3-11.6-3-15.4-3.1-3.5-9.7-5.3-19.1-3-6.7 1.5-16.3 3.2-25 4.5 0 0 .5-2.1 1-5.8 2.2-19.5-19-18-25.8-11.7a24 24 0 0 0-7.8 16 18.8 18.8 0 0 0 8.5 18.4 190.2 190.2 0 0 1-20 49.8c-4.5 7.7-8 13.4-12.5 19.6v-6.9c-.1-32.2.3-57.5.5-66.6l.5-17.2c0-3.5-2-4.9-6.3-6.5a45.1 45.1 0 0 0-12.9-2.9c-5.8-.4-9.3 2.6-9.2 6.3v5A35.6 35.6 0 0 0 601 69.8c-13.8-4-28.2-.4-39 14.8a97 97 0 0 0-16 45.2c-1.4 15-1.2 28 .9 38.7-2.2 10.9-8.5 22.2-15.7 22.2-9 0-14.3-8-14.3-44.9 0-21.5.7-30.8 1-46.3l.5-17.4c0-4.8-8.3-7.2-12.2-8.1-4-1-7.5-1.3-10.2-1-3.5.2-6 3.3-6 5.7v5.4A35.6 35.6 0 0 0 472.3 70c-13.8-4-28.1-.4-39 14.8-7.2 9.8-13 20.7-16 45-.8 7-1.2 13.5-1.1 19.6-2.9 17.4-15.4 37.4-25.7 37.4-6 0-11.8-11.6-11.8-36.5 0-33 2-80.2 2.4-84.7l15.5-.2c6.5-.1 12.4 0 21-.4 4.3-.2 8.5-15.7 4-17.7-2-.8-16.3-1.6-22-1.7-4.7-.1-18-1-18-1L383 9.7c.3-2.7-3.3-4.1-5.3-5A74 74 0 0 0 363 .6c-7.3-1.5-10.6 0-11.3 6.1-1 9.3-1.4 36.6-1.4 36.6-5.4 0-23.6-1-29-1-5 0-10.3 21.3-3.5 21.6l30.9.8s-.5 48-.5 62.7v4.6a72.3 72.3 0 0 1-22.7 40.2c3.8-17.3-4-30.3-18-41.3a1338 1338 0 0 0-26.6-20s6.6-6.6 12.4-19.6c4.2-9.3 4.3-19.9-5.8-22.2-16.8-3.9-30.7 8.5-34.8 21.6a25 25 0 0 0 4.8 25.6l1.4 1.8c-3.8 7.3-9 17.1-13.4 24.7-12.2 21.2-21.5 38-28.5 38-5.6 0-5.5-17-5.5-33 0-13.7 1-34.3 1.8-55.7.3-7-3.2-11-9.2-14.7a41.3 41.3 0 0 0-15.7-6.6c-6.7 0-25.9 1-44 53.4l-6.8 18.7.4-63.1c0-1.5-.8-3-2.6-3.9a45 45 0 0 0-18.5-5c-3.5 0-5.2 1.6-5.2 4.8l-.7 98.7c0 7.5.2 16.2 1 20 .7 3.9 2 7 3.4 8.8a9.8 9.8 0 0 0 6 3.9c2.7.5 17 2.4 17.8-3.1 1-6.6 1-13.7 8.5-40.3 11.8-41.4 27.1-61.6 34.4-68.8 1.2-1.2 2.7-1.3 2.6.8l-2.1 51c-2 51.5 7.4 61 20.8 61 10.3 0 24.7-10.1 40.3-36l25.8-43c4.7 4.3 10 9 15.2 14 12.3 11.5 16.3 22.6 13.6 33-2 8-9.7 16.3-23.4 8.3-4-2.4-5.7-4.2-9.7-6.8-2.2-1.4-5.4-1.8-7.4-.4-5.1 3.9-8 8.8-9.7 14.9-1.7 5.9 4.3 9 10.4 11.7a81.1 81.1 0 0 0 24 4.8c28.2 1 50.8-13.7 66.6-51.2 2.8 32.4 14.8 50.8 35.6 50.8 14 0 28-18 34-35.7a62.7 62.7 0 0 0 7.8 18.8c16 25.4 47.2 20 62.9-1.7 4.8-6.6 5.5-9 5.5-9a29.5 29.5 0 0 0 28.2 27.5c10.5 0 21.4-5 29-22.1 1 1.8 1.9 3.6 3 5.3 16 25.4 47.2 20 62.9-1.7l1.9-2.7.5 13.4-14.5 13.2c-24.1 22.1-42.5 38.9-43.8 58.4-1.7 25 18.5 34.2 33.8 35.4a43.2 43.2 0 0 0 38.7-20.2c7.5-11 12.5-34.9 12.1-58.3l-.6-34.2a273.6 273.6 0 0 0 52-90.5s9 0 18.5-.6c3-.2 3.9.4 3.3 2.7-.7 2.7-12 46.4-1.7 75.5 7.1 20 23.1 26.4 32.6 26.4 11.1 0 21.7-8.4 27.4-20.8a44 44 0 0 0 2.2 4c16 25.4 47.1 19.9 63-1.7 3.5-4.8 5.5-9 5.5-9 3.4 21 19.8 27.6 29.2 27.6 9.8 0 19.1-4 26.7-21.9.3 7.9.8 14.3 1.6 16.3.4 1.3 3.2 2.8 5.3 3.6 9 3.3 18 1.7 21.4 1 2.4-.4 4.2-2.3 4.5-7.1.6-12.8.2-34.2 4-50 6.6-26.8 12.6-37.1 15.5-42.2 1.6-2.9 3.4-3.4 3.5-.3.1 6.1.4 24.2 3 48.4 1.8 17.9 4.3 28.4 6.1 31.7 5.5 9.6 12.1 10 17.6 10 3.4 0 10.7-1 10-7-.3-3 .3-21.2 6.7-47.5 4.1-17.2 11.1-32.7 13.6-38.4 1-2 1.4-.4 1.4-.1-.6 11.8-1.8 50.5 3 71.6 6.6 28.7 25.5 31.9 32.1 31.9 14 0 25.6-10.7 29.5-38.8.9-6.8-.5-12-4.6-12Zm-589.4-17.4a91.6 91.6 0 0 1-8.4 36.4c-8.4 16.3-25.1 21.5-32.5-2.1-5.3-17-3.5-40.3-1.3-52.9 3.3-18.6 11.5-31.8 24.3-30.5 13.2 1.2 19.6 18.1 18 49.1Zm128.6.2c-.7 14-4.4 28.2-8.4 36.2-8.2 16.4-25.3 21.6-32.5-2.1a118.7 118.7 0 0 1-1.3-50.4c3.2-17.1 10.7-33 24.3-33 13.3 0 19.8 14.4 18 49.3Zm3.4 95.9c-.2 25.6-4.2 48.1-12.9 54.6-12.3 9.3-28.8 2.3-25.4-16.4 3-16.5 17.4-33.4 38.3-54v15.8Zm222-95.7a90.6 90.6 0 0 1-8.4 36c-8.2 16.4-25.3 21.5-32.5-2.1-4-13-4.1-34.5-1.3-52.5 2.9-18.3 11-32.2 24.3-31 13.2 1.3 19.3 18.2 17.9 49.6Z" fill="#fff"/>
  </g>
  <defs>
    <clipPath id="a">
      <path fill="#fff" d="M0 0h1084v307H0z"/>
    </clipPath>
  </defs>
</svg>