<svg width="1173" height="338" viewBox="0 0 1173 338" fill="none" xmlns="http://www.w3.org/2000/svg">
  <path fill-rule="evenodd" clip-rule="evenodd" d="M169.3 338c-93 0-169-76-169-169s76-169 169-169 169 76 169 169-76 169-169 169Zm-48.6-99.3a75.9 75.9 0 0 1 25.4 26.4c1 0 1 1 1 2.1v2.1l-1 1.1c0 1-1 1-1 1h-3.2a104.4 104.4 0 0 1-58.2-41.1c-1 0-1-1-1-2.2 0-1 0-2 1-3.1 1.1-1 2.2-1 3.2-1 12.7 3 23.3 8.4 33.8 14.7Zm150-98.2v-1c-5.3-19-15.8-36-30.6-48.7a105 105 0 0 0-50.7-25.3h-1c-1.1 0-2.2 0-3.3 1-1 1.1-1 2.2-1 3.2v1c9.5 58.2 3.2 117.3-18 172.2 0 .6-.2.8-.5 1-.3.4-.5.6-.5 1.2 0 1-1 1-2.1 1h-2.1s-1.1 0-1.1-1l-1-1.1v-2.1s-1.1-7.4-1.1-10.6a413.2 413.2 0 0 0-45.4-144.7c0-1-1-1-1-1l-1.1-1.1H106A108.5 108.5 0 0 0 72 128.9v3.1c0 1 1 2.1 2.1 2.1a166.8 166.8 0 0 1 78.2 135.2c0 1.1 0 2.2 1 3.2 1.1 1 2.2 1 2.2 1 1 0 2.3.3 3.7.6 1.3.3 2.6.5 3.7.5 1 0 2 0 3.1-1 .6-.6.9-.9 1-1.2v-1a172.6 172.6 0 0 1 103.6-127.7v-3.2Zm-10.6 77c1 1.1 1 2.2 1 3.3 0 1 0 2-1 3.1a97.6 97.6 0 0 1-35.9 36 113.2 113.2 0 0 1-48.6 14.7c-1 0-2 0-3.1-1-1-1-1-2.1-1-3.2 0-1 0-2.1 1-3.2a152.6 152.6 0 0 1 83.4-50.7h1c1.1 0 2.2 0 3.2 1Z" fill="#fff"/>
  <path d="M426 232.4c-8.5 0-17-1-24.3-5.3a42.3 42.3 0 0 1-15.9-14.8 56.8 56.8 0 0 1-5.3-22.2V187h29.6c0 5.2 1 9.5 3.2 13.7 2.1 2.1 6.3 4.2 9.5 4.2s7.4 0 10.6-2.1c2-1 3.1-4.2 4.2-6.3 1-3.2 1-6.4 1-9.5V97.2h32.8v88.7c1 12.7-3.2 25.3-11.6 34.9a48.8 48.8 0 0 1-15.9 9.5c-6.3 1-11.6 2-18 2Z" fill="#fff"/>
  <path d="M504.1 117.2c-3.2 0-6.3-1-8.4-2-2.1-1.1-4.3-3.2-6.4-5.4-1-2-2-5.2-2-8.4s1-6.3 2-8.5c1-2 3.2-4.2 6.4-5.2 3.1-1 5.2-2.1 8.4-2.1s6.4 1 8.5 2a28 28 0 0 1 6.3 5.3c1 2.2 2.1 5.3 2.1 8.5s-1 5.3-2.1 8.4c-1 2.2-3.2 4.3-6.3 5.3-2.1 1-5.3 2.1-8.5 2.1Zm-14.8 112V131H519v98.2h-29.6Z" fill="#fff"/>
  <path d="M584.4 232.4A48.8 48.8 0 0 1 540 208a61.6 61.6 0 0 1 0-55 42 42 0 0 1 18-17.9 57.3 57.3 0 0 1 52.8 0 39.6 39.6 0 0 1 16.9 18 61.6 61.6 0 0 1 0 54.9 48.8 48.8 0 0 1-18 18 53 53 0 0 1-25.3 6.3Zm0-22.2c4.2 0 8.4-1 11.6-3.2 3.2-3.1 6.3-6.3 7.4-10.5 2.1-5.3 2.1-10.6 2.1-15.9 0-5.3-1-10.5-2.1-14.8a22 22 0 0 0-6.3-10.5 15.9 15.9 0 0 0-11.7-4.3c-4.2 0-7.4 1.1-10.5 3.2-3.2 2.1-5.3 6.4-7.4 9.5-2.1 5.3-2.1 10.6-2.1 15.9 0 5.2 1 10.5 2 15.8 1.1 4.2 3.3 7.4 7.5 10.6 1 2 5.3 3.1 9.5 4.2Z" fill="#fff"/>
  <path d="M700.6 232.4c-9.5 0-19-1-27.5-4.3a49 49 0 0 1-21.1-13.7 36.3 36.3 0 0 1-8.5-22.2v-2h32.8c0 3 1 7.3 3.1 9.4 2.2 3.2 5.3 4.3 9.6 5.3 4.2 1 8.4 2.1 12.6 2.1 5.3 0 11.6-1 15.9-3.1 2-1.1 3.1-2.2 5.2-4.3 1.1-2 2.2-4.2 1.1-6.3 0-2.1-1-5.3-2.1-6.3a28 28 0 0 0-6.3-5.3 59.6 59.6 0 0 0-12.7-4.3l-24.3-6.3c-6.3-1-11.6-4.2-17-8.4A36.5 36.5 0 0 1 651 151a42.4 42.4 0 0 1-3.1-15.8c0-8.4 2-15.8 7.4-22.2a48.9 48.9 0 0 1 19-13.7 41.9 41.9 0 0 1 25.3-4.2c9.5 0 18 1 26.4 4.2a37.3 37.3 0 0 1 18 12.7 39.3 39.3 0 0 1 7.4 21h-31.7c0-2-1-4.1-2.1-6.3a8.2 8.2 0 0 0-4.3-4.2c-5.2-2-10.5-4.2-15.8-3.1-4.2 0-9.5 1-13.7 3.1-2.1 1-3.2 2.1-4.3 3.2-1 1-1 3.2-1 5.3 0 2 0 4.2 1 6.3 1.1 2.1 3.2 3.2 5.3 4.2 3.2 1 7.4 3.2 10.6 3.2L711 149c8.5 2.1 15.9 5.3 23.3 8.5a40.3 40.3 0 0 1 14.8 11.6 25.2 25.2 0 0 1 5.2 19c0 8.5-2 15.9-6.3 23.3a51.6 51.6 0 0 1-19 14.7c-8.5 4.3-19 6.4-28.5 6.4Z" fill="#fff"/>
  <path d="M798.8 232.4c-6.3 0-12.7-1-18-3.2a22.9 22.9 0 0 1-11.6-10.6 31 31 0 0 1-4.2-16.9c0-5.2 1-9.5 3.2-13.7a30 30 0 0 1 9.5-10.6 63.2 63.2 0 0 1 35.9-7.3h14.8v-3.2c0-3.2 0-7.4-1-10.6-1.1-2-3.3-4.2-5.4-6.3-3.1-1-6.3-2.1-8.4-2.1-4.2 0-8.5 1-11.6 3.1l-3.2 3.2c-1 1-1 3.2-1 4.2h-28.6c0-6.3 2.1-11.6 6.4-15.8 4.2-5.3 9.5-8.5 15.8-10.6a90 90 0 0 1 24.3-3.1A62 62 0 0 1 840 133a26.8 26.8 0 0 1 13.7 12.7 41.7 41.7 0 0 1 4.2 22.1v61.3h-26.4l-1-11.6a28.1 28.1 0 0 1-11.6 10.6 68.2 68.2 0 0 1-20.1 4.2Zm10.6-21.2c3.1 0 7.4-1 10.5-2 3.2-1.1 5.3-4.3 6.4-6.4 2-3.2 2-7.4 2-10.6V186h-10.5c-4.2 0-8.4 0-12.7 1a17 17 0 0 0-7.4 4.3c-1 1-2 2-2 3.2 0 1-1.1 3.1-1.1 4.2 0 2 0 3.1 1 5.3 1 2 2.1 3.1 3.2 4.2 3.2 2 6.3 3.2 10.6 3.2Z" fill="#fff"/>
  <path d="M903.4 232.4c-6.4 0-12.7-1-18-3.2a22.9 22.9 0 0 1-11.6-10.6 31 31 0 0 1-4.2-16.9c0-5.2 1-9.5 3.1-13.7a30 30 0 0 1 9.5-10.6 76 76 0 0 1 37-8.4H934v-3.2c0-3.1 0-7.4-1-10.5-1.1-2.1-3.2-4.3-5.3-5.3-3.2-1-6.4-2.1-8.5-2.1-4.2 0-8.4 1-11.6 3.1l-3.2 3.2c-1 1-1 3.2-1 4.2h-28.6c0-6.3 2.2-11.6 6.4-15.8 4.2-5.3 9.5-8.5 15.8-10.6a90 90 0 0 1 24.3-3.1 62 62 0 0 1 24.3 4.2 26.8 26.8 0 0 1 13.7 12.7 41.7 41.7 0 0 1 4.3 22.1v61.3H936l-1-11.6a28.1 28.1 0 0 1-11.7 10.6 68.2 68.2 0 0 1-20 4.2Zm10.5-21.2c3.2 0 7.4-1 10.6-2 3.2-1.1 5.3-4.3 6.3-6.4 2.1-3.2 2.1-7.4 2.1-10.6V186h-10.5c-4.3 0-8.5 0-12.7 1a17 17 0 0 0-7.4 4.3c-1 1-2.1 2-2.1 3.2 0 1-1 3.1-1 4.2 0 2 0 3.1 1 5.3 1 2 2.1 3.1 3.2 4.2 3.1 2 6.3 3.2 10.5 3.2Z" fill="#fff"/>
  <path d="M1000.5 229.2 968.8 131h31.7l18 65.5 18-65.5h28.5l-31.7 98.2h-32.8Z" fill="#fff"/>
  <path d="M1075.5 229.2V131h28.5v13.7c3.2-5.3 7.4-9.5 12.7-11.6a31 31 0 0 1 17-4.2c6.3 0 12.6 1 19 4.2 5.2 3.2 9.4 7.4 11.5 12.7a47.3 47.3 0 0 1 4.3 21v63.5h-29.6v-55c0-6.3-1-12.6-4.2-18-1-2-3.2-3-5.3-4.1-2.1-1.1-4.2-1.1-6.4-1.1-2 0-5.2 0-7.3 1a22 22 0 0 0-6.4 4.3 26.9 26.9 0 0 0-4.2 18v53.8h-29.6Z" fill="#fff"/>
</svg>