<svg width="857" height="174" viewBox="0 0 857 174" fill="none" xmlns="http://www.w3.org/2000/svg">
  <path d="M28 114.8c0 9.9 2.3 17.5 5.1 22.1 3.7 6 9.3 8.6 15 8.6 7.3 0 14-1.8 27-19.6 10.3-14.4 22.4-34.4 30.6-47l14-21.4a207 207 0 0 1 33.5-42.4A51 51 0 0 1 186.3.9c19 0 37.2 11 51 31.7a145.2 145.2 0 0 1 22.7 80.7c0 17.6-3.5 30.4-9.4 40.6a39 39 0 0 1-35.3 19.7v-28c16 0 19.9-14.7 19.9-31.5 0-23.9-5.6-50.4-17.8-69.3-8.8-13.4-20-21.7-32.4-21.7-13.5 0-24.3 10.2-36.4 28.2C142 61 135.5 72.6 128 85.8l-8.2 14.5A366 366 0 0 1 91 147.1c-14.4 19.2-26.7 26.5-43 26.5a42.1 42.1 0 0 1-38.8-21A75.6 75.6 0 0 1 0 113.9l28 1Z" fill="#fff"/>
  <path d="M22.1 34.6C35.1 14.8 53.6 1 75 1 87.2.9 99.5 4.6 112.3 15c14 11.4 29 30.3 47.6 61.3l6.7 11.2a464 464 0 0 0 30.6 47.2c7 8.3 11.8 10.8 18 10.8 16 0 20-14.6 20-31.4l24.8-.8c0 17.6-3.5 30.4-9.4 40.6a39 39 0 0 1-35.3 19.7 44 44 0 0 1-33.2-13.2 184 184 0 0 1-26.7-36L132 85.6a267.7 267.7 0 0 0-28.7-40.7c-6.7-7.1-15.2-15.7-29-15.7-11 0-20.5 7.8-28.3 19.7L22 34.6Z" fill="#fff"/>
  <path d="M74.4 29.1c-11 0-20.5 7.8-28.3 19.7a125.2 125.2 0 0 0-18 66c0 9.9 2.2 17.5 5 22.1l-24 15.8a75.6 75.6 0 0 1-9.1-39C0 86 7.6 57 22.1 34.8 35.1 14.6 53.6.8 75 .8l-.5 28.2Z" fill="#fff"/>
  <path d="M314.5 6.4H347l55.2 99.9 55.3-100h31.8v164.2h-26.5V44.7l-48.5 87.1h-24.8l-48.5-87v125.7h-26.5V6.4Zm257.8 61.2c-19 0-30.5 14.3-33.2 32h64.5c-1.3-18.3-11.9-32-31.3-32Zm-59.5 42c0-37.2 24.1-64.3 60-64.3C608 45.3 629 72 629 111.7v7.2h-89.9c3.2 19.3 16 32.3 36.6 32.3 16.4 0 26.7-5 36.4-14.2l14.1 17.2a73.2 73.2 0 0 1-51.5 19.3c-38.7 0-61.9-28.3-61.9-63.8ZM661.2 70h-24.4V48.2h24.4V12.3h25.5v36h37v21.6h-37v55c0 18.8 6 25.5 20.8 25.5 6.7 0 10.6-.6 16.3-1.6v21.5c-7.1 2-13.9 3-21.2 3-27.6 0-41.4-15.2-41.4-45.3V70ZM831.4 91A34.5 34.5 0 0 0 798 68.5c-21.9 0-35.9 15.5-35.9 40.8 0 24.7 13 41 34.9 41a36 36 0 0 0 34.4-22.6V91Zm25.6 79.5h-25.1v-17c-7 10-19.8 20-40.4 20-33.3 0-55.5-27.9-55.5-64.2 0-36.6 22.7-64 56.9-64 16.8 0 30 6.7 39 18.6V48.2H857v122.3Z" fill="#fff"/>
</svg>