<svg width="720" height="171" viewBox="0 0 720 171" fill="none" xmlns="http://www.w3.org/2000/svg">
  <path d="M113.4 90.6c-.2-13.9 5.8-24.7 18-32.5a39.4 39.4 0 0 0-48.8-13.5A90 90 0 0 1 69 49.1c-2.1 0-6.2-1.3-12.2-3.8-6-2.5-11.1-3.7-15.4-3.7a38 38 0 0 0-19.8 5.9c-6.1 3.8-11 9-14.7 15.6-4.7 8.2-7 18-7 29.4 0 10.3 1.7 20.5 5.2 30.8a103.9 103.9 0 0 0 24 40.5c4.8 4.8 9.7 7.1 14.7 6.9 3.2-.2 7.4-1.3 12.6-3.6 5-2.2 9.8-3.3 14.7-3.3 4.6 0 9.3 1.1 14.2 3.3 5.5 2.3 10 3.4 13.4 3.4a22 22 0 0 0 14.3-6.7c1.6-1.3 3.3-3.2 5-5.6a176.1 176.1 0 0 0 10.8-16.3 77.4 77.4 0 0 0 6.9-16.5 37.2 37.2 0 0 1-22.3-34.7Zm121 30.5h-.8l-33.9-77.4h-26.6v125h23.2v-81h1l28.4 64.3h16.2l28.3-64.3h1v81h23.5v-125h-26.4l-33.9 77.4Zm-142-93.7a37.7 37.7 0 0 0 8.9-24V1.7A9 9 0 0 0 101 0C97 .2 92.6 1.5 88 4a36.3 36.3 0 0 0-11.4 9c-6 7.2-9 14.9-9 23v1.7l.1 1.6c9.3 1 17.5-3 24.7-12Zm473.3 16.3h26v125h-26v-125Zm104.8 19.9c15.4 0 23.6 11.9 23.6 24.7h25v-2.7c0-24.1-18.5-44.3-48.8-44.3-32.6 0-52 21.4-52 58v14c0 36.6 19.3 57.7 51.9 57.7 31.2 0 48.9-20.4 48.9-43.1v-2.7h-25c0 12.9-8 23.6-23.5 23.6-15.8 0-25.9-11.3-25.9-35.4v-14c0-24 10.2-35.8 25.8-35.8Zm-276.1 59c0 16.7-9.8 26-24.2 26-14.5 0-24.3-9.2-24.3-26V43.7h-25.8v82.5c0 26.7 18.8 44.8 50 44.8 31.3 0 50.2-18.1 50.2-44.8V43.7h-26v78.9Zm112.2-26.7L488 91.7c-11-2.3-16.8-7.2-16.8-14.4 0-9.6 7.9-15.7 20.4-15.7 14.2 0 21.3 8.2 22 17h24.2c-.2-22-18.7-37.5-46-37.5-26 0-46.5 13.7-46.5 38.2 0 21.2 14.4 31.1 31.6 34.9l18.4 4.3c12.4 2.8 18.7 7 18.7 15.4 0 9.7-7.7 16.3-22.2 16.3-15.5 0-23.7-8.2-24.4-17.5h-25c.4 17.7 12 38.3 48.2 38.3 30.3 0 49.1-15.1 49.1-39.6 0-22.7-15.2-31.6-33.1-35.5Z" fill="#fff"/>
</svg>