<svg width="557" height="325" viewBox="0 0 557 325" fill="none" xmlns="http://www.w3.org/2000/svg">
  <path d="M369.8 140.6a29.6 29.6 0 0 1-16.3 4.4c-10.6 0-20.6-1.3-30.6-4.4-2.5-.6-4.4-1.2-5.6-1.2-1.9 0-2.5 1.2-2.5 3.7v6.3a9 9 0 0 0 1.2 4.3c.7.7 2 2 3.8 2.6 10 4.3 21.2 6.2 33.7 6.2a49 49 0 0 0 31.3-9.4 29.4 29.4 0 0 0 11.9-25c0-7.5-2-13.1-5.7-18.1a44 44 0 0 0-18.7-11.9l-17.5-6.9c-6.9-2.5-11.9-5-13.8-7.5-2.5-2.5-3.7-5-3.7-9.3 0-9.4 6.9-14.4 21.2-14.4 8.2 0 16.3 1.2 23.8 3.7 2.5.7 4.4 1.3 5 1.3 1.9 0 3.1-1.3 3.1-3.8V55c0-1.9-.6-3.1-1.2-4.4-.7-1.2-2-1.9-3.8-2.5a89 89 0 0 0-28.1-5 48.2 48.2 0 0 0-29.4 8.8A27.9 27.9 0 0 0 316.7 75c0 14.4 8 25 24.3 31.3l18.8 6.8c6.2 2.5 10 4.4 12.5 6.9s3.1 5 3.1 8.8c0 5-1.9 9.3-5.6 11.8Z" fill="#fff"/>
  <path d="M271.7 50.6v83.2a58.8 58.8 0 0 1-32 10.6c-6.8 0-11.8-1.9-15-5.7-3-3.7-4.3-9.3-4.3-17.4V50.5c0-3.1-1.2-4.4-4.4-4.4h-13c-3.2 0-4.5 1.3-4.5 4.4v77.5c0 10.7 2.5 19.4 8.2 25A33.1 33.1 0 0 0 231 162a72 72 0 0 0 42.5-15l1.3 7.5c0 1.8.6 2.5 1.9 3.1.6.6 1.8.6 3.7.6h9.4c3.1 0 4.4-1.2 4.4-4.3V50.5c0-3.1-1.3-4.4-4.4-4.4h-13.1c-3.8 0-5 2-5 4.4Z" fill="#fff"/>
  <path d="M153 158.8h13c3.2 0 4.4-1.3 4.4-4.4V76.2c0-10.6-2.5-18.7-8.1-24.3a31.6 31.6 0 0 0-23.8-8.8c-14.3 0-29.3 5-43.7 15.6-5-10.6-14.4-15.6-28.1-15.6-13.8 0-27.5 5-41.3 14.4l-1.2-6.9c0-1.9-.7-2.5-2-3.1-.5-.6-1.8-.6-3-.6h-10c-3.2 0-4.4 1.2-4.4 4.3V155c0 3.1 1.2 4.4 4.4 4.4h13c3.2 0 4.5-1.3 4.5-4.4V70.6a63.7 63.7 0 0 1 32.5-10c6.2 0 10.6 1.9 13 5.6a28 28 0 0 1 4.5 16.3v71.9c0 3.1 1.2 4.3 4.3 4.3h13.2c3 0 4.3-1.2 4.3-4.3V70.7a61.3 61.3 0 0 1 32.5-10c6.3 0 10.7 1.8 13.2 5.5a28 28 0 0 1 4.3 16.3v71.9c0 3.1 1.3 4.3 4.4 4.3Z" fill="#fff"/>
  <path d="M493.5 241.9a551.4 551.4 0 0 1-210 43.1 552 552 0 0 1-275-73.1 8.9 8.9 0 0 0-3.7-1.3c-4.4 0-6.9 5-2.5 9.4a407.4 407.4 0 0 0 275 105c76.2 0 164.4-23.8 225-68.8 10.6-7.4 1.9-18.7-8.8-14.3Z" fill="#fff"/>
  <path d="M491.7 71.3c5.6-6.3 14.3-9.4 26.8-9.4 6.3 0 12.5.6 18.2 2.5 1.8.6 2.5.6 3.7.6 1.9 0 3.1-1.3 3.1-4.4v-6.2c0-1.9-.6-3.8-1.2-4.4-.6-.6-1.9-1.9-3.1-2.5-8.2-1.9-16.3-3.8-23.8-3.8-17.5 0-30.6 5-40.6 15.7-9.4 10-14.4 25-14.4 43.7 0 18.8 4.4 33.2 13.8 43.2 9.3 10 22.5 15 40 15 9.3 0 18-1.3 25-4.4 1.8-.7 3-1.3 3.7-2.5.6-.7.6-2.5.6-4.4v-6.3c0-3-1.2-4.3-3-4.3-.7 0-2 0-3.2.6a78 78 0 0 1-20 3.1c-11.9 0-20.6-3.1-26.3-9.3-5.6-6.3-8-16.3-8-29.4v-3.2c.5-13.7 3-23.7 8.7-30Z" fill="#fff"/>
  <path d="M519.8 300.6c32.5-27.5 41.2-84.4 34.4-93.1-3.2-3.8-18.2-7.5-37-7.5-20 0-43.7 4.4-61.8 16.9-5.6 3.7-4.4 8.7 1.3 8.1 19.3-2.5 63-7.5 71.2 2.5 7.5 10-8.7 51.3-16.2 69.4-2 5.6 2.5 7.5 8 3.7Z" fill="#fff"/>
  <path d="M433 46.2h-13.2c-3.1 0-4.4 1.3-4.4 4.4v103.8c0 3.1 1.3 4.3 4.4 4.3h13.1c3.1 0 4.4-1.2 4.4-4.3V50.6c0-2.5-1.3-4.4-4.4-4.4Z" fill="#fff"/>
  <path d="M436.7 3.8A14.7 14.7 0 0 0 426 0c-4.3 0-7.5 1.3-10 3.8a12.7 12.7 0 0 0-3.7 9.3c0 3.8 1.2 7.5 3.7 9.4 2.5 2.5 5.7 3.8 10 3.8 4.4 0 7.5-1.3 10-3.8s3.8-5.6 3.8-9.4c0-3.7-.6-7.5-3.1-9.3Z" fill="#fff"/>
</svg>