<svg width="1321" height="298" viewBox="0 0 1321 298" fill="none" xmlns="http://www.w3.org/2000/svg">
  <g clip-path="url(#a)" fill="#fff">
    <path d="M1113 203.2V95.6c0-14.8 7.4-22.1 20.5-22.1h13.1c12.2 0 16.4 3 20.5 12.4l24.1 59.6 24.4-59.6c4.4-10.1 9.2-12.4 19.8-12.4h12.9c13.8 0 21.1 7.3 21.1 22v107.7c0 14-4.8 21.4-17.9 21.4h-7.4c-12.6 0-17.9-7.4-17.9-21.4v-63.7l-15.6 43.7c-2.1 5.7-2.3 11.2-19.6 11.2-17.2 0-16.8-5.3-19.3-11.2l-15.4-41.9v61.9c0 14-4.6 21.4-18 21.4h-7.3c-12.7 0-18-7.4-18-21.4m-62-35c0 15.7-12 26.2-27.4 26.2-11.2 0-18.4-5.9-18.4-14.9 0-15.1 20.4-21.4 35.7-21.8h10.2v10.5Zm-26.2-97.4c-29.8 0-58.3 14.3-58.3 33 0 23.5 29 22.9 29 22.9 3-12.7 13.5-19.2 27-19.2 20.9 0 28.6 10.2 28.6 25h-10.2c-59.6 0-82 23.7-82 50.8 0 26.2 21.9 43.7 50.7 43.7 20.1 0 39.4-7.4 43-21.5a25.4 25.4 0 0 0 25.3 20.3c12 0 17.6-4 18.1-5.5v-91c0-37.4-25.1-58.5-71.2-58.5m-264.4 97.4c0 15.7-12 26.2-27.5 26.2-11.1 0-18.3-5.9-18.3-14.9 0-15.1 20.4-21.4 35.7-21.8h10.1v10.5Zm-26.2-97.4c-29.8 0-58.4 14.3-58.4 33 0 23.5 29 22.9 29 22.9 3.1-12.7 13.6-19.2 27.1-19.2 20.8 0 28.5 10.2 28.5 25h-10.2c-59.5 0-82 23.7-82 50.8 0 26.2 22 43.7 50.8 43.7 20 0 39.3-7.4 43-21.5a25.4 25.4 0 0 0 25.3 20.3c12 0 17.6-4 18-5.5v-91c.1-37.4-25-58.5-71.1-58.5m85 134.5v-2.1c0-13.4 4.7-18.2 12.3-26.4l56.5-64.2h-46.7c-13.3 0-20.2-4.8-20.2-18v-2c0-12.6 6.9-18 20.2-18h83.3c16.8 0 23.4 9 23.4 18v2.3c0 13-4.8 18.4-12.2 26.2l-57.7 64.1h51c13.4 0 20.3 5.1 20.3 18.2v1.9c0 12.6-6.9 18.1-20.2 18.1h-86.7c-16.6 0-23.2-9.2-23.2-18.1Zm-304.8-2.1V94.9c0-14.3 6.7-21.4 19.4-21.4h6.6c13.4 0 20.3 7.1 20.3 21.4v34.5h47.6V94.9c0-14.3 6.6-21.4 19.3-21.4h6.9c13 0 20 7.1 20 21.4v108.3c0 14-7 21.4-20 21.4h-7c-12.6 0-19.2-7.4-19.2-21.4V168h-47.6v35.2c0 14-7 21.4-20.3 21.4h-6.6c-12.7 0-19.4-7.4-19.4-21.4M373 196c0-11 13.8-23 15.2-21.9a73.7 73.7 0 0 0 44.2 17.3c14.2 0 20.6-4.2 20.6-11.8 0-9.2-11.7-9.2-26.6-12.4-24.9-5-50-15.6-50-46.4 0-30.6 22.6-49.5 63.5-49.5 39.1 0 56.2 13.6 56.2 28.3 0 12.9-15.5 24-16.4 23a61.7 61.7 0 0 0-39.3-16c-13.3 0-20 4-20 11.4 0 8.7 12 8 27.6 11.5 29.2 6.4 51.5 19 51.5 46.5 0 32.4-22.3 50.5-67.2 50.5-43.6 0-59.3-15-59.3-30.5Zm927-105.3h3.1c2 0 3-.9 3-2.4 0-1.7-1-2.5-3.1-2.5h-3v5Zm5.3 8.5-3.3-4.7h-2v4.1c0 1.5-.7 2.4-2.2 2.4h-.7c-1.4 0-2.2-1.1-2.2-2.9V84.8c0-1.9 1-2.8 2.7-2.8h5.8c5.1 0 7.9 2 7.9 6 0 3-1.6 5-4.5 5.7l4.4 5.6c.2.4-1.3 1.9-3 1.9-.9 0-2-.5-3-2m12-7.7c0-8.7-6-15-14.6-15-8.7 0-14.5 6.2-14.5 15 0 8.7 6 15 14.6 15s14.5-6.2 14.5-15Zm-32.6 0c0-10.5 7.5-18.2 18-18.2 10.7 0 18.1 7.6 18.1 18.1 0 10.6-7.5 18.3-18 18.3-10.8 0-18.1-7.5-18.1-18.2Z"/>
    <path fill-rule="evenodd" clip-rule="evenodd" d="M149.3 298a149 149 0 1 1 0-298 149 149 0 0 1 0 298Zm20.8-36.6a18.5 18.5 0 0 0 20.8-4.2c4.3-4.2 29-27.8 43-43.5a73.6 73.6 0 0 0 19.2-54.2 76.8 76.8 0 0 0-27-53.6 75 75 0 0 0-96.5 1 359.3 359.3 0 0 0-21 21A18.6 18.6 0 0 0 136 153s10-11 18.4-18.4a37.9 37.9 0 0 1 47.4-.6 39.9 39.9 0 0 1 14.3 27.8c.6 9.9-2.8 19.5-9.6 27-13.4 14.8-38 38.5-41.5 41.8l-.4.4a18.5 18.5 0 0 0 5.5 30.4ZM74.2 198a72.7 72.7 0 0 0 47.5 17c17.8 0 35.6-6 49-18a373.3 373.3 0 0 0 21-21 18.6 18.6 0 0 0-27.4-25.1c-.4.5-10.3 11.1-18.4 18.4a38 38 0 0 1-47.4.6 40 40 0 0 1-14.3-27.8 36.7 36.7 0 0 1 9.6-27C108 99.3 135.4 73.2 135.7 73A18.6 18.6 0 0 0 110 46c-1.2 1.2-28.5 27.3-43.7 44.1A73.6 73.6 0 0 0 47 144.4 76.8 76.8 0 0 0 74.2 198Z"/>
  </g>
  <defs>
    <clipPath id="a">
      <path fill="#fff" d="M0 0h1321v298H0z"/>
    </clipPath>
  </defs>
</svg>