<svg width="1106" height="332" viewBox="0 0 1106 332" fill="none" xmlns="http://www.w3.org/2000/svg">
  <path d="M165.9 0a166 166 0 1 0 .1 331.8A166 166 0 0 0 165.9 0Zm76 239.4c-3 5-9.3 6.4-14.2 3.5-39-23.9-88-29.2-145.7-16a10.3 10.3 0 1 1-4.6-20.2c63.2-14.5 117.4-8.3 161 18.5 5 3 6.5 9.3 3.5 14.2Zm20.3-45.2a13 13 0 0 1-17.8 4.3C200 171 132 163 79.2 179a13 13 0 0 1-7.6-24.7c60.3-18.3 135.2-9.5 186.4 22a13 13 0 0 1 4.2 17.8Zm1.8-47c-53.5-31.8-141.7-34.7-192.7-19.2a15.5 15.5 0 1 1-9-29.8c58.6-17.8 156-14.3 217.5 22.3a15.5 15.5 0 0 1-15.8 26.7Zm187.2 6c-28.6-6.8-33.7-11.6-33.7-21.7 0-9.5 9-15.9 22.3-15.9a65 65 0 0 1 39.1 14.9 1.9 1.9 0 0 0 2.7-.4l14-19.8c.5-.8.4-1.9-.4-2.5-16-12.8-34-19-55-19-31 0-52.5 18.5-52.5 45 0 28.6 18.6 38.6 50.8 46.4 27.4 6.4 32 11.6 32 21.1 0 10.5-9.3 17-24.4 17-16.7 0-30.3-5.6-45.6-18.8a2 2 0 0 0-1.3-.5c-.5 0-1 .3-1.3.7l-15.7 18.6c-.7.8-.6 2 .2 2.6a93.4 93.4 0 0 0 63.1 24.3c33.3 0 54.9-18.2 54.9-46.4 0-23.9-14.2-37-49-45.5h-.2ZM575.7 125a45 45 0 0 0-36 17.3v-13c0-1.1-.9-2-1.9-2h-25.6c-1 0-1.9.9-1.9 2V275c0 1 .8 1.9 1.9 1.9h25.6c1 0 1.9-.9 1.9-1.9v-46a46 46 0 0 0 36 16.3c26.9 0 54-20.7 54-60.2s-27-60.2-54-60.2Zm24.2 60.2c0 20.1-12.4 34.2-30.1 34.2-17.5 0-30.8-14.7-30.8-34.2 0-19.5 13.3-34.2 30.8-34.2s30.1 14.4 30.1 34.2Zm99.5-60.2a60.5 60.5 0 0 0-61.7 60.6 60 60 0 0 0 61.2 60 60.5 60.5 0 0 0 61.9-60.4c0-33.8-27-60.2-61.4-60.2Zm0 94.6c-18.4 0-32.3-14.8-32.3-34.4 0-19.7 13.4-34 31.8-34 18.5 0 32.5 14.8 32.5 34.4 0 19.7-13.5 34-32 34Zm135.2-92.3h-28.2V98.5c0-1-.9-2-1.9-2h-25.6c-1 0-2 1-2 2v28.8h-12.3c-1 0-1.8.9-1.8 2v22c0 1 .8 1.8 1.8 1.8H777v57.1c0 23 11.4 34.8 34 34.8 9.3 0 16.9-2 24-6 .7-.3 1-1 1-1.6v-21a1.9 1.9 0 0 0-2.7-1.7c-5 2.5-9.7 3.6-15 3.6-8.3 0-12-3.7-12-12.1v-53h28.3c1 0 1.9-.9 1.9-2v-22c0-1-.8-1.9-1.9-1.9Zm98.3.1V124c0-10.4 4-15 13-15 5.3 0 9.6 1 14.4 2.6a1.9 1.9 0 0 0 2.5-1.8V88c0-.9-.6-1.6-1.4-1.8-5-1.6-11.5-3.1-21.3-3.1-23.6 0-36.2 13.3-36.2 38.6v5.4h-12.3c-1 0-1.9.9-1.9 1.9v22.2c0 1 .9 1.8 2 1.8h12.2v88c0 1.1.9 2 1.9 2h25.6c1 0 2-.9 2-2v-88h23.9l36.6 88c-4.1 9.3-8.2 11.1-13.8 11.1-4.5 0-9.3-1.3-14.1-4a2 2 0 0 0-1.5-.1c-.5.2-1 .5-1.1 1l-8.7 19c-.5 1-.1 2 .8 2.5 9 5 17.2 7 27.4 7 18.9 0 29.4-8.8 38.6-32.5l44.5-115a1.9 1.9 0 0 0-1.8-2.7h-26.7c-.8 0-1.5.6-1.8 1.3l-27.3 78.2-30-78.2c-.2-.8-1-1.3-1.7-1.3H933Zm-57 0h-25.6c-1 0-2 .8-2 1.8v112c0 1 1 1.9 2 1.9h25.6c1 0 1.9-.9 1.9-2V129.3a1.9 1.9 0 0 0-1.9-1.9Zm-12.7-51a18.4 18.4 0 1 0 0 36.7 18.4 18.4 0 0 0 0-36.8Zm224.7 87a18.1 18.1 0 0 1 0-36.2 18 18 0 0 1 18.1 18c0 9.9-8 18.1-18.1 18.1Zm0-34.5c-9.2 0-16.2 7.4-16.2 16.4 0 9 7 16.2 16.2 16.2s16.2-7.3 16.2-16.3-7-16.3-16.1-16.3Zm4 18.1 5.2 7.2h-4.3l-4.6-6.6h-4v6.6h-3.6v-19h8.5c4.4 0 7.3 2.3 7.3 6 0 3.2-1.8 5-4.4 5.8Zm-3-8.5h-4.7v6h4.7c2.3 0 3.8-1.2 3.8-3 0-2-1.5-3-3.8-3Z" fill="#fff"/>
</svg>