<svg width="1224" height="173" viewBox="0 0 1224 173" fill="none" xmlns="http://www.w3.org/2000/svg">
  <path d="M447.1 163.4H416V53h-40.2V26.5h111.5V53h-40.2v110.3Z" fill="#fff"/>
  <path d="M611.6 163.4h-31.3v-137h31.3v137Z" fill="#fff"/>
  <path d="M1163.5 136.4h54.1v27h-85.3v-137h31.3v110Z" fill="#fff"/>
  <path d="M715.8 26.4h50.6c37.4 0 74.6 19.8 74.6 68.1 0 45.5-36.5 68.9-72.7 68.9h-52.5v-137ZM746 136.5h19.4c26 0 43.5-16.3 43.5-42.2 0-24.6-17.6-41.2-42.8-41.2h-20.1v83.4Z" fill="#fff"/>
  <path d="M1014.6 163.4h34.3l-56.4-137h-32.3l-57 137h33.5l10.1-27h57.8l10 27ZM955.2 112l20.6-53.5 20.5 53.5h-41.1Z" fill="#fff"/>
  <path d="m166.7 46.4-40.1 40.1-40-40 40-40.1 40 40Z" fill="#fff"/>
  <path d="m166.7 126.6-40.1 40-40-40 40-40.1 40 40Z" fill="#fff"/>
  <path d="m86.5 46.4-40 40.1-40.1-40 40-40.1 40.1 40Z" fill="#fff"/>
  <path d="m246.8 46.4-40 40.1-40.1-40 40-40.1 40.1 40Z" fill="#fff"/>
</svg>