<svg width="812" height="223" viewBox="0 0 812 223" fill="none" xmlns="http://www.w3.org/2000/svg">
  <g clip-path="url(#a)" fill="#fff">
    <path d="M232 96.5c3.3-2.9 8-5.6 14-8a115.3 115.3 0 0 1 48.7-5.5c8.2.8 15.7 3.1 22.2 6.8l5 2.9c3.9 2.3 6.5 4.5 8.1 8.9H383V50.4H330v42h-1.6l-.4-8.1c-.6-14.2-4.6-24.2-12-30a54.2 54.2 0 0 0-19.2-6.8 119 119 0 0 0-15.6-1.8c-61 2.6-65.6 40.9-65.6 40.9a23.6 23.6 0 0 0-.9 8 43 43 0 0 0 6.6 20.5c2.6 4.2 6 7.9 10 10.8 4.9 3.4 10.3 6.1 16 8l8 2.2v1.3c-3.9.9-7.8 2-11.5 3.7a52 52 0 0 0-22.5 11.5c-5.5 5.4-8 12.8-6.6 23.5a59.5 59.5 0 0 0 1 5s5.4 45.7 84 40.7h1.4c21.3 0 38.2-3 50.7-9s21-15.8 25.3-29.5c3.5-10.1 5.1-25.7 4.9-46.8v-3h-3.8v.3a37.8 37.8 0 0 1-9.7 25.4 38.7 38.7 0 0 1-10.8 7.7c-4 2-8.3 3.7-12.7 4.8-4 1-9 1.7-14.7 2.4-16.2 2.3-45.2 2-45.2 2s-11.1-.2-16.7-1a109 109 0 0 1-22.8-5.5c-2.3-.9-4.4-2.2-6.2-3.9a18.5 18.5 0 0 1-4.6-6.2l-.4-1.3-.2-.8a8 8 0 0 1-.2-2.3c.2-2 1-4 2.5-5.6 2.7-2.9 16.4-7.2 43-8l6.4-.2H332.3V133h-43.6c-13 0-24-.7-33.2-2.8-4-.8-7.9-2-11.6-3.6-4.8-2.1-9-5.2-12.4-9.2-2-2.4-3.5-5-4.5-8-1.3-4.2.4-8.5 5-12.9Z"/>
    <path d="m634.2 186.7-.6-2.7a78.5 78.5 0 0 1-1-30.6 125.8 125.8 0 0 1 9-31.7 47 47 0 0 1-8.2-35.5c.3-2 2-10.7 9.3-19.9a42.7 42.7 0 0 0-20.5-15.1 76 76 0 0 0-24.3-3.8 66 66 0 0 0-22.7 4.1c-6 2.3-11.4 6.2-15.5 11.3-4 5-7 10.6-9.2 16.6-2.2 6.1-3.8 13.5-5 22h-1.4c0-16.9-3.2-29.7-9.5-38.5-6.4-8.7-17.2-13.8-32.5-15.2a88 88 0 0 0-8.3-.3c-14.8.2-25.4 3.3-32 9.3-6.4 6-11.7 16.4-15.9 31.2-1.2 4.4-2.1 9-2.7 13.5h-1.4V51.2h-52v168.4h52v-86.3c0-13.9 3.3-25.4 10-34.5 6.7-9.1 15.2-13 25.4-11.6 7.6 1 13.5 4.2 17.7 9.7a23 23 0 0 1 4.3 13c0 5-.9 10-2.8 14.6a804.8 804.8 0 0 0-13.7 38.2c-2.3 7.4-3.8 16-4.3 25.7a139 139 0 0 0 1.9 31.2H544a101.4 101.4 0 0 1-16.6-50c0-6 1-12.5 3-19.7a122 122 0 0 1 6.9-18.3 610.4 610.4 0 0 1 14.7-28.1c5-9.2 12.5-14.7 22.4-16.3a23.7 23.7 0 0 1 24.1 9.7 21 21 0 0 1 4.5 13c0 5-1 10-2.8 14.6-1.8 5-4 10.7-6.6 17.3-2.5 6.6-4.9 13.5-7 21a114 114 0 0 0-4.2 25.6 153 153 0 0 0 1.5 31.2h64.2a116.1 116.1 0 0 1-14-32.9Z"/>
    <path d="M656 97.4c3.3-3 8-5.7 14-8.1a115.3 115.3 0 0 1 48.7-5.5c8.3.9 15.7 3.1 22.3 6.8l5 2.9c3.8 2.3 6.5 4.6 8 8.9h53V51.2h-53v42h-1.6l-.3-8.1c-.7-14.2-4.7-24.2-12-30a54.2 54.2 0 0 0-19.3-6.8 119 119 0 0 0-15.5-1.8c-61 2.6-65.6 40.9-65.6 40.9l-.5 2.3c-.4 1.9-.5 3.8-.4 5.7a43 43 0 0 0 6.5 20.5c2.6 4.2 6 7.9 10 10.8 5 3.5 10.4 6.1 16.1 8 2.5.8 5.2 1.6 8 2.2v1.4c-4 .8-7.8 2-11.5 3.6a52 52 0 0 0-22.6 11.5c-5.4 5.4-8 12.8-6.6 23.5a59.5 59.5 0 0 0 1 5s5.5 45.8 84.1 40.7h1.4c21.3 0 38.2-3 50.6-9 12.5-6 21-15.8 25.4-29.4 3.5-10.2 5-25.8 4.8-46.8v-3.1h-3.8v.4a37.7 37.7 0 0 1-9.7 25.4 38.7 38.7 0 0 1-10.8 7.6c-4 2-8.2 3.7-12.6 4.8-4 1-9 1.7-14.8 2.5-16.2 2.2-45.1 1.8-45.1 1.8s-11.1 0-16.8-.8a109 109 0 0 1-22.7-5.6c-2.3-.9-4.4-2.2-6.2-3.9a18.5 18.5 0 0 1-4.7-6.2l-.3-1.3-.2-.7a8 8 0 0 1-.2-2.4c.2-2 1-4 2.5-5.5 2.6-3 16.4-7.3 43-8.2h52.6v-8.4h-43.5c-13 0-24-.7-33.3-2.7-4-.9-7.8-2-11.5-3.7-4.8-2-9-5.2-12.5-9.2-2-2.4-3.5-5-4.5-8-1.2-4.2.5-8.5 5.1-12.8Z"/>
    <path d="M126.6 49.9H80.5V0H76c-1 8.3-4.4 16.1-9.6 22.7a61.3 61.3 0 0 1-18.9 16c-7.7 4.1-16 7.2-24.6 9.1C15.3 49.2 7.7 50 0 50v52h68v1.7a75 75 0 0 0-48.2 15.8A53.7 53.7 0 0 0 0 163.9c0 12.2 3.8 22.9 11.3 31.9a67 67 0 0 0 28 19.9 102 102 0 0 0 36.7 6.4c13.2 0 24.6-1.6 34.2-4.8a61.3 61.3 0 0 0 22.5-12.5 54 54 0 0 0 13-19.8 93.8 93.8 0 0 0 6.3-23.9c1-9 1.4-18.2 1.4-27.3h-3.9c0 10.3-3.4 19-10.2 26a42.3 42.3 0 0 1-24.8 12.4 94.8 94.8 0 0 1-29.1-.3c-9.8-1.6-18-5.6-24.9-11.8a29.4 29.4 0 0 1-10.2-22.5c0-7.7 3.1-14.3 9.4-20 6-5.5 13.3-9.6 21.1-12a93.4 93.4 0 0 1 23.6-3.7H144v-5.5s-17.4-8.6-17.4-46.5Z"/>
    <path d="M158.3 90.8c6 3 12.9 4.5 20.6 4.5 7.8 0 14.5-1.5 20.3-4.5 8.1-4.4 12.2-11.3 12.2-20.6 0-9.4-4-16.3-12.2-20.6-5.8-3-12.5-4.5-20.3-4.5-7.7 0-14.6 1.5-20.6 4.5A21.9 21.9 0 0 0 146 70.2c0 9.3 4.1 16.2 12.2 20.6Z"/>
    <path d="m161 167.3.2-1.3-.3 1.3Z"/>
    <path d="M203.3 159.9c1.6-6.5 3.6-10.8 5.5-15 4.5-10.3 5.9-18.3-4-43.2h-52s15.2 19 10.2 54.8a111.5 111.5 0 0 1-2 10.8c-1.5 6.4-2.3 13-2.7 19.6a153 153 0 0 0 1.6 31.2h60.3s-24.4-28.2-17-58.2Z"/>
  </g>
  <defs>
    <clipPath id="a">
      <path fill="#fff" d="M0 0h812v223H0z"/>
    </clipPath>
  </defs>
</svg>