<svg width="1217" height="512" viewBox="0 0 1217 512" fill="none" xmlns="http://www.w3.org/2000/svg">
  <path d="m190.2 318.4 1 3-1-3Zm-48.3-21c1.8-15.7 8-24.5 19.7-33.6 16.7-12.3 37.6-5.3 37.6-5.3v-41.2c5-.1 10.1.2 15.2 1v53s-21-7-37.6 5.3a44.9 44.9 0 0 0-19.7 33.6c0 8.6 1.4 19.8 8.5 29.5l-5.3-3.2a45 45 0 0 1-18.4-39Zm158.7-156.2a72.6 72.6 0 0 1-17.5-35.8h14.5s-2.9 24.5 18.1 48.5l.3.4a84.2 84.2 0 0 1-15.4-13.1Z" fill="#606060"/>
  <path d="M370.2 178.5v51.9s-18.4-.7-32-4.4c-19.1-5-31.4-12.8-31.4-12.8l-9.2-6v107.3c0 6-1.5 20.8-6.3 33.3-6.2 16.2-15.8 27-17.6 29 0 0-11.7 14.5-32.3 24.2-18.6 8.8-35 8.6-39.8 8.8 0 0-28.3 1.2-53.7-16-5.5-3.9-10.6-8.2-15.3-13l.1.2c25.5 17.2 53.7 16 53.7 16 4.9-.2 21.2 0 39.8-8.7 20.6-9.7 32.3-24.2 32.3-24.2 1.8-2.1 11.4-12.8 17.6-29 4.8-12.5 6.4-27.4 6.4-33.4V194.5l9.1 6s12.3 7.7 31.3 12.8c13.7 3.6 32.2 4.4 32.2 4.4V177a49.1 49.1 0 0 0 15.1 1.5Z" fill="#606060"/>
  <path d="M355 177v40.6s-18.4-.7-32-4.3c-19.1-5.1-31.4-12.9-31.4-12.9l-9.1-6v107.3c0 6-1.6 20.8-6.4 33.3-6.2 16.3-15.8 27-17.6 29.1 0 0-11.7 14.4-32.3 24.2-18.6 8.7-35 8.5-39.8 8.7 0 0-28.2 1.2-53.6-16l-.2-.1a103.2 103.2 0 0 1-21.9-34.6c-2-6.1-6.2-20.6-5.6-34.7a95.4 95.4 0 0 1 60.9-87.3 91.2 91.2 0 0 1 33.2-7v41.2s-20.9-7-37.6 5.3a44.9 44.9 0 0 0-19.7 33.7 45.1 45.1 0 0 0 23.7 42.2c2.8 3.7 6 6.9 9.8 9.5 15.3 10 28 10.8 44.4 4.2 11-4.3 19-14.1 23-25 2.4-7 2.3-13.8 2.3-20.9v-202h38a72.6 72.6 0 0 0 33 48.8 81.3 81.3 0 0 0 21.2 16.2c5.6 2.8 11.6 5 17.8 6.5Z" fill="#fff"/>
  <path d="m95.6 333.6 1 2.7-1-2.7Z" fill="#C2C2C2"/>
  <path d="M166 224.3a93.7 93.7 0 0 0-49.3 43.4 95.3 95.3 0 0 0-6 78.6 105 105 0 0 0 14.4 26c2.3 3 4.9 6 7.5 8.6-8.6-6-16.2-13.1-22.7-21.3-8-10.3-13-22.3-14.3-25.9v-.1a95.4 95.4 0 0 1 55.2-122 91.1 91.1 0 0 1 48.4-6v11.7a92.6 92.6 0 0 0-33.2 7Z" fill="#C2C2C2"/>
  <path d="M283.1 105.4h-38v202.1c0 7.1 0 14-2.3 20.8a42 42 0 0 1-23 25.2 42.8 42.8 0 0 1-44.3-4.2c-3.8-2.7-7.1-5.9-9.8-9.6 13 7 24.6 6.9 39 1a42 42 0 0 0 22.9-25.1c2.3-6.9 2.3-13.7 2.3-20.8V92.7h52.5s-.6 5 .7 12.7Zm72 60.3V177a82.4 82.4 0 0 1-17.8-6.5 81.3 81.3 0 0 1-21.3-16.2 68.1 68.1 0 0 0 39 11.5Z" fill="#C2C2C2"/>
  <path d="M917 271.1a29.2 29.2 0 0 0 1.5 9.1 32 32 0 0 0 30.6 22.6v32.5c-15.8 0-27.1.5-44.3-9.6a63.5 63.5 0 0 1-30.7-55 64.2 64.2 0 0 1 33.3-56.5c15.1-8 26.7-8 41.7-8v32.4a32 32 0 0 0-32 32.1v.4Z" fill="#C2C2C2"/>
  <path d="M981.4 271.1a29 29 0 0 1-1.4 9.1 32 32 0 0 1-30.7 22.6v32.5c15.8 0 27.1.5 44.3-9.6a63.5 63.5 0 0 0 30.7-55 64.2 64.2 0 0 0-33.2-56.5c-15.2-8-26.8-8-41.8-8v32.4a32 32 0 0 1 32.1 32.1v.4Z" fill="#606060"/>
  <path d="M452.6 176.7h118.8l-11 32.7h-31v125.2H491V209.4h-38.5v-32.7Zm314.8 0v32.7H806v125.2h38.3V209.4h31l11-32.7H767.4ZM597.2 214a18.5 18.5 0 1 0 0-37 18.5 18.5 0 0 0 0 37Zm-18.5 120.6h37.5V227.1h-37.5v107.5Zm172.4-121.5h-43.8l-37.8 37.8v-74h-37.3l-.1 157.7h37.6v-41.1l11.7-10.6 36.5 51.7h40.3l-53-75.6 46-46ZM1111 259l45.8-46H1113l-37.8 38v-74.2h-37.3l-.1 157.8h37.6v-41.1l11.8-10.6 36.5 51.7h40.2l-53-75.6Zm-96.5 11.7a65 65 0 0 1-65.3 64.6 65 65 0 0 1-65.4-64.6 65 65 0 0 1 65.4-64.5 65 65 0 0 1 65.4 64.5Zm-33.3 0a32.1 32.1 0 1 0-64.2 0 32.1 32.1 0 0 0 64.3 0Z" fill="#fff"/>
</svg>