<svg width="858" height="453" viewBox="0 0 858 453" fill="none" xmlns="http://www.w3.org/2000/svg">
  <path d="M193.3 163.7c-34.8.2-44.1 17-43.7 40.8v100.2c-.2 2.5 1.1 2.7 2.5 2.8h25.5c1.4-.2 2.2-1 2.3-2.6v-43.4c0-2.2 1-3.1 2.8-3.1h9.6c1.2 0 2 .8 2.7 2l25.9 44.2a6 6 0 0 0 4.3 2.8h26.2c1.6-.1 2.5-.8 2-2.4l-29.8-52.7c-.5-1.2 0-1.7.4-2 12.1-7.2 19.8-17.6 19.7-40.4.1-26-6.6-46-47-46.2h-3.4Zm3 27.5c10.7.2 17.7 4.6 17.5 20-.2 16.8-8.9 19.3-18.6 20h-12.5c-1.2-.1-2.3-.4-2.4-2.8v-23c-.1-12.5 7.7-13.7 16-14.2Z" fill="#fff"/>
  <path d="M776 163.5c-34.8.2-44 17-43.7 40.8v100.2c-.1 2.5 1.2 2.7 2.5 2.8h25.6c1.3-.2 2.2-1 2.2-2.6v-43.4c0-2.2 1.1-3.1 2.9-3.1h9.5c1.3 0 2 .8 2.8 2l25.8 44.2a6 6 0 0 0 4.3 2.8h26.2c1.6-.1 2.5-.8 2.1-2.4l-29.8-52.7c-.5-1.2 0-1.7.4-2 12-7.2 19.8-17.6 19.6-40.4.2-26-6.5-46-47-46.2H776Zm3.1 27.5c10.6.2 17.6 4.6 17.4 20-.1 16.8-8.8 19.3-18.5 20h-12.5c-1.3-.1-2.4-.4-2.4-2.8v-23c-.1-12.5 7.7-13.7 16-14.2Z" fill="#fff"/>
  <path d="m435.8 15.7-26.3 45.8c-142.7 33.1-146.2 168-125.2 217.3l16.4-28.6v-81c.2-2.1 1.2-3.5 3.5-3.6h24.2c1.9.1 3.3.9 3.3 3.5v27.4l63.7-110.7 5.2 3.2 40.2-70.2-5-3Z" fill="#fff"/>
  <path d="M434.2 86.2a160.8 160.8 0 0 0-33.6 2.8l-69 119.4v96c-.2 1.7-1 2.8-2.6 3h-25.3c-2 0-3-1-3-3.2v-42.3l-24.5 42.6c15.3 43.6 40.5 66 67.2 85.2l-27 46.4 5.1 3.1 40.8-70.5-5.2-3.2 38.6-67.2c-6-5.6-9.4-14-9.8-25.8V169.4c.3-1.6.2-3.3 3-3.8h24.6c2 .2 3.2 1.2 3.3 3.5v92.6l90.2-157a163.9 163.9 0 0 0-72.8-18.5Z" fill="#fff"/>
  <path d="M526 84 417.7 272.6c1.3 4.5 4.6 7 12 7.1H463c2.2.2 3.6 1.4 3.6 4v20c-.2 2.4-1.4 3.5-3.3 3.6h-35.7a50 50 0 0 1-26.9-5.4l-38.4 66.7c29.7 15.5 64.1 22.7 106.7 15.5l45.7-79.1c-12.5-4.5-20-14.5-20.6-32.2V169.8c.3-1.6.3-3.3 3-3.8h24.6c2 .2 3.3 1.2 3.3 3.5v96.6c0 6 1 10.2 5 12.4l50.2-87 5 3 40.3-70.1-5-3.1-27.6 47.6a164.5 164.5 0 0 0-66.8-85Z" fill="#fff"/>
  <path d="M585.2 194.6 535.9 280l2 .2h33.3c2.3.1 3.6 1.3 3.7 4v20c-.2 2.3-1.4 3.4-3.3 3.5h-35.7c-5.6.2-10.7-.2-15.3-1.1l-61 105.8c65.6-8.6 166.8-91.3 125.6-218Z" fill="#fff"/>
  <path d="M24.2 169v21.2c0 .5 0 .9.2 1.3 0 .4.2.7.5 1 .2.3.5.6 1 .8l1.3.3h28.2l.4.3.3.4.1.7v108.6c0 .6 0 1.1.2 1.6.1.5.3 1 .7 1.4.3.3.7.7 1.2.9.5.2 1.1.3 1.9.3h23c.5 0 1 0 1.5-.2s1-.4 1.3-.7l.8-1.3a6 6 0 0 0 .3-2v-108l.1-1 .4-.7.6-.4 1-.1h26c.8 0 1.4-.1 1.9-.3a3 3 0 0 0 2-2.2l.2-1.9v-19.3c0-.8 0-1.4-.3-2 0-.3-.2-.5-.3-.7a2.6 2.6 0 0 0-1-1l-.7-.2a6 6 0 0 0-1.5-.2h-88l-1.2.2c-.4.1-.8.3-1 .6a2.5 2.5 0 0 0-.8 1c-.2.5-.3 1-.3 1.7Zm.5.4v20.8c0 .4 0 .8.2 1.1 0 .3.2.6.4.8.2.3.4.5.7.6l1.3.3h28.3l.6.5c.2.1.3.4.4.6l.2 1v108.5c0 .5 0 1 .2 1.4 0 .5.2.9.5 1.2.2.3.5.5 1 .7.4.2 1 .3 1.7.3h23c.5 0 1 0 1.4-.2.4-.1.7-.3 1-.6l.7-1 .2-1.8v-108l.2-1.2.5-.9.8-.6a3 3 0 0 1 1.1-.1h26.2c.6 0 1.2-.1 1.6-.3a2.5 2.5 0 0 0 1.7-1.8l.1-1.6v-19.4c0-.7 0-1.3-.2-1.8l-.3-.6a2 2 0 0 0-.8-.7l-.6-.2-1.3-.2h-88a5 5 0 0 0-1 .2l-1 .4a2 2 0 0 0-.5.9c-.2.4-.3.8-.3 1.4v.2-.2" fill="#fff"/>
  <path d="M701.7 187.8v-20.4c.1-2.7-1.2-3.8-3.5-3.8h-36c-20.5.5-37.3 6.5-38.2 36v70c1.7 32.6 22.6 36 45.8 36H699c1.7-.3 2.6-1.3 2.8-3v-20.8c-.1-2.2-1-3.6-3.4-3.6h-29.1c-8.4 0-15.6-1.4-15.3-13.6v-14.4c0-1.3.6-2.3 2.3-2.5h31.6c1.2-.2 2.5-.4 2.7-3v-21.6c0-1.6-.6-2.8-2.5-2.8H656c-1 0-1.6-.5-1.8-1.9v-13.7c-.2-11.6 7.2-13.6 16.3-13.3h28c1.8 0 3.3-.5 3.2-3.6Z" fill="#fff"/>
</svg>