<svg width="1067" height="238" viewBox="0 0 1067 238" fill="none" xmlns="http://www.w3.org/2000/svg">
  <g clip-path="url(#a)" fill="#fff">
    <path fill-rule="evenodd" clip-rule="evenodd" d="M303 7.1a42.6 42.6 0 0 1 30.2 30c7 26.6 7 81.9 7 81.9s0 55.3-7 81.8a42.6 42.6 0 0 1-30.1 30c-26.6 7.2-133 7.2-133 7.2s-106.4 0-132.9-7.1a42.6 42.6 0 0 1-30-30C0 174.2 0 119 0 119s0-55.3 7.1-81.8a42.6 42.6 0 0 1 30.1-30C63.7 0 170.2 0 170.2 0S276.4 0 303 7.1Zm-78.5 112L136 170V68l88.4 51Z"/>
    <path d="M412.1 154.7 374 17h33.3l13.4 62.5c3.4 15.4 6 28.5 7.6 39.4h1c1-7.8 3.6-20.9 7.5-39.2l13.8-62.7H484l-38.7 137.8V221h-33.1v-66.2Z"/>
    <path d="M493.9 216.5a37.2 37.2 0 0 1-14.4-21.2c-2.8-9.5-4.2-22.2-4.2-38.1v-21.7c0-16 1.6-28.9 4.9-38.6a38.8 38.8 0 0 1 15.2-21.3c6.9-4.4 15.9-6.7 27.1-6.7 11 0 19.9 2.3 26.5 6.8A39 39 0 0 1 563.6 97c3.1 9.7 4.6 22.5 4.6 38.5v21.7c0 15.9-1.5 28.6-4.5 38.3-3 9.6-7.8 16.7-14.6 21.1a49 49 0 0 1-27.3 6.7 49.1 49.1 0 0 1-27.9-6.8Zm37.7-23.3a73 73 0 0 0 2.8-23.9V123c0-10.7-1-18.5-2.8-23.4-1.9-5-5.1-7.5-9.9-7.5-4.5 0-7.7 2.5-9.6 7.5-1.8 5-2.8 12.7-2.8 23.4v46.4c0 11 1 19 2.7 23.9 1.8 4.8 5 7.3 9.7 7.3 4.8 0 8-2.5 10-7.3Z"/>
    <path d="M676.7 221h-26.3l-3-18.3h-.6c-7.2 13.7-17.9 20.6-32.2 20.6-9.9 0-17.2-3.2-21.9-9.7-4.7-6.5-7-16.6-7-30.4V71.8h33.6v109.4c0 6.7.7 11.4 2.1 14.3 1.5 2.8 4 4.2 7.3 4.2a16.8 16.8 0 0 0 14.4-9.5V71.8h33.6V221Z"/>
    <path d="M767.9 43.9h-33.3v177h-32.9v-177h-33.3v-27h99.5v27Z"/>
    <path d="M849 221h-26.4l-2.9-18.3h-.7c-7.1 13.7-17.8 20.6-32.1 20.6-10 0-17.2-3.2-22-9.7-4.6-6.5-7-16.6-7-30.4V71.8h33.6v109.4c0 6.7.7 11.4 2.2 14.3 1.4 2.8 3.9 4.2 7.3 4.2a16.8 16.8 0 0 0 14.4-9.5V71.8h33.5V221Z"/>
    <path d="M960 95.7c-2-9.4-5.3-16.2-9.8-20.5a26.4 26.4 0 0 0-18.7-6.3 31 31 0 0 0-17.3 5.2c-5.4 3.5-9.5 8.1-12.4 13.8h-.3V9.3h-32.3V221h27.7l3.4-14.1h.7c2.6 5 6.5 9 11.7 11.9 5.2 2.9 11 4.4 17.3 4.4 11.3 0 19.7-5.3 25-15.7 5.4-10.5 8.1-26.8 8.1-49v-23.6c0-16.7-1-29.7-3-39.1Zm-30.7 60.8c0 10.8-.5 19.3-1.4 25.5a27.3 27.3 0 0 1-4.5 13.1c-2 2.6-5 4-8.5 4-2.8 0-5.3-.7-7.7-2a14.7 14.7 0 0 1-5.7-5.9v-84.6c1.1-4 3.1-7.3 5.9-10 2.7-2.5 5.7-3.8 9-3.8a9 9 0 0 1 7.9 4c1.8 2.7 3.1 7.1 3.9 13.5.7 6.3 1 15.3 1 27v19.2Z"/>
    <path d="M1010.8 165c0 9.6.2 16.8.8 21.6.5 4.8 1.7 8.2 3.5 10.5 1.8 2.1 4.6 3.2 8.3 3.2 5 0 8.5-2 10.3-5.8a50.6 50.6 0 0 0 3-19.5l29 1.7c.2 1.3.3 3.1.3 5.4 0 13.8-3.8 24-11.3 30.9a46 46 0 0 1-32 10.2c-16.6 0-28.2-5.2-34.8-15.6-6.7-10.4-10-26.4-10-48.1v-26c0-22.4 3.5-38.8 10.4-49 6.9-10.4 18.6-15.5 35.4-15.5 11.5 0 20.3 2 26.5 6.3a34 34 0 0 1 13 19.7 142 142 0 0 1 3.8 37v25.5h-56.3v7.6Zm4.2-70.2a20.6 20.6 0 0 0-3.4 10.3c-.6 4.8-.9 12-.9 21.8v10.7h24.6V127c0-9.6-.3-16.8-1-21.8-.6-5-1.8-8.4-3.5-10.4s-4.3-3-7.9-3c-3.6 0-6.2 1-7.9 3.1Z"/>
  </g>
  <defs>
    <clipPath id="a"> 
      <path fill="#fff" d="M0 0h1067v238H0z"/>
    </clipPath>
  </defs>
</svg>