<svg width="128" height="22" viewBox="0 0 128 22" fill="none" xmlns="http://www.w3.org/2000/svg"><path d="M10.4 21.2a4.6 4.6 0 0 1-3.8-1.8 7 7 0 0 1-1-2 11.7 11.7 0 0 1-.5-4.1h-.2v8H.4V.8H5v3.2h.2c0-1.5.8-2.6 2.3-3.2a7.6 7.6 0 0 1 6.2.4C15.2 2.2 16 4 16 7v2.3A5.5 5.5 0 0 1 11 15c-1 .1-2 0-2.8-.3-.8-.4-1.4-.8-1.6-1.4h-.2c0 1 .5 1.9 1.5 2.4 1 .6 2 .8 3.3.8h5v4.7h-5.7ZM14.9 8V8c0-.4-.2-.8-.6-1.2L13.2 6l-1.6-.5A12.8 12.8 0 0 0 8.7 5a12.1 12.1 0 0 0-4.4 1c-.8.3-1.3.8-1.6 1.3l-.1.7c0 .5.2 1 .7 1.5.4.4 1 .7 1.7 1a13.7 13.7 0 0 0 3.7.5 12 12 0 0 0 3.8-.6c.7-.2 1.2-.5 1.7-1 .5-.4.7-.9.7-1.4Zm17.6 2.3c.3.9.4 2.2.4 3.8a13 13 0 0 1-.4 3.8c-.3.9-.9 1.6-1.7 2.2-1.2 1-3 1.5-5.4 1.5-2.4 0-4.2-.5-5.4-1.5-.6-.4-1-.9-1.4-1.5-.3-.6-.6-1.3-.7-2a22.9 22.9 0 0 1 .3-6.3A4 4 0 0 1 20 8c1.2-1 3-1.4 5.4-1.5 2.4 0 4.2.5 5.4 1.5a4 4 0 0 1 1.7 2.3Zm-2.8 6.2c1.5-.5 2.3-1.3 2.3-2.4 0-1.2-.8-2-2.3-2.5-1.3-.4-2.7-.6-4.3-.6-1.7 0-3.1.2-4.3.6-1.6.5-2.4 1.3-2.4 2.5 0 1.1.8 2 2.4 2.4 1.2.4 2.6.6 4.3.6 1.6 0 3-.2 4.3-.6Zm14.5-9.7h4.4v5.7h-4.8c0-1.4-.4-2.4-1.3-3-1-.7-1.8-.7-2.6 0s-1.2 1.8-1 3.4c0 2 1 3.5 2.7 4.3 1.4.8 2.8.9 4.3.4s2.3-1.4 2.6-2.7l.2-.9h.3c0 1.5-.1 2.7-.4 3.4-.2.7-.5 1.2-.9 1.7a6 6 0 0 1-2.7 1.8c-1.1.5-2.3.7-3.5.7a7 7 0 0 1-5.4-2.6 9.8 9.8 0 0 1-1.7-5.5c0-1.4.2-2.7.8-3.9a5.4 5.4 0 0 1 4.8-3c.7 0 1.4 0 2 .2l1 .5.5.7.3.7.1 1 .1.8v1h.2V6.8Zm16.6-.3c1.2 0 2 .3 2.8.8A3 3 0 0 1 65 9.1c.2.7 0 1.5-.3 2.3a4 4 0 0 1-1.7 1.8l-4.4 2.6h-.1c-.2.2-.2.4-.1.6 0 .3.2.4.5.4h6.5v4.4H58.6c-1 0-1.8-.5-2.3-1.4a3 3 0 0 1 .8-4 10 10 0 0 1 1.5-1l1-.6c.6-.3 1-.6 1.1-.8.3-.3.4-.6.4-1 .1-.6 0-1-.3-1.5-.2-.4-.5-.7-1-.8a3 3 0 0 0-1.4-.2 3.1 3.1 0 0 0-2.6 2 5 5 0 0 0-.3 2v7.3H51V1h4.5v10.2c.3-1.6.8-2.8 1.7-3.5.8-.7 2-1.1 3.6-1.1Zm18 .3H81v5.7h-4.8c0-1-.3-1.8-1-2.3a3 3 0 0 0-2.3-.6l-.5.1a2 2 0 0 0-1 .6c-.3.3-.4.7-.5 1 0 .3 0 .7.3 1 .3.4.6.7 1.2.8.6.2 1.9.3 3.8.3 2.2 0 3.7.6 4.5 1.6l.7 1.4c.1.6.1 1.1 0 1.6-.2.8-.7 1.5-1.5 2.1-.9.6-1.8 1-2.7 1.2-.8.2-2 .2-3.8.2-2.4 0-4-.5-5-1.4-1-1-1.6-2.6-1.6-4.9V14h.4c0 .8.1 1.3.4 1.6.3.3.9.6 1.8 1 .6.2 1.6.4 3 .4s2.6-.1 3.7-.4c1.1-.3 1.6-.8 1.4-1.5-.1-.6-1-.9-2.5-1h-2.5c-1.1 0-2 0-2.8-.3-1-.4-1.8-.9-2.2-1.6A3 3 0 0 1 67 10c0-.7.4-1.4 1-2 .5-.6 1.2-1 2-1.3l1.8-.2a9.1 9.1 0 0 1 2.8.4c.3 0 .5.1.6.3l.5.4.3.4.2.6.1.6v.7a12.7 12.7 0 0 1 .1 1.6h.2V6.8h2.1Zm11.3 0h6.2v4.5H92a8 8 0 0 0-2 .3c-.7.2-1.3.5-1.8 1-.6.5-.8 1-.8 1.7 0 .8.3 1.4.8 2 .6.5 1.3.8 2.2 1H93c.8-.1 1.5-.5 2-1a3 3 0 0 0 1-2.3h.3l-.1 2.3a8 8 0 0 1-.6 2.1c-.2.7-.6 1.3-1.1 1.7a5 5 0 0 1-2 1 9 9 0 0 1-2.8.5 9 9 0 0 1-3.2-.6 6 6 0 0 1-2.4-1.7c-.6-.8-1-1.7-1-2.7 0-1.7.6-3 1.8-3.8 1-1 2.5-1.4 4-1.4v-.1h-5.7V6.8l2-.1 2-.8c.7-.4 1.2-.8 1.6-1.4a4 4 0 0 0 .9-2h.4v4.3Zm17 10c0 1.7-.4 3-1.2 3.7-.7.7-2 1-3.9 1a4 4 0 0 1-4-4.7c0-.8.4-1.5 1-2 .4-.5 1-.8 1.5-1a20 20 0 0 1 3.9-.6 53.8 53.8 0 0 1 2.7 0H108.9a15.7 15.7 0 0 1 .8-.1 2 2 0 0 0 .6-.3l.1-.3c.1-.3 0-.7-.6-1-.4-.3-1.1-.6-2-.8l-3-.3h-.3a15 15 0 0 0-2.2.1 7.7 7.7 0 0 0-2.5.6c-.4.2-.7.4-.9.7l-.2 1h-.4c0-2.3.5-3.9 1.5-4.8 1-1 2.7-1.5 5-1.5 2.4 0 4 .4 5.2 1.3 1 .9 1.6 2.2 1.6 4v9.4h-4.4v-4.5h-.2Zm-5-.2c0 1 .4 1.5 1.2 1.8.8.3 1.7.1 2.5-.6 1-.8 1.4-2 1.4-3.8h-1.8c-2.2 0-3.3.9-3.3 2.6Zm21.6-10.1a4 4 0 0 1 2.7.9 3 3 0 0 1 1.2 2 4 4 0 0 1-.5 2.4c-.4.8-1 1.4-1.8 2l-3.4 1.9-.3-.3.6-.4c.8-.4 1.3-1.2 1.4-2.1a3 3 0 0 0-.3-1.6 2 2 0 0 0-.8-1 2.5 2.5 0 0 0-2.6.1c-.5.3-.9.8-1.2 1.4a5 5 0 0 0-.4 2v7.4H114V6.8h4.4v4.3h.1c.3-1.6.8-2.8 1.6-3.5 1-.7 2.1-1.1 3.7-1.1Z" fill="#fff"></path></svg>