<svg width="732" height="315" viewBox="0 0 732 315" fill="none" xmlns="http://www.w3.org/2000/svg">
    <g fill="#131c31">
        <path d="M402.17 207.102C396.142 207.102 391.237 202.197 391.237 196.169C391.237 190.141 396.142 185.236 402.17 185.236C408.198 185.236 413.103 190.141 413.103 196.169C413.103 202.197 408.198 207.102 402.17 207.102ZM402.17 188.462C397.921 188.462 394.463 191.919 394.463 196.169C394.463 200.418 397.921 203.876 402.17 203.876C406.42 203.876 409.877 200.418 409.877 196.169C409.877 191.919 406.42 188.462 402.17 188.462Z"/>
        <path d="M402.17 214.058C392.305 214.058 384.28 206.033 384.28 196.168C384.28 186.303 392.305 178.278 402.17 178.278C412.035 178.278 420.06 186.303 420.06 196.168C420.06 206.033 412.035 214.058 402.17 214.058ZM402.17 181.505C394.085 181.505 387.506 188.082 387.506 196.168C387.506 204.254 394.085 210.832 402.17 210.832C410.255 210.832 416.834 204.253 416.834 196.168C416.834 188.083 410.255 181.505 402.17 181.505Z"/>
        <path d="M402.17 221.195C388.371 221.195 377.144 209.968 377.144 196.169C377.144 182.369 388.371 171.143 402.17 171.143C415.97 171.143 427.196 182.369 427.196 196.169C427.196 209.968 415.97 221.195 402.17 221.195ZM402.17 174.369C390.15 174.369 380.37 184.148 380.37 196.169C380.37 208.189 390.15 217.968 402.17 217.968C414.191 217.968 423.97 208.189 423.97 196.169C423.97 184.148 414.191 174.369 402.17 174.369Z"/>
        <path d="M711.073 192.802H703.968V188.388C708.615 186.748 711.66 183.777 711.66 180.313C711.66 175.023 704.555 170.879 695.486 170.879C686.417 170.879 679.312 175.023 679.312 180.313C679.312 183.754 682.319 186.709 686.916 188.355V192.802H677.326C675.117 192.802 673.32 194.599 673.32 196.809V220.045C673.32 220.936 674.042 221.658 674.933 221.658C675.824 221.658 676.546 220.936 676.546 220.045V196.809C676.546 196.378 676.896 196.028 677.326 196.028H681.026V220.045C681.026 220.936 681.749 221.658 682.639 221.658C683.53 221.658 684.253 220.936 684.253 220.045V196.028H688.733V220.045C688.733 220.936 689.455 221.658 690.346 221.658C691.237 221.658 691.959 220.936 691.959 220.045V196.028H696.44V220.045C696.44 220.936 697.162 221.658 698.053 221.658C698.944 221.658 699.666 220.936 699.666 220.045V196.028H704.147V220.045C704.147 220.936 704.869 221.658 705.76 221.658C706.651 221.658 707.373 220.936 707.373 220.045V196.028H711.073C711.504 196.028 711.854 196.378 711.854 196.809V220.045C711.854 220.936 712.576 221.658 713.467 221.658C714.358 221.658 715.08 220.936 715.08 220.045V196.809C715.08 194.599 713.282 192.802 711.073 192.802H711.073ZM682.538 180.313C682.538 177.914 685.474 175.991 689.223 174.952C688.479 175.574 688.042 176.313 688.042 177.108C688.042 179.316 691.375 181.106 695.486 181.106C699.596 181.106 702.929 179.316 702.929 177.108C702.929 176.313 702.492 175.575 701.748 174.952C705.497 175.991 708.433 177.914 708.433 180.313C708.433 183.972 701.61 186.522 695.486 186.522C689.361 186.522 682.537 183.972 682.537 180.313H682.538Z"/>
        <path d="M492.063 196.25C496.032 193.951 498.738 189.43 498.738 184.239C498.738 176.727 493.072 170.615 486.109 170.615C481.384 170.615 477.259 173.432 475.094 177.588C472.929 173.431 468.805 170.615 464.079 170.615C457.116 170.615 451.451 176.727 451.451 184.239C451.451 189.43 454.157 193.951 458.126 196.25C454.157 198.55 451.451 203.07 451.451 208.261C451.451 215.773 457.116 221.885 464.079 221.885C468.805 221.885 472.93 219.069 475.094 214.912C477.259 219.069 481.384 221.885 486.109 221.885C493.072 221.885 498.738 215.773 498.738 208.261C498.738 203.07 496.032 198.549 492.063 196.25ZM476.858 186.042C480.673 186.847 483.67 190.208 484.344 194.447C480.53 193.642 477.532 190.282 476.858 186.042ZM480.155 196.25C478.032 197.48 476.273 199.347 475.094 201.61C473.915 199.347 472.155 197.48 470.032 196.25C472.155 195.021 473.915 193.154 475.094 190.891C476.273 193.154 478.032 195.021 480.155 196.25ZM465.843 194.448C466.517 190.208 469.515 186.848 473.33 186.043C472.656 190.283 469.658 193.643 465.843 194.448ZM473.33 206.458C469.515 205.653 466.517 202.293 465.843 198.053C469.658 198.858 472.656 202.219 473.33 206.458ZM484.344 198.053C483.67 202.293 480.673 205.653 476.858 206.458C477.532 202.219 480.53 198.858 484.344 198.053ZM486.109 173.841C491.293 173.841 495.511 178.506 495.511 184.239C495.511 189.406 492.083 193.691 487.613 194.492C486.883 188.416 482.432 183.586 476.814 182.756C477.468 177.725 481.381 173.842 486.108 173.842L486.109 173.841ZM454.677 184.239C454.677 178.506 458.894 173.841 464.078 173.841C468.806 173.841 472.719 177.725 473.373 182.756C467.754 183.586 463.303 188.416 462.574 194.491C458.104 193.691 454.676 189.405 454.676 184.239L454.677 184.239ZM464.078 218.659C458.894 218.659 454.677 213.994 454.677 208.261C454.677 203.095 458.104 198.809 462.574 198.009C463.304 204.085 467.755 208.915 473.374 209.745C472.719 214.776 468.806 218.659 464.079 218.659H464.078ZM486.109 218.659C481.381 218.659 477.468 214.776 476.814 209.745C482.433 208.915 486.883 204.085 487.613 198.009C492.083 198.809 495.511 203.095 495.511 208.261C495.511 213.994 491.293 218.659 486.109 218.659H486.109Z"/>
        <path d="M569.016 199.871C566.515 197.369 563.401 195.941 560.342 195.612C563.167 195.091 565.862 193.649 568.038 191.474C573.258 186.254 573.859 178.362 569.379 173.882C564.899 169.402 557.007 170.004 551.787 175.223C549.528 177.483 548.137 180.243 547.647 183.01C547.026 180.577 545.711 178.194 543.719 176.201C538.499 170.981 530.607 170.38 526.127 174.86C521.647 179.341 522.248 187.232 527.468 192.452C529.961 194.944 533.062 196.382 536.11 196.718C533.297 197.244 530.613 198.681 528.446 200.849C523.226 206.068 522.625 213.96 527.105 218.44C529.122 220.457 531.829 221.444 534.673 221.444C538.148 221.444 541.827 219.97 544.697 217.099C546.956 214.84 548.347 212.08 548.838 209.313C549.458 211.746 550.773 214.128 552.765 216.121C555.636 218.992 559.314 220.466 562.789 220.466C565.633 220.466 568.34 219.479 570.357 217.462C574.837 212.982 574.236 205.09 569.016 199.871ZM548.233 200.046C546.094 200.046 544.354 198.306 544.354 196.167C544.354 194.027 546.094 192.288 548.233 192.288C550.372 192.288 552.112 194.028 552.112 196.167C552.112 198.306 550.372 200.046 548.233 200.046ZM554.069 177.504C556.316 175.257 559.17 174.091 561.807 174.091C563.818 174.091 565.704 174.77 567.098 176.163C568.621 177.686 569.343 179.851 569.132 182.26C568.911 184.774 567.713 187.237 565.757 189.193C563.801 191.149 561.338 192.347 558.824 192.567C557.027 192.725 555.366 192.362 554.006 191.535L559.489 186.053C559.878 186.19 560.293 186.268 560.728 186.268C562.787 186.268 564.462 184.593 564.462 182.534C564.462 180.475 562.787 178.799 560.728 178.799C558.669 178.799 556.993 180.475 556.993 182.534C556.993 182.968 557.071 183.384 557.208 183.772L551.727 189.253C549.703 185.921 550.587 180.986 554.069 177.504ZM528.409 177.141C529.804 175.747 531.688 175.069 533.7 175.069C536.337 175.069 539.19 176.235 541.438 178.482C544.919 181.964 545.803 186.899 543.78 190.232L538.298 184.75C538.435 184.362 538.514 183.946 538.514 183.512C538.514 181.453 536.838 179.777 534.779 179.777C532.72 179.777 531.045 181.453 531.045 183.512C531.045 185.571 532.72 187.246 534.779 187.246C535.213 187.246 535.629 187.168 536.017 187.031L541.499 192.513C538.166 194.536 533.231 193.653 529.75 190.171C525.788 186.209 525.186 180.364 528.409 177.142V177.141ZM542.416 214.819C538.454 218.781 532.61 219.382 529.387 216.16C527.864 214.637 527.142 212.472 527.353 210.063C527.573 207.549 528.772 205.087 530.728 203.13C532.684 201.174 535.146 199.976 537.661 199.756C537.935 199.732 538.207 199.72 538.474 199.72C539.958 199.72 541.321 200.093 542.473 200.792L536.995 206.271C536.607 206.133 536.191 206.055 535.757 206.055C533.698 206.055 532.023 207.73 532.023 209.789C532.023 211.848 533.698 213.524 535.757 213.524C537.816 213.524 539.492 211.849 539.492 209.789C539.492 209.355 539.413 208.939 539.276 208.551L544.758 203.07C546.781 206.402 545.897 211.337 542.416 214.819ZM568.076 215.182C564.852 218.404 559.008 217.803 555.047 213.841C551.565 210.359 550.681 205.424 552.705 202.092L558.187 207.573C558.049 207.962 557.971 208.377 557.971 208.811C557.971 210.871 559.646 212.546 561.706 212.546C563.765 212.546 565.44 210.871 565.44 208.811C565.44 206.752 563.765 205.077 561.706 205.077C561.271 205.077 560.856 205.155 560.468 205.292L554.989 199.813C556.17 199.096 557.549 198.738 558.997 198.738C561.634 198.738 564.488 199.904 566.735 202.152C570.697 206.114 571.299 211.959 568.076 215.181L568.076 215.182Z"/>
        <path d="M634.293 209.939C638.736 203.471 642.729 195.905 642.729 189.588C642.729 178.813 635.291 175.36 628.858 174.252C628.295 171.364 626.274 167.453 621.311 167.453C621.296 167.453 621.282 167.457 621.266 167.457C621.251 167.457 621.237 167.453 621.222 167.453C616.259 167.453 614.237 171.364 613.674 174.252C607.242 175.36 599.803 178.813 599.803 189.588C599.803 195.905 603.797 203.471 608.239 209.939C606.384 209.958 604.533 210.671 603.12 212.084C601.732 213.471 600.968 215.317 600.968 217.28C600.968 219.242 601.732 221.088 603.12 222.476C604.509 223.864 606.354 224.628 608.317 224.628C610.279 224.628 612.125 223.864 613.513 222.476C614.143 221.845 614.143 220.824 613.513 220.195C612.883 219.565 611.862 219.565 611.231 220.195C610.453 220.973 609.418 221.402 608.317 221.402C607.215 221.402 606.18 220.973 605.402 220.195C604.623 219.416 604.195 218.381 604.195 217.28C604.195 216.179 604.623 215.143 605.402 214.364C607.009 212.758 609.625 212.758 611.232 214.364C611.373 214.506 611.536 214.61 611.708 214.688C615.918 220.134 619.713 224.048 620.068 224.411C620.385 224.735 620.803 224.896 621.222 224.896C621.237 224.896 621.251 224.893 621.266 224.892C621.282 224.892 621.296 224.896 621.311 224.896C621.73 224.896 622.148 224.734 622.464 224.411C622.82 224.047 626.614 220.135 630.825 214.689C630.997 214.611 631.16 214.506 631.3 214.364C632.908 212.758 635.524 212.758 637.13 214.364C637.909 215.143 638.338 216.179 638.338 217.28C638.338 218.381 637.909 219.416 637.13 220.195C636.352 220.973 635.316 221.402 634.215 221.402C633.114 221.402 632.079 220.973 631.3 220.195C630.67 219.565 629.649 219.565 629.019 220.195C628.389 220.824 628.389 221.845 629.019 222.476C630.407 223.864 632.253 224.628 634.215 224.628C636.178 224.628 638.024 223.864 639.412 222.476C640.8 221.088 641.564 219.242 641.564 217.28C641.564 215.317 640.8 213.471 639.412 212.084C637.999 210.671 636.149 209.958 634.293 209.939ZM639.503 189.588C639.503 199.318 628.143 213.259 622.834 219.242V187.767C624.452 186.412 626.873 186.492 628.393 188.012C629.172 188.791 629.6 189.826 629.6 190.927C629.6 192.027 629.172 193.063 628.393 193.842C627.763 194.471 627.763 195.492 628.393 196.123C628.708 196.438 629.121 196.595 629.534 196.595C629.947 196.595 630.36 196.438 630.675 196.123C632.063 194.735 632.827 192.889 632.827 190.927C632.827 188.964 632.063 187.118 630.675 185.731C629.287 184.342 627.441 183.578 625.478 183.578C624.559 183.578 623.668 183.752 622.834 184.073V176.968C631.315 177.153 639.503 179.081 639.503 189.587V189.588ZM621.221 170.679C621.237 170.679 621.251 170.675 621.266 170.675C621.281 170.675 621.296 170.679 621.311 170.679C623.821 170.679 624.929 172.398 625.419 173.844C623.774 173.728 622.338 173.726 621.311 173.726C621.295 173.726 621.281 173.731 621.266 173.731C621.251 173.731 621.236 173.726 621.221 173.726C620.194 173.726 618.758 173.728 617.113 173.844C617.604 172.398 618.711 170.679 621.221 170.679ZM619.608 176.971V184.045C616.999 183.082 613.95 183.639 611.858 185.731C610.47 187.119 609.705 188.964 609.705 190.927C609.705 192.89 610.47 194.735 611.858 196.123C612.173 196.438 612.586 196.596 612.998 196.596C613.411 196.596 613.824 196.438 614.139 196.123C614.769 195.493 614.769 194.472 614.139 193.842C613.361 193.064 612.932 192.029 612.932 190.927C612.932 189.826 613.361 188.791 614.139 188.013C615.631 186.521 617.992 186.416 619.608 187.695V219.142C614.263 213.104 603.029 199.264 603.029 189.588C603.029 179.12 611.159 177.167 619.608 176.971Z"/>
        <path d="M110.211 51.1091C104.182 51.1091 99.2781 46.2043 99.2781 40.1762C99.2781 34.148 104.183 29.2432 110.211 29.2432C116.239 29.2432 121.144 34.148 121.144 40.1762C121.144 46.2043 116.239 51.1091 110.211 51.1091ZM110.211 32.4688C105.962 32.4688 102.504 35.9262 102.504 40.1756C102.504 44.425 105.962 47.8824 110.211 47.8824C114.46 47.8824 117.918 44.425 117.918 40.1756C117.918 35.9262 114.46 32.4688 110.211 32.4688Z"/>
        <path d="M110.211 58.0646C100.346 58.0646 92.3213 50.0395 92.3213 40.1749C92.3213 30.3103 100.346 22.2852 110.211 22.2852C120.076 22.2852 128.101 30.3103 128.101 40.1749C128.101 50.0395 120.076 58.0646 110.211 58.0646ZM110.211 25.5113C102.126 25.5113 95.5475 32.089 95.5475 40.1749C95.5475 48.2608 102.126 54.8384 110.211 54.8384C118.296 54.8384 124.875 48.2602 124.875 40.1749C124.875 32.0895 118.296 25.5113 110.211 25.5113Z"/>
        <path d="M110.211 65.2015C96.4116 65.2015 85.1851 53.9749 85.1851 40.1754C85.1851 26.376 96.4116 15.1494 110.211 15.1494C124.011 15.1494 135.237 26.376 135.237 40.1754C135.237 53.9749 124.011 65.2015 110.211 65.2015ZM110.211 18.3756C98.1909 18.3756 88.4112 28.1547 88.4112 40.1754C88.4112 52.1962 98.1909 61.9753 110.211 61.9753C122.231 61.9753 132.011 52.1957 132.011 40.1754C132.011 28.1552 122.231 18.3756 110.211 18.3756Z"/>
        <path d="M54.165 36.8087H47.0599V32.3948C51.7066 30.7548 54.7516 27.7835 54.7516 24.3202C54.7516 19.0298 47.647 14.8857 38.5777 14.8857C29.5084 14.8857 22.4032 19.0298 22.4032 24.3202C22.4032 27.7609 25.4106 30.7161 30.0073 32.362V36.8087H20.418C18.2087 36.8087 16.4111 38.6062 16.4111 40.8156V64.0517C16.4111 64.9426 17.1333 65.6648 18.0242 65.6648C18.9152 65.6648 19.6373 64.9426 19.6373 64.0517V40.8156C19.6373 40.3849 19.9874 40.0349 20.418 40.0349H24.1179V64.0522C24.1179 64.9432 24.8401 65.6653 25.731 65.6653C26.622 65.6653 27.3441 64.9432 27.3441 64.0522V40.0349H31.8248V64.0522C31.8248 64.9432 32.5469 65.6653 33.4378 65.6653C34.3288 65.6653 35.0509 64.9432 35.0509 64.0522V40.0349H39.5316V64.0522C39.5316 64.9432 40.2537 65.6653 41.1447 65.6653C42.0356 65.6653 42.7577 64.9432 42.7577 64.0522V40.0349H47.2384V64.0522C47.2384 64.9432 47.9605 65.6653 48.8515 65.6653C49.7424 65.6653 50.4646 64.9432 50.4646 64.0522V40.0349H54.1644C54.5951 40.0349 54.9452 40.3849 54.9452 40.8156V64.0517C54.9452 64.9426 55.6673 65.6648 56.5583 65.6648C57.4492 65.6648 58.1714 64.9426 58.1714 64.0517V40.8156C58.1714 38.6062 56.3738 36.8087 54.1644 36.8087H54.165ZM25.6294 24.3202C25.6294 21.9204 28.5658 19.9976 32.3146 18.9588C31.5704 19.5809 31.1338 20.3197 31.1338 21.1144C31.1338 23.3227 34.4665 25.1127 38.5772 25.1127C42.6878 25.1127 46.0205 23.3227 46.0205 21.1144C46.0205 20.3197 45.5839 19.5814 44.8397 18.9588C48.5885 19.9976 51.5249 21.9204 51.5249 24.3202C51.5249 27.9792 44.7015 30.5284 38.5772 30.5284C32.4528 30.5284 25.6289 27.9787 25.6289 24.3202H25.6294Z"/>
        <path d="M346.083 40.2573C350.052 37.9581 352.758 33.4372 352.758 28.2462C352.758 20.7341 347.093 14.6221 340.13 14.6221C335.404 14.6221 331.28 17.4385 329.115 21.5949C326.95 17.438 322.825 14.6221 318.1 14.6221C311.137 14.6221 305.472 20.7341 305.472 28.2462C305.472 33.4372 308.178 37.9581 312.146 40.2573C308.178 42.5565 305.472 47.0769 305.472 52.2678C305.472 59.78 311.137 65.892 318.1 65.892C322.825 65.892 326.95 63.0756 329.115 58.9192C331.28 63.0761 335.404 65.892 340.13 65.892C347.093 65.892 352.758 59.78 352.758 52.2678C352.758 47.0769 350.052 42.556 346.083 40.2573ZM330.879 30.0491C334.694 30.8541 337.691 34.2147 338.365 38.4539C334.55 37.6489 331.553 34.2883 330.879 30.0491ZM334.176 40.2573C332.053 41.487 330.294 43.3534 329.114 45.6171C327.935 43.3534 326.176 41.487 324.053 40.2573C326.175 39.0276 327.935 37.1613 329.114 34.8975C330.294 37.1613 332.053 39.0276 334.176 40.2573ZM319.863 38.4544C320.538 34.2147 323.535 30.8546 327.35 30.0497C326.676 34.2894 323.678 37.6495 319.863 38.4544ZM327.35 50.465C323.535 49.66 320.538 46.2994 319.863 42.0602C323.678 42.8651 326.676 46.2257 327.35 50.465ZM338.365 42.0602C337.691 46.2994 334.694 49.66 330.879 50.465C331.553 46.2257 334.55 42.8651 338.365 42.0602ZM340.129 17.8483C345.314 17.8483 349.531 22.5128 349.531 28.2462C349.531 33.4124 346.104 37.6979 341.633 38.4985C340.903 32.4231 336.453 27.5929 330.834 26.7633C331.488 21.7315 335.401 17.8488 340.129 17.8488L340.129 17.8483ZM308.697 28.2462C308.697 22.5128 312.915 17.8483 318.099 17.8483C322.827 17.8483 326.739 21.7315 327.394 26.7627C321.775 27.5924 317.324 32.4231 316.594 38.498C312.124 37.6979 308.696 33.4119 308.696 28.2457L308.697 28.2462ZM318.099 62.6658C312.914 62.6658 308.697 58.0013 308.697 52.2678C308.697 47.1022 312.124 42.8162 316.595 42.0161C317.324 48.0916 321.775 52.9217 327.394 53.7514C326.74 58.7831 322.827 62.6658 318.099 62.6658H318.099ZM340.129 62.6658C335.401 62.6658 331.489 58.7826 330.835 53.7514C336.453 52.9217 340.904 48.0916 341.634 42.0161C346.104 42.8162 349.532 47.1022 349.532 52.2678C349.532 58.0013 345.314 62.6658 340.13 62.6658H340.129Z"/>
        <path d="M277.057 43.8777C274.556 41.3763 271.441 39.9482 268.382 39.6191C271.207 39.0981 273.903 37.656 276.078 35.4805C281.298 30.2605 281.9 22.3693 277.419 17.8892C272.94 13.4086 265.048 14.0108 259.828 19.2302C257.569 21.4896 256.178 24.2496 255.687 27.0166C255.067 24.5835 253.752 22.201 251.759 20.2083C246.54 14.9883 238.648 14.3866 234.168 18.8673C229.688 23.3474 230.289 31.2391 235.509 36.4586C238.001 38.9513 241.102 40.3886 244.151 40.7246C241.337 41.251 238.654 42.6883 236.487 44.8558C231.267 50.0752 230.666 57.967 235.146 62.4471C237.163 64.4634 239.87 65.4506 242.714 65.4506C246.188 65.4506 249.867 63.9768 252.738 61.106C254.997 58.8466 256.387 56.0866 256.878 53.3197C257.499 55.7527 258.814 58.1353 260.806 60.128C263.677 62.9987 267.355 64.4726 270.83 64.4726C273.673 64.4726 276.381 63.4854 278.398 61.469C282.878 56.9889 282.276 49.0971 277.057 43.8777ZM256.273 44.053C254.134 44.053 252.394 42.313 252.394 40.1735C252.394 38.034 254.134 36.2946 256.273 36.2946C258.412 36.2946 260.153 38.0345 260.153 40.1735C260.153 42.3125 258.413 44.053 256.273 44.053ZM262.11 21.5111C264.357 19.2635 267.211 18.0978 269.848 18.0978C271.859 18.0978 273.744 18.7764 275.139 20.1701C276.661 21.6929 277.383 23.8576 277.173 26.2665C276.952 28.7808 275.754 31.2434 273.798 33.1996C271.841 35.1557 269.379 36.3542 266.864 36.5742C265.067 36.7322 263.407 36.3688 262.047 35.5423L267.53 30.0594C267.918 30.1965 268.334 30.275 268.768 30.275C270.828 30.275 272.503 28.5996 272.503 26.5407C272.503 24.4819 270.827 22.8059 268.768 22.8059C266.71 22.8059 265.034 24.4814 265.034 26.5407C265.034 26.9752 265.112 27.3908 265.249 27.779L259.768 33.2603C257.744 29.9277 258.628 24.9927 262.11 21.5111ZM236.45 21.1482C237.844 19.7539 239.729 19.0759 241.741 19.0759C244.377 19.0759 247.231 20.2422 249.479 22.4892C252.96 25.9708 253.844 30.9058 251.821 34.2384L246.339 28.7566C246.476 28.3684 246.555 27.9527 246.555 27.5188C246.555 25.4594 244.879 23.784 242.82 23.784C240.76 23.784 239.085 25.4594 239.085 27.5188C239.085 29.5782 240.761 31.2531 242.82 31.2531C243.254 31.2531 243.67 31.1746 244.058 31.038L249.539 36.5199C246.207 38.5432 241.272 37.6598 237.791 34.1782C233.829 30.2159 233.227 24.3711 236.45 21.1487V21.1482ZM250.457 58.8257C246.495 62.7874 240.651 63.3886 237.428 60.1667C235.905 58.6439 235.183 56.4792 235.394 54.0703C235.614 51.556 236.813 49.0934 238.769 47.1372C240.725 45.1811 243.187 43.9826 245.702 43.7626C245.976 43.7384 246.248 43.7266 246.515 43.7266C247.998 43.7266 249.362 44.0998 250.514 44.7993L245.036 50.2774C244.648 50.1403 244.232 50.0618 243.798 50.0618C241.738 50.0618 240.063 51.7372 240.063 53.7961C240.063 55.8549 241.739 57.5309 243.798 57.5309C245.857 57.5309 247.533 55.8554 247.533 53.7961C247.533 53.3616 247.454 52.946 247.317 52.5577L252.798 47.0765C254.822 50.4091 253.938 55.3441 250.457 58.8257ZM276.117 59.1886C272.893 62.4105 267.049 61.8094 263.088 57.8476C259.606 54.366 258.722 49.431 260.745 46.0984L266.227 51.5802C266.09 51.9684 266.012 52.3841 266.012 52.818C266.012 54.8774 267.687 56.5528 269.747 56.5528C271.806 56.5528 273.481 54.8774 273.481 52.818C273.481 50.7586 271.805 49.0837 269.747 49.0837C269.312 49.0837 268.896 49.1622 268.509 49.2988L263.03 43.8196C264.211 43.1029 265.59 42.7453 267.038 42.7453C269.675 42.7453 272.529 43.911 274.776 46.1586C278.738 50.1209 279.34 55.9657 276.117 59.1881L276.117 59.1886Z"/>
        <path d="M196.354 53.9455C200.796 47.4776 204.79 39.9122 204.79 33.5953C204.79 22.8193 197.351 19.3673 190.919 18.2591C190.356 15.3706 188.334 11.46 183.372 11.46C183.356 11.46 183.342 11.4643 183.327 11.4643C183.312 11.4643 183.297 11.46 183.282 11.46C178.319 11.46 176.298 15.3706 175.735 18.2591C169.303 19.3673 161.864 22.8193 161.864 33.5953C161.864 39.9122 165.857 47.4776 170.3 53.9455C168.444 53.9649 166.594 54.6779 165.181 56.0904C163.793 57.4782 163.029 59.3241 163.029 61.2867C163.029 63.2493 163.793 65.0947 165.181 66.4825C166.569 67.8708 168.415 68.6349 170.377 68.6349C172.34 68.6349 174.186 67.8708 175.573 66.4825C176.203 65.8523 176.203 64.8312 175.573 64.2016C174.943 63.5714 173.922 63.5714 173.292 64.2016C172.513 64.9802 171.478 65.4087 170.377 65.4087C169.276 65.4087 168.241 64.9802 167.462 64.2016C166.684 63.423 166.255 62.3879 166.255 61.2867C166.255 60.1855 166.684 59.1499 167.462 58.3713C169.069 56.7647 171.685 56.7647 173.293 58.3713C173.434 58.5127 173.596 58.6171 173.768 58.695C177.979 64.1408 181.774 68.0547 182.129 68.4182C182.445 68.7414 182.864 68.9032 183.282 68.9032C183.297 68.9032 183.312 68.8994 183.327 68.8989C183.342 68.8989 183.357 68.9032 183.372 68.9032C183.791 68.9032 184.209 68.7408 184.525 68.4182C184.88 68.0542 188.675 64.1414 192.885 58.6956C193.057 58.6176 193.22 58.5127 193.361 58.3713C194.969 56.7647 197.584 56.7647 199.191 58.3713C199.969 59.1499 200.398 60.1855 200.398 61.2867C200.398 62.3879 199.97 63.423 199.191 64.2016C198.412 64.9802 197.377 65.4087 196.276 65.4087C195.175 65.4087 194.14 64.9802 193.361 64.2016C192.731 63.5714 191.709 63.5714 191.08 64.2016C190.449 64.8312 190.449 65.8523 191.08 66.4825C192.468 67.8708 194.313 68.6349 196.276 68.6349C198.238 68.6349 200.084 67.8708 201.472 66.4825C202.86 65.0947 203.625 63.2493 203.625 61.2867C203.625 59.3241 202.86 57.4782 201.472 56.0904C200.06 54.6779 198.209 53.9649 196.354 53.9455ZM201.564 33.5953C201.564 43.3244 190.203 57.2658 184.895 63.2493V31.7736C186.513 30.4186 188.934 30.4987 190.454 32.0188C191.232 32.7974 191.661 33.833 191.661 34.9337C191.661 36.0343 191.232 37.0699 190.454 37.8485C189.823 38.4782 189.823 39.4992 190.454 40.1294C190.769 40.4445 191.182 40.6021 191.595 40.6021C192.008 40.6021 192.421 40.4445 192.735 40.1294C194.123 38.7416 194.888 36.8963 194.888 34.9337C194.888 32.9711 194.123 31.1252 192.735 29.7374C191.347 28.349 189.502 27.585 187.539 27.585C186.619 27.585 185.728 27.7586 184.895 28.0796V20.975C193.376 21.1595 201.564 23.0882 201.564 33.5943V33.5953ZM183.282 14.6861C183.297 14.6861 183.311 14.6818 183.326 14.6818C183.342 14.6818 183.356 14.6861 183.371 14.6861C185.881 14.6861 186.989 16.4046 187.479 17.8505C185.835 17.7349 184.398 17.7333 183.371 17.7333C183.356 17.7333 183.342 17.7376 183.326 17.7376C183.311 17.7376 183.297 17.7333 183.282 17.7333C182.255 17.7333 180.818 17.7349 179.174 17.8505C179.664 16.4046 180.772 14.6861 183.282 14.6861ZM181.669 20.9777V28.0522C179.059 27.0887 176.011 27.6457 173.918 29.7379C172.53 31.1257 171.766 32.9711 171.766 34.9342C171.766 36.8973 172.53 38.7422 173.918 40.13C174.233 40.445 174.646 40.6026 175.059 40.6026C175.471 40.6026 175.885 40.445 176.2 40.13C176.829 39.4998 176.829 38.4787 176.2 37.8491C175.421 37.0705 174.993 36.0354 174.993 34.9342C174.993 33.833 175.421 32.7979 176.2 32.0193C177.692 30.5278 180.052 30.4229 181.669 31.7016V63.1488C176.324 57.111 165.09 43.2706 165.09 33.5953C165.09 23.1264 173.22 21.174 181.669 20.9777Z"/>
        <path d="M329.18 129.105C323.152 129.105 318.247 124.2 318.247 118.172C318.247 112.144 323.152 107.239 329.18 107.239C335.208 107.239 340.113 112.144 340.113 118.172C340.113 124.2 335.208 129.105 329.18 129.105ZM329.18 110.465C324.931 110.465 321.473 113.922 321.473 118.172C321.473 122.421 324.931 125.879 329.18 125.879C333.43 125.879 336.887 122.421 336.887 118.172C336.887 113.922 333.43 110.465 329.18 110.465Z"/>
        <path d="M329.18 136.061C319.316 136.061 311.291 128.036 311.291 118.171C311.291 108.306 319.316 100.281 329.18 100.281C339.045 100.281 347.07 108.306 347.07 118.171C347.07 128.036 339.045 136.061 329.18 136.061ZM329.18 103.507C321.095 103.507 314.517 110.085 314.517 118.171C314.517 126.257 321.095 132.834 329.18 132.834C337.266 132.834 343.844 126.256 343.844 118.171C343.844 110.086 337.266 103.507 329.18 103.507Z"/>
        <path d="M329.18 143.198C315.381 143.198 304.154 131.971 304.154 118.172C304.154 104.372 315.381 93.1455 329.18 93.1455C342.98 93.1455 354.206 104.372 354.206 118.172C354.206 131.971 342.98 143.198 329.18 143.198ZM329.18 96.3717C317.16 96.3717 307.38 106.151 307.38 118.172C307.38 130.192 317.16 139.971 329.18 139.971C341.201 139.971 350.98 130.192 350.98 118.172C350.98 106.151 341.201 96.3717 329.18 96.3717Z"/>
        <path d="M127.155 114.805H120.05V110.391C124.696 108.751 127.741 105.78 127.741 102.316C127.741 97.0259 120.637 92.8818 111.567 92.8818C102.498 92.8818 95.393 97.0259 95.393 102.316C95.393 105.757 98.4003 108.712 102.997 110.358V114.805H93.4078C91.1984 114.805 89.4009 116.602 89.4009 118.812V142.048C89.4009 142.939 90.123 143.661 91.014 143.661C91.9049 143.661 92.6271 142.939 92.6271 142.048V118.812C92.6271 118.381 92.9771 118.031 93.4078 118.031H97.1077V142.048C97.1077 142.939 97.8298 143.661 98.7208 143.661C99.6117 143.661 100.334 142.939 100.334 142.048V118.031H104.814V142.048C104.814 142.939 105.537 143.661 106.428 143.661C107.319 143.661 108.041 142.939 108.041 142.048V118.031H112.521V142.048C112.521 142.939 113.243 143.661 114.134 143.661C115.025 143.661 115.747 142.939 115.747 142.048V118.031H120.228V142.048C120.228 142.939 120.95 143.661 121.841 143.661C122.732 143.661 123.454 142.939 123.454 142.048V118.031H127.154C127.585 118.031 127.935 118.381 127.935 118.812V142.048C127.935 142.939 128.657 143.661 129.548 143.661C130.439 143.661 131.161 142.939 131.161 142.048V118.812C131.161 116.602 129.364 114.805 127.154 114.805H127.155ZM98.6192 102.316C98.6192 99.9165 101.556 97.9937 105.304 96.9549C104.56 97.577 104.124 98.3158 104.124 99.1105C104.124 101.319 107.456 103.109 111.567 103.109C115.678 103.109 119.01 101.319 119.01 99.1105C119.01 98.3158 118.574 97.5775 117.829 96.9549C121.578 97.9937 124.515 99.9165 124.515 102.316C124.515 105.975 117.691 108.525 111.567 108.525C105.443 108.525 98.6186 105.975 98.6186 102.316H98.6192Z"/>
        <path d="M54.1239 118.253C58.0932 115.954 60.7988 111.433 60.7988 106.242C60.7988 98.7302 55.1337 92.6182 48.1705 92.6182C43.4452 92.6182 39.3205 95.4346 37.1558 99.591C34.9905 95.4341 30.8658 92.6182 26.1405 92.6182C19.1773 92.6182 13.5127 98.7302 13.5127 106.242C13.5127 111.433 16.2184 115.954 20.1871 118.253C16.2184 120.553 13.5127 125.073 13.5127 130.264C13.5127 137.776 19.1773 143.888 26.1405 143.888C30.8658 143.888 34.991 141.072 37.1558 136.915C39.3205 141.072 43.4452 143.888 48.1705 143.888C55.1337 143.888 60.7988 137.776 60.7988 130.264C60.7988 125.073 58.0932 120.552 54.1239 118.253ZM38.9194 108.045C42.7344 108.85 45.7315 112.211 46.4058 116.45C42.5908 115.645 39.5937 112.284 38.9194 108.045ZM42.2166 118.253C40.0938 119.483 38.3344 121.349 37.1552 123.613C35.9761 121.349 34.2167 119.483 32.0934 118.253C34.2162 117.024 35.9761 115.157 37.1552 112.894C38.3344 115.157 40.0938 117.024 42.2166 118.253ZM27.9042 116.451C28.5784 112.211 31.5761 108.851 35.3911 108.046C34.7168 112.286 31.7191 115.646 27.9042 116.451ZM35.3911 128.461C31.5761 127.656 28.5784 124.296 27.9042 120.056C31.7191 120.861 34.7168 124.222 35.3911 128.461ZM46.4058 120.056C45.7315 124.296 42.7344 127.656 38.9194 128.461C39.5937 124.222 42.5908 120.861 46.4058 120.056ZM48.17 95.8443C53.3544 95.8443 57.5721 100.509 57.5721 106.242C57.5721 111.409 54.1443 115.694 49.6739 116.495C48.9442 110.419 44.4937 105.589 38.8748 104.759C39.5292 99.7276 43.442 95.8449 48.1694 95.8449L48.17 95.8443ZM16.7378 106.242C16.7378 100.509 20.9555 95.8443 26.1394 95.8443C30.8674 95.8443 34.7802 99.7276 35.4346 104.759C29.8157 105.588 25.3646 110.419 24.635 116.494C20.1651 115.694 16.7373 111.408 16.7373 106.242L16.7378 106.242ZM26.1394 140.662C20.955 140.662 16.7378 135.997 16.7378 130.264C16.7378 125.098 20.1651 120.812 24.6355 120.012C25.3652 126.088 29.8162 130.918 35.4351 131.747C34.7808 136.779 30.8674 140.662 26.14 140.662H26.1394ZM48.17 140.662C43.442 140.662 39.5297 136.779 38.8753 131.747C44.4943 130.918 48.9448 126.088 49.6744 120.012C54.1443 120.812 57.5727 125.098 57.5727 130.264C57.5727 135.997 53.3544 140.662 48.1705 140.662H48.17Z"/>
        <path d="M204.067 121.874C201.566 119.372 198.452 117.944 195.393 117.615C198.218 117.094 200.913 115.652 203.089 113.477C208.309 108.257 208.91 100.365 204.43 95.8853C199.95 91.4047 192.058 92.0069 186.838 97.2263C184.579 99.4857 183.189 102.246 182.698 105.013C182.077 102.58 180.762 100.197 178.77 98.2044C173.55 92.9844 165.658 92.3827 161.178 96.8634C156.698 101.343 157.299 109.235 162.519 114.455C165.012 116.947 168.113 118.385 171.161 118.721C168.348 119.247 165.664 120.684 163.498 122.852C158.277 128.071 157.676 135.963 162.157 140.443C164.173 142.46 166.88 143.447 169.724 143.447C173.199 143.447 176.878 141.973 179.748 139.102C182.007 136.843 183.398 134.083 183.889 131.316C184.509 133.749 185.824 136.131 187.816 138.124C190.687 140.995 194.365 142.469 197.84 142.469C200.684 142.469 203.391 141.481 205.408 139.465C209.888 134.985 209.287 127.093 204.067 121.874ZM183.284 122.049C181.145 122.049 179.405 120.309 179.405 118.17C179.405 116.03 181.145 114.291 183.284 114.291C185.423 114.291 187.163 116.031 187.163 118.17C187.163 120.309 185.423 122.049 183.284 122.049ZM189.12 99.5072C191.367 97.2596 194.221 96.0939 196.858 96.0939C198.869 96.0939 200.755 96.7725 202.149 98.1662C203.672 99.689 204.394 101.854 204.183 104.263C203.962 106.777 202.764 109.24 200.808 111.196C198.852 113.152 196.39 114.35 193.875 114.57C192.078 114.728 190.417 114.365 189.057 113.538L194.54 108.056C194.929 108.193 195.344 108.271 195.779 108.271C197.838 108.271 199.513 106.596 199.513 104.537C199.513 102.478 197.838 100.802 195.779 100.802C193.72 100.802 192.044 102.477 192.044 104.537C192.044 104.971 192.122 105.387 192.259 105.775L186.778 111.256C184.754 107.924 185.638 102.989 189.12 99.5072ZM163.46 99.1443C164.855 97.75 166.739 97.072 168.751 97.072C171.388 97.072 174.241 98.2382 176.489 100.485C179.97 103.967 180.854 108.902 178.831 112.234L173.349 106.753C173.486 106.364 173.565 105.949 173.565 105.515C173.565 103.456 171.889 101.78 169.83 101.78C167.771 101.78 166.096 103.456 166.096 105.515C166.096 107.574 167.771 109.249 169.83 109.249C170.264 109.249 170.68 109.171 171.068 109.034L176.55 114.516C173.217 116.539 168.282 115.656 164.801 112.174C160.839 108.212 160.237 102.367 163.46 99.1448V99.1443ZM177.467 136.822C173.505 140.784 167.661 141.385 164.438 138.163C162.915 136.64 162.193 134.475 162.404 132.066C162.624 129.552 163.823 127.089 165.779 125.133C167.735 123.177 170.197 121.979 172.712 121.759C172.986 121.735 173.258 121.723 173.525 121.723C175.009 121.723 176.372 122.096 177.524 122.795L172.046 128.273C171.658 128.136 171.243 128.058 170.808 128.058C168.749 128.058 167.074 129.733 167.074 131.792C167.074 133.851 168.749 135.527 170.808 135.527C172.867 135.527 174.543 133.852 174.543 131.792C174.543 131.358 174.464 130.942 174.327 130.554L179.809 125.073C181.832 128.405 180.948 133.34 177.467 136.822ZM203.127 137.185C199.903 140.407 194.059 139.805 190.098 135.844C186.616 132.362 185.732 127.427 187.756 124.094L193.238 129.576C193.1 129.965 193.022 130.38 193.022 130.814C193.022 132.873 194.697 134.549 196.757 134.549C198.816 134.549 200.491 132.873 200.491 130.814C200.491 128.755 198.816 127.08 196.757 127.08C196.322 127.08 195.907 127.158 195.519 127.295L190.04 121.816C191.221 121.099 192.6 120.741 194.048 120.741C196.685 120.741 199.539 121.907 201.786 124.155C205.748 128.117 206.35 133.962 203.127 137.184L203.127 137.185Z"/>
        <path d="M269.344 131.942C273.786 125.474 277.78 117.908 277.78 111.591C277.78 100.815 270.341 97.3634 263.909 96.2552C263.346 93.3667 261.324 89.4561 256.362 89.4561C256.346 89.4561 256.332 89.4604 256.317 89.4604C256.302 89.4604 256.287 89.4561 256.272 89.4561C251.309 89.4561 249.288 93.3667 248.725 96.2552C242.293 97.3634 234.854 100.815 234.854 111.591C234.854 117.908 238.847 125.474 243.29 131.942C241.434 131.961 239.584 132.674 238.171 134.087C236.783 135.474 236.019 137.32 236.019 139.283C236.019 141.245 236.783 143.091 238.171 144.479C239.559 145.867 241.405 146.631 243.367 146.631C245.33 146.631 247.176 145.867 248.563 144.479C249.193 143.848 249.193 142.827 248.563 142.198C247.933 141.567 246.912 141.567 246.282 142.198C245.503 142.976 244.468 143.405 243.367 143.405C242.266 143.405 241.231 142.976 240.452 142.198C239.674 141.419 239.245 140.384 239.245 139.283C239.245 138.182 239.674 137.146 240.452 136.367C242.059 134.761 244.675 134.761 246.283 136.367C246.424 136.509 246.586 136.613 246.758 136.691C250.969 142.137 254.764 146.051 255.119 146.414C255.435 146.737 255.854 146.899 256.272 146.899C256.287 146.899 256.302 146.896 256.317 146.895C256.332 146.895 256.347 146.899 256.362 146.899C256.781 146.899 257.199 146.737 257.515 146.414C257.87 146.05 261.665 142.137 265.875 136.692C266.047 136.614 266.21 136.509 266.351 136.367C267.959 134.761 270.574 134.761 272.181 136.367C272.959 137.146 273.388 138.182 273.388 139.283C273.388 140.384 272.96 141.419 272.181 142.198C271.402 142.976 270.367 143.405 269.266 143.405C268.165 143.405 267.13 142.976 266.351 142.198C265.721 141.567 264.699 141.567 264.07 142.198C263.439 142.827 263.439 143.848 264.07 144.479C265.458 145.867 267.303 146.631 269.266 146.631C271.228 146.631 273.074 145.867 274.462 144.479C275.85 143.091 276.615 141.245 276.615 139.283C276.615 137.32 275.85 135.474 274.462 134.087C273.05 132.674 271.199 131.961 269.344 131.942ZM274.554 111.591C274.554 121.321 263.193 135.262 257.885 141.245V109.77C259.503 108.415 261.924 108.495 263.444 110.015C264.222 110.793 264.651 111.829 264.651 112.93C264.651 114.03 264.222 115.066 263.444 115.845C262.813 116.474 262.813 117.495 263.444 118.126C263.759 118.441 264.172 118.598 264.585 118.598C264.998 118.598 265.411 118.441 265.725 118.126C267.113 116.738 267.877 114.892 267.877 112.93C267.877 110.967 267.113 109.121 265.725 107.733C264.337 106.345 262.492 105.581 260.529 105.581C259.609 105.581 258.718 105.755 257.885 106.076V98.9711C266.366 99.1556 274.554 101.084 274.554 111.59V111.591ZM256.272 92.6822C256.287 92.6822 256.301 92.6779 256.316 92.6779C256.332 92.6779 256.346 92.6822 256.361 92.6822C258.871 92.6822 259.979 94.4007 260.469 95.8466C258.825 95.731 257.388 95.7294 256.361 95.7294C256.346 95.7294 256.332 95.7337 256.316 95.7337C256.301 95.7337 256.287 95.7294 256.272 95.7294C255.245 95.7294 253.808 95.731 252.164 95.8466C252.654 94.4007 253.762 92.6822 256.272 92.6822ZM254.659 98.9738V106.048C252.049 105.085 249.001 105.642 246.908 107.734C245.52 109.122 244.756 110.967 244.756 112.93C244.756 114.893 245.52 116.738 246.908 118.126C247.223 118.441 247.636 118.599 248.049 118.599C248.461 118.599 248.875 118.441 249.19 118.126C249.819 117.496 249.819 116.475 249.19 115.845C248.411 115.067 247.983 114.031 247.983 112.93C247.983 111.829 248.411 110.794 249.19 110.015C250.682 108.524 253.042 108.419 254.659 109.698V141.145C249.314 135.107 238.08 121.267 238.08 111.591C238.08 101.122 246.21 99.1701 254.659 98.9738Z"/>
        <path d="M694.13 285.098C688.101 285.098 683.197 280.194 683.197 274.165C683.197 268.137 688.102 263.232 694.13 263.232C700.158 263.232 705.063 268.137 705.063 274.165C705.063 280.194 700.158 285.098 694.13 285.098ZM694.13 266.458C689.88 266.458 686.423 269.915 686.423 274.165C686.423 278.414 689.88 281.872 694.13 281.872C698.379 281.872 701.837 278.414 701.837 274.165C701.837 269.915 698.379 266.458 694.13 266.458Z"/>
        <path d="M694.13 292.054C684.265 292.054 676.24 284.029 676.24 274.164C676.24 264.3 684.265 256.274 694.13 256.274C703.994 256.274 712.019 264.3 712.019 274.164C712.019 284.029 703.994 292.054 694.13 292.054ZM694.13 259.501C686.044 259.501 679.466 266.078 679.466 274.164C679.466 282.25 686.044 288.828 694.13 288.828C702.215 288.828 708.793 282.249 708.793 274.164C708.793 266.079 702.215 259.501 694.13 259.501Z"/>
        <path d="M694.129 299.191C680.33 299.191 669.103 287.964 669.103 274.165C669.103 260.365 680.33 249.139 694.129 249.139C707.929 249.139 719.155 260.365 719.155 274.165C719.155 287.964 707.929 299.191 694.129 299.191ZM694.129 252.365C682.109 252.365 672.329 262.144 672.329 274.165C672.329 286.185 682.109 295.965 694.129 295.965C706.15 295.965 715.929 286.185 715.929 274.165C715.929 262.144 706.15 252.365 694.129 252.365Z"/>
        <path d="M638.084 270.798H630.979V266.384C635.626 264.744 638.671 261.773 638.671 258.309C638.671 253.019 631.566 248.875 622.497 248.875C613.428 248.875 606.322 253.019 606.322 258.309C606.322 261.75 609.33 264.705 613.927 266.351V270.798H604.337C602.128 270.798 600.33 272.596 600.33 274.805V298.041C600.33 298.932 601.052 299.654 601.943 299.654C602.834 299.654 603.557 298.932 603.557 298.041V274.805C603.557 274.374 603.907 274.024 604.337 274.024H608.037V298.041C608.037 298.932 608.759 299.655 609.65 299.655C610.541 299.655 611.263 298.932 611.263 298.041V274.024H615.744V298.041C615.744 298.932 616.466 299.655 617.357 299.655C618.248 299.655 618.97 298.932 618.97 298.041V274.024H623.451V298.041C623.451 298.932 624.173 299.655 625.064 299.655C625.955 299.655 626.677 298.932 626.677 298.041V274.024H631.158V298.041C631.158 298.932 631.88 299.655 632.771 299.655C633.662 299.655 634.384 298.932 634.384 298.041V274.024H638.084C638.514 274.024 638.864 274.374 638.864 274.805V298.041C638.864 298.932 639.586 299.654 640.477 299.654C641.368 299.654 642.091 298.932 642.091 298.041V274.805C642.091 272.596 640.293 270.798 638.084 270.798H638.084ZM609.549 258.309C609.549 255.91 612.485 253.987 616.234 252.948C615.49 253.57 615.053 254.309 615.053 255.104C615.053 257.312 618.386 259.102 622.496 259.102C626.607 259.102 629.94 257.312 629.94 255.104C629.94 254.309 629.503 253.571 628.759 252.948C632.508 253.987 635.444 255.91 635.444 258.309C635.444 261.968 628.621 264.518 622.496 264.518C616.372 264.518 609.548 261.968 609.548 258.309H609.549Z"/>
        <path d="M565.053 274.247C569.022 271.947 571.728 267.426 571.728 262.235C571.728 254.723 566.062 248.611 559.099 248.611C554.374 248.611 550.249 251.428 548.084 255.584C545.919 251.427 541.795 248.611 537.069 248.611C530.106 248.611 524.441 254.723 524.441 262.235C524.441 267.426 527.147 271.947 531.116 274.247C527.147 276.546 524.441 281.066 524.441 286.257C524.441 293.769 530.106 299.881 537.069 299.881C541.795 299.881 545.92 297.065 548.084 292.908C550.249 297.065 554.374 299.881 559.099 299.881C566.062 299.881 571.728 293.769 571.728 286.257C571.728 281.066 569.022 276.545 565.053 274.247ZM549.848 264.038C553.663 264.843 556.66 268.204 557.334 272.443C553.52 271.638 550.522 268.278 549.848 264.038ZM553.145 274.247C551.022 275.476 549.263 277.343 548.084 279.606C546.905 277.343 545.145 275.476 543.022 274.247C545.145 273.017 546.905 271.151 548.084 268.887C549.263 271.151 551.022 273.017 553.145 274.247ZM538.833 272.444C539.507 268.204 542.505 264.844 546.32 264.039C545.645 268.279 542.648 271.639 538.833 272.444ZM546.32 284.454C542.505 283.649 539.507 280.289 538.833 276.049C542.648 276.854 545.645 280.215 546.32 284.454ZM557.334 276.049C556.66 280.289 553.663 283.649 549.848 284.454C550.522 280.215 553.52 276.854 557.334 276.049ZM559.099 251.838C564.283 251.838 568.501 256.502 568.501 262.235C568.501 267.402 565.073 271.687 560.603 272.488C559.873 266.412 555.422 261.582 549.804 260.753C550.458 255.721 554.371 251.838 559.098 251.838L559.099 251.838ZM527.667 262.235C527.667 256.502 531.884 251.838 537.068 251.838C541.796 251.838 545.709 255.721 546.363 260.752C540.744 261.582 536.293 266.412 535.564 272.487C531.094 271.687 527.666 267.401 527.666 262.235L527.667 262.235ZM537.068 296.655C531.884 296.655 527.667 291.991 527.667 286.257C527.667 281.091 531.094 276.805 535.564 276.005C536.294 282.081 540.745 286.911 546.364 287.741C545.709 292.772 541.796 296.655 537.069 296.655H537.068ZM559.099 296.655C554.371 296.655 550.458 292.772 549.804 287.741C555.423 286.911 559.873 282.081 560.603 276.005C565.073 276.805 568.501 281.091 568.501 286.257C568.501 291.991 564.283 296.655 559.099 296.655H559.099Z"/>
        <path d="M423.036 277.867C420.535 275.366 417.421 273.937 414.362 273.608C417.187 273.087 419.883 271.645 422.058 269.47C427.278 264.25 427.879 256.359 423.399 251.878C418.92 247.398 411.028 248 405.808 253.219C403.548 255.479 402.158 258.239 401.667 261.006C401.047 258.573 399.732 256.19 397.739 254.198C392.519 248.978 384.627 248.376 380.148 252.857C375.667 257.337 376.269 265.228 381.489 270.448C383.981 272.941 387.082 274.378 390.13 274.714C387.317 275.24 384.634 276.678 382.467 278.845C377.247 284.064 376.645 291.956 381.126 296.436C383.142 298.453 385.85 299.44 388.694 299.44C392.168 299.44 395.847 297.966 398.717 295.095C400.977 292.836 402.367 290.076 402.858 287.309C403.479 289.742 404.793 292.125 406.786 294.117C409.657 296.988 413.335 298.462 416.81 298.462C419.653 298.462 422.361 297.475 424.377 295.458C428.858 290.978 428.256 283.086 423.036 277.867ZM402.253 278.042C400.114 278.042 398.374 276.302 398.374 274.163C398.374 272.023 400.114 270.284 402.253 270.284C404.392 270.284 406.133 272.024 406.133 274.163C406.133 276.302 404.393 278.042 402.253 278.042ZM408.089 255.5C410.337 253.253 413.19 252.087 415.827 252.087C417.838 252.087 419.724 252.766 421.118 254.159C422.641 255.682 423.363 257.847 423.152 260.256C422.932 262.77 421.733 265.233 419.777 267.189C417.821 269.145 415.359 270.344 412.844 270.563C411.047 270.722 409.387 270.358 408.027 269.532L413.51 264.049C413.898 264.186 414.314 264.264 414.748 264.264C416.808 264.264 418.482 262.589 418.482 260.53C418.482 258.471 416.807 256.795 414.748 256.795C412.689 256.795 411.013 258.471 411.013 260.53C411.013 260.964 411.092 261.38 411.229 261.768L405.748 267.25C403.724 263.917 404.608 258.982 408.089 255.5ZM382.429 255.137C383.824 253.743 385.709 253.065 387.72 253.065C390.357 253.065 393.211 254.231 395.458 256.478C398.94 259.96 399.824 264.895 397.801 268.228L392.319 262.746C392.456 262.358 392.534 261.942 392.534 261.508C392.534 259.449 390.859 257.773 388.799 257.773C386.74 257.773 385.065 259.449 385.065 261.508C385.065 263.567 386.741 265.242 388.799 265.242C389.234 265.242 389.65 265.164 390.037 265.027L395.519 270.509C392.186 272.532 387.252 271.649 383.77 268.167C379.809 264.205 379.207 258.36 382.429 255.138V255.137ZM396.436 292.815C392.475 296.777 386.63 297.378 383.407 294.156C381.885 292.633 381.163 290.468 381.373 288.06C381.594 285.545 382.792 283.083 384.748 281.126C386.705 279.17 389.167 277.972 391.682 277.752C391.956 277.728 392.227 277.716 392.495 277.716C393.978 277.716 395.342 278.089 396.494 278.789L391.016 284.267C390.628 284.13 390.212 284.051 389.778 284.051C387.718 284.051 386.043 285.726 386.043 287.785C386.043 289.844 387.719 291.52 389.778 291.52C391.836 291.52 393.512 289.845 393.512 287.785C393.512 287.351 393.434 286.935 393.297 286.547L398.778 281.066C400.802 284.398 399.918 289.333 396.436 292.815ZM422.096 293.178C418.873 296.4 413.029 295.799 409.067 291.837C405.586 288.355 404.702 283.42 406.725 280.088L412.207 285.569C412.07 285.958 411.991 286.373 411.991 286.807C411.991 288.867 413.667 290.542 415.726 290.542C417.786 290.542 419.461 288.867 419.461 286.807C419.461 284.748 417.785 283.073 415.726 283.073C415.292 283.073 414.876 283.151 414.488 283.288L409.009 277.809C410.191 277.092 411.57 276.735 413.018 276.735C415.655 276.735 418.508 277.9 420.756 280.148C424.718 284.11 425.319 289.955 422.097 293.177L422.096 293.178Z"/>
        <path d="M488.313 287.935C492.756 281.467 496.749 273.901 496.749 267.585C496.749 256.809 489.311 253.357 482.878 252.248C482.315 249.36 480.294 245.449 475.331 245.449C475.316 245.449 475.302 245.454 475.286 245.454C475.271 245.454 475.257 245.449 475.242 245.449C470.279 245.449 468.257 249.36 467.694 252.248C461.262 253.357 453.823 256.809 453.823 267.585C453.823 273.901 457.817 281.467 462.259 287.935C460.404 287.954 458.553 288.667 457.14 290.08C455.752 291.467 454.988 293.313 454.988 295.276C454.988 297.239 455.752 299.084 457.14 300.472C458.529 301.86 460.374 302.624 462.337 302.624C464.299 302.624 466.145 301.86 467.533 300.472C468.163 299.842 468.163 298.82 467.533 298.191C466.903 297.561 465.882 297.561 465.251 298.191C464.473 298.969 463.438 299.398 462.337 299.398C461.235 299.398 460.2 298.969 459.422 298.191C458.643 297.412 458.215 296.377 458.215 295.276C458.215 294.175 458.643 293.139 459.422 292.361C461.029 290.754 463.645 290.754 465.252 292.361C465.393 292.502 465.556 292.606 465.728 292.684C469.938 298.13 473.733 302.044 474.089 302.407C474.405 302.731 474.823 302.892 475.242 302.892C475.257 302.892 475.271 302.889 475.286 302.888C475.302 302.888 475.316 302.892 475.331 302.892C475.75 302.892 476.168 302.73 476.484 302.407C476.84 302.043 480.634 298.131 484.845 292.685C485.017 292.607 485.18 292.502 485.32 292.361C486.928 290.754 489.544 290.754 491.15 292.361C491.929 293.139 492.358 294.175 492.358 295.276C492.358 296.377 491.929 297.412 491.15 298.191C490.372 298.969 489.337 299.398 488.235 299.398C487.134 299.398 486.099 298.969 485.32 298.191C484.69 297.561 483.669 297.561 483.039 298.191C482.409 298.82 482.409 299.842 483.039 300.472C484.427 301.86 486.273 302.624 488.235 302.624C490.198 302.624 492.044 301.86 493.432 300.472C494.82 299.084 495.584 297.239 495.584 295.276C495.584 293.313 494.82 291.467 493.432 290.08C492.019 288.667 490.169 287.954 488.313 287.935ZM493.523 267.585C493.523 277.314 482.163 291.255 476.854 297.239V265.763C478.472 264.408 480.893 264.488 482.413 266.008C483.192 266.787 483.62 267.822 483.62 268.923C483.62 270.024 483.192 271.059 482.413 271.838C481.783 272.467 481.783 273.489 482.413 274.119C482.728 274.434 483.141 274.591 483.554 274.591C483.967 274.591 484.38 274.434 484.695 274.119C486.083 272.731 486.847 270.886 486.847 268.923C486.847 266.96 486.083 265.114 484.695 263.727C483.307 262.338 481.461 261.574 479.498 261.574C478.579 261.574 477.688 261.748 476.854 262.069V254.964C485.336 255.149 493.523 257.077 493.523 267.584V267.585ZM475.241 248.675C475.257 248.675 475.271 248.671 475.286 248.671C475.301 248.671 475.316 248.675 475.331 248.675C477.841 248.675 478.949 250.394 479.439 251.84C477.794 251.724 476.358 251.723 475.331 251.723C475.315 251.723 475.301 251.727 475.286 251.727C475.271 251.727 475.256 251.723 475.241 251.723C474.214 251.723 472.778 251.724 471.133 251.84C471.624 250.394 472.731 248.675 475.241 248.675ZM473.628 254.967V262.041C471.019 261.078 467.97 261.635 465.878 263.727C464.49 265.115 463.725 266.96 463.725 268.923C463.725 270.887 464.49 272.731 465.878 274.119C466.193 274.434 466.606 274.592 467.018 274.592C467.431 274.592 467.844 274.434 468.159 274.119C468.789 273.489 468.789 272.468 468.159 271.838C467.381 271.06 466.952 270.025 466.952 268.923C466.952 267.822 467.381 266.787 468.159 266.009C469.651 264.517 472.012 264.412 473.628 265.691V297.138C468.283 291.1 457.049 277.26 457.049 267.585C457.049 257.116 465.179 255.163 473.628 254.967Z"/>
        <path d="M256.191 207.102C250.162 207.102 245.258 202.197 245.258 196.169C245.258 190.141 250.162 185.236 256.191 185.236C262.219 185.236 267.124 190.141 267.124 196.169C267.124 202.197 262.219 207.102 256.191 207.102ZM256.191 188.462C251.941 188.462 248.484 191.919 248.484 196.169C248.484 200.418 251.941 203.876 256.191 203.876C260.44 203.876 263.897 200.418 263.897 196.169C263.897 191.919 260.44 188.462 256.191 188.462Z"/>
        <path d="M256.19 214.058C246.326 214.058 238.301 206.033 238.301 196.168C238.301 186.303 246.326 178.278 256.19 178.278C266.055 178.278 274.08 186.303 274.08 196.168C274.08 206.033 266.055 214.058 256.19 214.058ZM256.19 181.505C248.105 181.505 241.527 188.082 241.527 196.168C241.527 204.254 248.105 210.832 256.19 210.832C264.276 210.832 270.854 204.253 270.854 196.168C270.854 188.083 264.276 181.505 256.19 181.505Z"/>
        <path d="M256.191 221.195C242.391 221.195 231.165 209.968 231.165 196.169C231.165 182.369 242.391 171.143 256.191 171.143C269.99 171.143 281.217 182.369 281.217 196.169C281.217 209.968 269.99 221.195 256.191 221.195ZM256.191 174.369C244.17 174.369 234.391 184.148 234.391 196.169C234.391 208.189 244.17 217.968 256.191 217.968C268.211 217.968 277.99 208.189 277.99 196.169C277.99 184.148 268.211 174.369 256.191 174.369Z"/>
        <path d="M200.145 192.802H193.04V188.388C197.686 186.748 200.731 183.777 200.731 180.313C200.731 175.023 193.627 170.879 184.557 170.879C175.488 170.879 168.383 175.023 168.383 180.313C168.383 183.754 171.39 186.709 175.987 188.355V192.802H166.398C164.188 192.802 162.391 194.599 162.391 196.809V220.045C162.391 220.936 163.113 221.658 164.004 221.658C164.895 221.658 165.617 220.936 165.617 220.045V196.809C165.617 196.378 165.967 196.028 166.398 196.028H170.098V220.045C170.098 220.936 170.82 221.658 171.711 221.658C172.602 221.658 173.324 220.936 173.324 220.045V196.028H177.804V220.045C177.804 220.936 178.527 221.658 179.418 221.658C180.309 221.658 181.031 220.936 181.031 220.045V196.028H185.511V220.045C185.511 220.936 186.233 221.658 187.124 221.658C188.015 221.658 188.737 220.936 188.737 220.045V196.028H193.218V220.045C193.218 220.936 193.94 221.658 194.831 221.658C195.722 221.658 196.444 220.936 196.444 220.045V196.028H200.144C200.575 196.028 200.925 196.378 200.925 196.809V220.045C200.925 220.936 201.647 221.658 202.538 221.658C203.429 221.658 204.151 220.936 204.151 220.045V196.809C204.151 194.599 202.354 192.802 200.144 192.802H200.145ZM171.609 180.313C171.609 177.914 174.546 175.991 178.294 174.952C177.55 175.574 177.114 176.313 177.114 177.108C177.114 179.316 180.446 181.106 184.557 181.106C188.668 181.106 192 179.316 192 177.108C192 176.313 191.564 175.575 190.819 174.952C194.568 175.991 197.505 177.914 197.505 180.313C197.505 183.972 190.681 186.522 184.557 186.522C178.433 186.522 171.609 183.972 171.609 180.313H171.609Z"/>
        <path d="M346.083 196.25C350.052 193.951 352.758 189.43 352.758 184.239C352.758 176.727 347.093 170.615 340.13 170.615C335.404 170.615 331.28 173.432 329.115 177.588C326.95 173.431 322.825 170.615 318.1 170.615C311.137 170.615 305.472 176.727 305.472 184.239C305.472 189.43 308.178 193.951 312.146 196.25C308.178 198.55 305.472 203.07 305.472 208.261C305.472 215.773 311.137 221.885 318.1 221.885C322.825 221.885 326.95 219.069 329.115 214.912C331.28 219.069 335.404 221.885 340.13 221.885C347.093 221.885 352.758 215.773 352.758 208.261C352.758 203.07 350.052 198.549 346.083 196.25ZM330.879 186.042C334.694 186.847 337.691 190.208 338.365 194.447C334.55 193.642 331.553 190.282 330.879 186.042ZM334.176 196.25C332.053 197.48 330.294 199.347 329.114 201.61C327.935 199.347 326.176 197.48 324.053 196.25C326.175 195.021 327.935 193.154 329.114 190.891C330.294 193.154 332.053 195.021 334.176 196.25ZM319.863 194.448C320.538 190.208 323.535 186.848 327.35 186.043C326.676 190.283 323.678 193.643 319.863 194.448ZM327.35 206.458C323.535 205.653 320.538 202.293 319.863 198.053C323.678 198.858 326.676 202.219 327.35 206.458ZM338.365 198.053C337.691 202.293 334.694 205.653 330.879 206.458C331.553 202.219 334.55 198.858 338.365 198.053ZM340.129 173.841C345.314 173.841 349.531 178.506 349.531 184.239C349.531 189.406 346.104 193.691 341.633 194.492C340.903 188.416 336.453 183.586 330.834 182.756C331.488 177.725 335.401 173.842 340.129 173.842L340.129 173.841ZM308.697 184.239C308.697 178.506 312.915 173.841 318.099 173.841C322.827 173.841 326.739 177.725 327.394 182.756C321.775 183.586 317.324 188.416 316.594 194.491C312.124 193.691 308.696 189.405 308.696 184.239L308.697 184.239ZM318.099 218.659C312.914 218.659 308.697 213.994 308.697 208.261C308.697 203.095 312.124 198.809 316.595 198.009C317.324 204.085 321.775 208.915 327.394 209.745C326.74 214.776 322.827 218.659 318.099 218.659H318.099ZM340.129 218.659C335.401 218.659 331.489 214.776 330.835 209.745C336.453 208.915 340.904 204.085 341.634 198.009C346.104 198.809 349.532 203.095 349.532 208.261C349.532 213.994 345.314 218.659 340.13 218.659H340.129Z"/>
        <path d="M58.087 199.871C55.5862 197.369 52.4719 195.941 49.4129 195.612C52.238 195.091 54.9334 193.649 57.109 191.474C62.3289 186.254 62.9301 178.362 58.45 173.882C53.9704 169.402 46.0786 170.004 40.8587 175.223C38.5993 177.483 37.2088 180.243 36.7179 183.01C36.0974 180.577 34.7827 178.194 32.79 176.201C27.57 170.981 19.6783 170.38 15.1987 174.86C10.7181 179.341 11.3198 187.232 16.5397 192.452C19.0319 194.944 22.1328 196.382 25.181 196.718C22.3678 197.244 19.6847 198.681 17.5178 200.849C12.2973 206.068 11.6961 213.96 16.1768 218.44C18.1931 220.457 20.9004 221.444 23.7443 221.444C27.2189 221.444 30.8978 219.97 33.7681 217.099C36.0275 214.84 37.418 212.08 37.9089 209.313C38.5294 211.746 39.844 214.128 41.8367 216.121C44.7075 218.992 48.3854 220.466 51.8605 220.466C54.7038 220.466 57.4117 219.479 59.428 217.462C63.9087 212.982 63.307 205.09 58.087 199.871ZM37.304 200.046C35.165 200.046 33.425 198.306 33.425 196.167C33.425 194.027 35.165 192.288 37.304 192.288C39.4429 192.288 41.1834 194.028 41.1834 196.167C41.1834 198.306 39.4435 200.046 37.304 200.046ZM43.1401 177.504C45.3877 175.257 48.2413 174.091 50.8781 174.091C52.8891 174.091 54.7748 174.77 56.1691 176.163C57.6918 177.686 58.4139 179.851 58.2032 182.26C57.9827 184.774 56.7842 187.237 54.828 189.193C52.8719 191.149 50.4098 192.347 47.895 192.567C46.098 192.725 44.4376 192.362 43.0778 191.535L48.5606 186.053C48.9489 186.19 49.3645 186.268 49.799 186.268C51.8583 186.268 53.5333 184.593 53.5333 182.534C53.5333 180.475 51.8578 178.799 49.799 178.799C47.7401 178.799 46.0641 180.475 46.0641 182.534C46.0641 182.968 46.1426 183.384 46.2797 183.772L40.7985 189.253C38.7746 185.921 39.6585 180.986 43.1401 177.504ZM17.4801 177.141C18.8749 175.747 20.7596 175.069 22.7711 175.069C25.408 175.069 28.2615 176.235 30.5091 178.482C33.9907 181.964 34.8746 186.899 32.8513 190.232L27.3695 184.75C27.5066 184.362 27.5851 183.946 27.5851 183.512C27.5851 181.453 25.9096 179.777 23.8502 179.777C21.7909 179.777 20.1159 181.453 20.1159 183.512C20.1159 185.571 21.7914 187.246 23.8502 187.246C24.2847 187.246 24.7003 187.168 25.088 187.031L30.5698 192.513C27.2372 194.536 22.3028 193.653 18.8212 190.171C14.8594 186.209 14.2577 180.364 17.4801 177.142V177.141ZM31.4872 214.819C27.5254 218.781 21.6812 219.382 18.4582 216.16C16.9355 214.637 16.2133 212.472 16.4241 210.063C16.6446 207.549 17.8431 205.087 19.7992 203.13C21.7554 201.174 24.2175 199.976 26.7323 199.756C27.0065 199.732 27.2781 199.72 27.5453 199.72C29.0288 199.72 30.3924 200.093 31.5447 200.792L26.0666 206.271C25.6784 206.133 25.2628 206.055 24.8283 206.055C22.7689 206.055 21.094 207.73 21.094 209.789C21.094 211.848 22.7695 213.524 24.8283 213.524C26.8872 213.524 28.5632 211.849 28.5632 209.789C28.5632 209.355 28.4847 208.939 28.3475 208.551L33.8288 203.07C35.8527 206.402 34.9687 211.337 31.4872 214.819ZM57.1471 215.182C53.9236 218.404 48.0794 217.803 44.1182 213.841C40.6366 210.359 39.7526 205.424 41.776 202.092L47.2578 207.573C47.1207 207.962 47.0422 208.377 47.0422 208.811C47.0422 210.871 48.7177 212.546 50.777 212.546C52.8364 212.546 54.5113 210.871 54.5113 208.811C54.5113 206.752 52.8359 205.077 50.777 205.077C50.3426 205.077 49.9269 205.155 49.5393 205.292L44.0601 199.813C45.2414 199.096 46.6206 198.738 48.0687 198.738C50.7055 198.738 53.5591 199.904 55.8067 202.152C59.7684 206.114 60.3701 211.959 57.1477 215.181L57.1471 215.182Z"/>
        <path d="M123.364 209.939C127.807 203.471 131.8 195.905 131.8 189.588C131.8 178.813 124.361 175.36 117.929 174.252C117.366 171.364 115.344 167.453 110.382 167.453C110.366 167.453 110.352 167.457 110.337 167.457C110.322 167.457 110.308 167.453 110.293 167.453C105.33 167.453 103.308 171.364 102.745 174.252C96.3131 175.36 88.874 178.813 88.874 189.588C88.874 195.905 92.8675 203.471 97.3099 209.939C95.4544 209.958 93.6041 210.671 92.1911 212.084C90.8033 213.471 90.0392 215.317 90.0392 217.28C90.0392 219.242 90.8033 221.088 92.1911 222.476C93.5794 223.864 95.4248 224.628 97.3874 224.628C99.35 224.628 101.196 223.864 102.584 222.476C103.213 221.845 103.213 220.824 102.584 220.195C101.953 219.565 100.932 219.565 100.302 220.195C99.5236 220.973 98.4886 221.402 97.3874 221.402C96.2862 221.402 95.2511 220.973 94.4725 220.195C93.6939 219.416 93.2654 218.381 93.2654 217.28C93.2654 216.179 93.6939 215.143 94.4725 214.364C96.0797 212.758 98.6956 212.758 100.303 214.364C100.444 214.506 100.607 214.61 100.779 214.688C104.989 220.134 108.784 224.048 109.139 224.411C109.455 224.735 109.874 224.896 110.293 224.896C110.308 224.896 110.322 224.893 110.337 224.892C110.352 224.892 110.367 224.896 110.382 224.896C110.801 224.896 111.219 224.734 111.535 224.411C111.891 224.047 115.685 220.135 119.895 214.689C120.067 214.611 120.23 214.506 120.371 214.364C121.979 212.758 124.594 212.758 126.201 214.364C126.98 215.143 127.409 216.179 127.409 217.28C127.409 218.381 126.98 219.416 126.201 220.195C125.422 220.973 124.387 221.402 123.286 221.402C122.185 221.402 121.15 220.973 120.371 220.195C119.741 219.565 118.719 219.565 118.09 220.195C117.46 220.824 117.46 221.845 118.09 222.476C119.478 223.864 121.323 224.628 123.286 224.628C125.249 224.628 127.095 223.864 128.482 222.476C129.871 221.088 130.635 219.242 130.635 217.28C130.635 215.317 129.871 213.471 128.482 212.084C127.07 210.671 125.22 209.958 123.364 209.939ZM128.574 189.588C128.574 199.318 117.213 213.259 111.905 219.242V187.767C113.523 186.412 115.944 186.492 117.464 188.012C118.242 188.791 118.671 189.826 118.671 190.927C118.671 192.027 118.242 193.063 117.464 193.842C116.834 194.471 116.834 195.492 117.464 196.123C117.779 196.438 118.192 196.595 118.605 196.595C119.018 196.595 119.431 196.438 119.745 196.123C121.134 194.735 121.898 192.889 121.898 190.927C121.898 188.964 121.134 187.118 119.745 185.731C118.358 184.342 116.512 183.578 114.549 183.578C113.63 183.578 112.739 183.752 111.905 184.073V176.968C120.386 177.153 128.574 179.081 128.574 189.587V189.588ZM110.292 170.679C110.308 170.679 110.322 170.675 110.337 170.675C110.352 170.675 110.366 170.679 110.381 170.679C112.891 170.679 114 172.398 114.489 173.844C112.845 173.728 111.408 173.726 110.381 173.726C110.366 173.726 110.352 173.731 110.337 173.731C110.322 173.731 110.307 173.726 110.292 173.726C109.265 173.726 107.828 173.728 106.184 173.844C106.674 172.398 107.782 170.679 110.292 170.679ZM108.679 176.971V184.045C106.07 183.082 103.021 183.639 100.929 185.731C99.5403 187.119 98.7763 188.964 98.7763 190.927C98.7763 192.89 99.5403 194.735 100.929 196.123C101.244 196.438 101.657 196.596 102.069 196.596C102.482 196.596 102.895 196.438 103.21 196.123C103.84 195.493 103.84 194.472 103.21 193.842C102.432 193.064 102.003 192.029 102.003 190.927C102.003 189.826 102.432 188.791 103.21 188.013C104.702 186.521 107.063 186.416 108.679 187.695V219.142C103.334 213.104 92.1002 199.264 92.1002 189.588C92.1002 179.12 100.23 177.167 108.679 176.971Z"/>
        <path d="M621.14 51.1091C615.111 51.1091 610.207 46.2043 610.207 40.1762C610.207 34.148 615.112 29.2432 621.14 29.2432C627.168 29.2432 632.073 34.148 632.073 40.1762C632.073 46.2043 627.168 51.1091 621.14 51.1091ZM621.14 32.4688C616.891 32.4688 613.433 35.9262 613.433 40.1756C613.433 44.425 616.891 47.8824 621.14 47.8824C625.389 47.8824 628.847 44.425 628.847 40.1756C628.847 35.9262 625.389 32.4688 621.14 32.4688Z"/>
        <path d="M621.14 58.0646C611.276 58.0646 603.25 50.0395 603.25 40.1749C603.25 30.3103 611.276 22.2852 621.14 22.2852C631.005 22.2852 639.03 30.3103 639.03 40.1749C639.03 50.0395 631.005 58.0646 621.14 58.0646ZM621.14 25.5113C613.055 25.5113 606.477 32.089 606.477 40.1749C606.477 48.2608 613.055 54.8384 621.14 54.8384C629.226 54.8384 635.804 48.2602 635.804 40.1749C635.804 32.0895 629.226 25.5113 621.14 25.5113Z"/>
        <path d="M621.14 65.2015C607.34 65.2015 596.114 53.9749 596.114 40.1754C596.114 26.376 607.34 15.1494 621.14 15.1494C634.939 15.1494 646.166 26.376 646.166 40.1754C646.166 53.9749 634.939 65.2015 621.14 65.2015ZM621.14 18.3756C609.12 18.3756 599.34 28.1547 599.34 40.1754C599.34 52.1962 609.12 61.9753 621.14 61.9753C633.16 61.9753 642.94 52.1957 642.94 40.1754C642.94 28.1552 633.16 18.3756 621.14 18.3756Z"/>
        <path d="M565.093 36.8087H557.988V32.3948C562.635 30.7548 565.68 27.7835 565.68 24.3202C565.68 19.0298 558.575 14.8857 549.506 14.8857C540.437 14.8857 533.332 19.0298 533.332 24.3202C533.332 27.7609 536.339 30.7161 540.936 32.362V36.8087H531.347C529.137 36.8087 527.34 38.6062 527.34 40.8156V64.0517C527.34 64.9426 528.062 65.6648 528.953 65.6648C529.844 65.6648 530.566 64.9426 530.566 64.0517V40.8156C530.566 40.3849 530.916 40.0349 531.347 40.0349H535.046V64.0522C535.046 64.9432 535.769 65.6653 536.66 65.6653C537.55 65.6653 538.273 64.9432 538.273 64.0522V40.0349H542.753V64.0522C542.753 64.9432 543.475 65.6653 544.366 65.6653C545.257 65.6653 545.979 64.9432 545.979 64.0522V40.0349H550.46V64.0522C550.46 64.9432 551.182 65.6653 552.073 65.6653C552.964 65.6653 553.686 64.9432 553.686 64.0522V40.0349H558.167V64.0522C558.167 64.9432 558.889 65.6653 559.78 65.6653C560.671 65.6653 561.393 64.9432 561.393 64.0522V40.0349H565.093C565.524 40.0349 565.874 40.3849 565.874 40.8156V64.0517C565.874 64.9426 566.596 65.6648 567.487 65.6648C568.378 65.6648 569.1 64.9426 569.1 64.0517V40.8156C569.1 38.6062 567.302 36.8087 565.093 36.8087H565.093ZM536.558 24.3202C536.558 21.9204 539.494 19.9976 543.243 18.9588C542.499 19.5809 542.062 20.3197 542.062 21.1144C542.062 23.3227 545.395 25.1127 549.506 25.1127C553.616 25.1127 556.949 23.3227 556.949 21.1144C556.949 20.3197 556.512 19.5814 555.768 18.9588C559.517 19.9976 562.453 21.9204 562.453 24.3202C562.453 27.9792 555.63 30.5284 549.506 30.5284C543.381 30.5284 536.557 27.9787 536.557 24.3202H536.558Z"/>
        <path d="M711.032 40.2573C715.001 37.9581 717.707 33.4372 717.707 28.2462C717.707 20.7341 712.042 14.6221 705.079 14.6221C700.353 14.6221 696.229 17.4385 694.064 21.5949C691.899 17.438 687.774 14.6221 683.049 14.6221C676.086 14.6221 670.421 20.7341 670.421 28.2462C670.421 33.4372 673.127 37.9581 677.095 40.2573C673.127 42.5565 670.421 47.0769 670.421 52.2678C670.421 59.78 676.086 65.892 683.049 65.892C687.774 65.892 691.899 63.0756 694.064 58.9192C696.229 63.0761 700.353 65.892 705.079 65.892C712.042 65.892 717.707 59.78 717.707 52.2678C717.707 47.0769 715.001 42.556 711.032 40.2573ZM695.828 30.0491C699.643 30.8541 702.64 34.2147 703.314 38.4539C699.499 37.6489 696.502 34.2883 695.828 30.0491ZM699.125 40.2573C697.002 41.487 695.243 43.3534 694.063 45.6171C692.884 43.3534 691.125 41.487 689.002 40.2573C691.124 39.0276 692.884 37.1613 694.063 34.8975C695.243 37.1613 697.002 39.0276 699.125 40.2573ZM684.812 38.4544C685.487 34.2147 688.484 30.8546 692.299 30.0497C691.625 34.2894 688.627 37.6495 684.812 38.4544ZM692.299 50.465C688.484 49.66 685.487 46.2994 684.812 42.0602C688.627 42.8651 691.625 46.2257 692.299 50.465ZM703.314 42.0602C702.64 46.2994 699.643 49.66 695.828 50.465C696.502 46.2257 699.499 42.8651 703.314 42.0602ZM705.078 17.8483C710.263 17.8483 714.48 22.5128 714.48 28.2462C714.48 33.4124 711.053 37.6979 706.582 38.4985C705.852 32.4231 701.402 27.5929 695.783 26.7633C696.437 21.7315 700.35 17.8488 705.078 17.8488L705.078 17.8483ZM673.646 28.2462C673.646 22.5128 677.864 17.8483 683.048 17.8483C687.776 17.8483 691.688 21.7315 692.343 26.7627C686.724 27.5924 682.273 32.4231 681.543 38.498C677.073 37.6979 673.645 33.4119 673.645 28.2457L673.646 28.2462ZM683.048 62.6658C677.863 62.6658 673.646 58.0013 673.646 52.2678C673.646 47.1022 677.073 42.8162 681.544 42.0161C682.273 48.0916 686.724 52.9217 692.343 53.7514C691.689 58.7831 687.776 62.6658 683.048 62.6658H683.048ZM705.078 62.6658C700.35 62.6658 696.438 58.7826 695.784 53.7514C701.402 52.9217 705.853 48.0916 706.583 42.0161C711.053 42.8162 714.481 47.1022 714.481 52.2678C714.481 58.0013 710.263 62.6658 705.079 62.6658H705.078Z"/>
        <path d="M423.036 43.8777C420.535 41.3763 417.421 39.9482 414.362 39.6191C417.187 39.0981 419.883 37.656 422.058 35.4805C427.278 30.2605 427.879 22.3693 423.399 17.8892C418.92 13.4086 411.028 14.0108 405.808 19.2302C403.548 21.4896 402.158 24.2496 401.667 27.0166C401.047 24.5835 399.732 22.201 397.739 20.2083C392.519 14.9883 384.627 14.3866 380.148 18.8673C375.667 23.3474 376.269 31.2391 381.489 36.4586C383.981 38.9513 387.082 40.3886 390.13 40.7246C387.317 41.251 384.634 42.6883 382.467 44.8558C377.247 50.0752 376.645 57.967 381.126 62.4471C383.142 64.4634 385.85 65.4506 388.694 65.4506C392.168 65.4506 395.847 63.9768 398.717 61.106C400.977 58.8466 402.367 56.0866 402.858 53.3197C403.479 55.7527 404.793 58.1353 406.786 60.128C409.657 62.9987 413.335 64.4726 416.81 64.4726C419.653 64.4726 422.361 63.4854 424.377 61.469C428.858 56.9889 428.256 49.0971 423.036 43.8777ZM402.253 44.053C400.114 44.053 398.374 42.313 398.374 40.1735C398.374 38.034 400.114 36.2946 402.253 36.2946C404.392 36.2946 406.133 38.0345 406.133 40.1735C406.133 42.3125 404.393 44.053 402.253 44.053ZM408.089 21.5111C410.337 19.2635 413.19 18.0978 415.827 18.0978C417.838 18.0978 419.724 18.7764 421.118 20.1701C422.641 21.6929 423.363 23.8576 423.152 26.2665C422.932 28.7808 421.733 31.2434 419.777 33.1996C417.821 35.1557 415.359 36.3542 412.844 36.5742C411.047 36.7322 409.387 36.3688 408.027 35.5423L413.51 30.0594C413.898 30.1965 414.314 30.275 414.748 30.275C416.808 30.275 418.482 28.5996 418.482 26.5407C418.482 24.4819 416.807 22.8059 414.748 22.8059C412.689 22.8059 411.013 24.4814 411.013 26.5407C411.013 26.9752 411.092 27.3908 411.229 27.779L405.748 33.2603C403.724 29.9277 404.608 24.9927 408.089 21.5111ZM382.429 21.1482C383.824 19.7539 385.709 19.0759 387.72 19.0759C390.357 19.0759 393.211 20.2422 395.458 22.4892C398.94 25.9708 399.824 30.9058 397.801 34.2384L392.319 28.7566C392.456 28.3684 392.534 27.9527 392.534 27.5188C392.534 25.4594 390.859 23.784 388.799 23.784C386.74 23.784 385.065 25.4594 385.065 27.5188C385.065 29.5782 386.741 31.2531 388.799 31.2531C389.234 31.2531 389.65 31.1746 390.037 31.038L395.519 36.5199C392.186 38.5432 387.252 37.6598 383.77 34.1782C379.809 30.2159 379.207 24.3711 382.429 21.1487V21.1482ZM396.436 58.8257C392.475 62.7874 386.63 63.3886 383.407 60.1667C381.885 58.6439 381.163 56.4792 381.373 54.0703C381.594 51.556 382.792 49.0934 384.748 47.1372C386.705 45.1811 389.167 43.9826 391.682 43.7626C391.956 43.7384 392.227 43.7266 392.495 43.7266C393.978 43.7266 395.342 44.0998 396.494 44.7993L391.016 50.2774C390.628 50.1403 390.212 50.0618 389.778 50.0618C387.718 50.0618 386.043 51.7372 386.043 53.7961C386.043 55.8549 387.719 57.5309 389.778 57.5309C391.836 57.5309 393.512 55.8554 393.512 53.7961C393.512 53.3616 393.434 52.946 393.297 52.5577L398.778 47.0765C400.802 50.4091 399.918 55.3441 396.436 58.8257ZM422.096 59.1886C418.873 62.4105 413.029 61.8094 409.067 57.8476C405.586 54.366 404.702 49.431 406.725 46.0984L412.207 51.5802C412.07 51.9684 411.991 52.3841 411.991 52.818C411.991 54.8774 413.667 56.5528 415.726 56.5528C417.786 56.5528 419.461 54.8774 419.461 52.818C419.461 50.7586 417.785 49.0837 415.726 49.0837C415.292 49.0837 414.876 49.1622 414.488 49.2988L409.009 43.8196C410.191 43.1029 411.57 42.7453 413.018 42.7453C415.655 42.7453 418.508 43.911 420.756 46.1586C424.718 50.1209 425.319 55.9657 422.097 59.1881L422.096 59.1886Z"/>
        <path d="M488.313 53.9455C492.756 47.4776 496.749 39.9122 496.749 33.5953C496.749 22.8193 489.311 19.3673 482.878 18.2591C482.315 15.3706 480.294 11.46 475.331 11.46C475.316 11.46 475.302 11.4643 475.286 11.4643C475.271 11.4643 475.257 11.46 475.242 11.46C470.279 11.46 468.257 15.3706 467.694 18.2591C461.262 19.3673 453.823 22.8193 453.823 33.5953C453.823 39.9122 457.817 47.4776 462.259 53.9455C460.404 53.9649 458.553 54.6779 457.14 56.0904C455.752 57.4782 454.988 59.3241 454.988 61.2867C454.988 63.2493 455.752 65.0947 457.14 66.4825C458.529 67.8708 460.374 68.6349 462.337 68.6349C464.299 68.6349 466.145 67.8708 467.533 66.4825C468.163 65.8523 468.163 64.8312 467.533 64.2016C466.903 63.5714 465.882 63.5714 465.251 64.2016C464.473 64.9802 463.438 65.4087 462.337 65.4087C461.235 65.4087 460.2 64.9802 459.422 64.2016C458.643 63.423 458.215 62.3879 458.215 61.2867C458.215 60.1855 458.643 59.1499 459.422 58.3713C461.029 56.7647 463.645 56.7647 465.252 58.3713C465.393 58.5127 465.556 58.6171 465.728 58.695C469.938 64.1408 473.733 68.0547 474.089 68.4182C474.405 68.7414 474.823 68.9032 475.242 68.9032C475.257 68.9032 475.271 68.8994 475.286 68.8989C475.302 68.8989 475.316 68.9032 475.331 68.9032C475.75 68.9032 476.168 68.7408 476.484 68.4182C476.84 68.0542 480.634 64.1414 484.845 58.6956C485.017 58.6176 485.18 58.5127 485.32 58.3713C486.928 56.7647 489.544 56.7647 491.15 58.3713C491.929 59.1499 492.358 60.1855 492.358 61.2867C492.358 62.3879 491.929 63.423 491.15 64.2016C490.372 64.9802 489.337 65.4087 488.235 65.4087C487.134 65.4087 486.099 64.9802 485.32 64.2016C484.69 63.5714 483.669 63.5714 483.039 64.2016C482.409 64.8312 482.409 65.8523 483.039 66.4825C484.427 67.8708 486.273 68.6349 488.235 68.6349C490.198 68.6349 492.044 67.8708 493.432 66.4825C494.82 65.0947 495.584 63.2493 495.584 61.2867C495.584 59.3241 494.82 57.4782 493.432 56.0904C492.019 54.6779 490.169 53.9649 488.313 53.9455ZM493.523 33.5953C493.523 43.3244 482.163 57.2658 476.854 63.2493V31.7736C478.472 30.4186 480.893 30.4987 482.413 32.0188C483.192 32.7974 483.62 33.833 483.62 34.9337C483.62 36.0343 483.192 37.0699 482.413 37.8485C481.783 38.4782 481.783 39.4992 482.413 40.1294C482.728 40.4445 483.141 40.6021 483.554 40.6021C483.967 40.6021 484.38 40.4445 484.695 40.1294C486.083 38.7416 486.847 36.8963 486.847 34.9337C486.847 32.9711 486.083 31.1252 484.695 29.7374C483.307 28.349 481.461 27.585 479.498 27.585C478.579 27.585 477.688 27.7586 476.854 28.0796V20.975C485.336 21.1595 493.523 23.0882 493.523 33.5943V33.5953ZM475.241 14.6861C475.257 14.6861 475.271 14.6818 475.286 14.6818C475.301 14.6818 475.316 14.6861 475.331 14.6861C477.841 14.6861 478.949 16.4046 479.439 17.8505C477.794 17.7349 476.358 17.7333 475.331 17.7333C475.315 17.7333 475.301 17.7376 475.286 17.7376C475.271 17.7376 475.256 17.7333 475.241 17.7333C474.214 17.7333 472.778 17.7349 471.133 17.8505C471.624 16.4046 472.731 14.6861 475.241 14.6861ZM473.628 20.9777V28.0522C471.019 27.0887 467.97 27.6457 465.878 29.7379C464.49 31.1257 463.725 32.9711 463.725 34.9342C463.725 36.8973 464.49 38.7422 465.878 40.13C466.193 40.445 466.606 40.6026 467.018 40.6026C467.431 40.6026 467.844 40.445 468.159 40.13C468.789 39.4998 468.789 38.4787 468.159 37.8491C467.381 37.0705 466.952 36.0354 466.952 34.9342C466.952 33.833 467.381 32.7979 468.159 32.0193C469.651 30.5278 472.012 30.4229 473.628 31.7016V63.1488C468.283 57.111 457.049 43.2706 457.049 33.5953C457.049 23.1264 465.179 21.174 473.628 20.9777Z"/>
        <path d="M256.191 285.098C250.162 285.098 245.258 280.194 245.258 274.165C245.258 268.137 250.162 263.232 256.191 263.232C262.219 263.232 267.124 268.137 267.124 274.165C267.124 280.194 262.219 285.098 256.191 285.098ZM256.191 266.458C251.941 266.458 248.484 269.915 248.484 274.165C248.484 278.414 251.941 281.872 256.191 281.872C260.44 281.872 263.897 278.414 263.897 274.165C263.897 269.915 260.44 266.458 256.191 266.458Z"/>
        <path d="M256.19 292.054C246.326 292.054 238.301 284.029 238.301 274.164C238.301 264.3 246.326 256.274 256.19 256.274C266.055 256.274 274.08 264.3 274.08 274.164C274.08 284.029 266.055 292.054 256.19 292.054ZM256.19 259.501C248.105 259.501 241.527 266.078 241.527 274.164C241.527 282.25 248.105 288.828 256.19 288.828C264.276 288.828 270.854 282.249 270.854 274.164C270.854 266.079 264.276 259.501 256.19 259.501Z"/>
        <path d="M256.191 299.191C242.391 299.191 231.165 287.964 231.165 274.165C231.165 260.365 242.391 249.139 256.191 249.139C269.99 249.139 281.217 260.365 281.217 274.165C281.217 287.964 269.99 299.191 256.191 299.191ZM256.191 252.365C244.17 252.365 234.391 262.144 234.391 274.165C234.391 286.185 244.17 295.965 256.191 295.965C268.211 295.965 277.99 286.185 277.99 274.165C277.99 262.144 268.211 252.365 256.191 252.365Z"/>
        <path d="M127.155 270.798H120.05V266.384C124.696 264.744 127.741 261.773 127.741 258.309C127.741 253.019 120.637 248.875 111.567 248.875C102.498 248.875 95.393 253.019 95.393 258.309C95.393 261.75 98.4003 264.705 102.997 266.351V270.798H93.4078C91.1984 270.798 89.4009 272.596 89.4009 274.805V298.041C89.4009 298.932 90.123 299.654 91.014 299.654C91.9049 299.654 92.6271 298.932 92.6271 298.041V274.805C92.6271 274.374 92.9771 274.024 93.4078 274.024H97.1077V298.041C97.1077 298.932 97.8298 299.655 98.7208 299.655C99.6117 299.655 100.334 298.932 100.334 298.041V274.024H104.814V298.041C104.814 298.932 105.537 299.655 106.428 299.655C107.319 299.655 108.041 298.932 108.041 298.041V274.024H112.521V298.041C112.521 298.932 113.243 299.655 114.134 299.655C115.025 299.655 115.747 298.932 115.747 298.041V274.024H120.228V298.041C120.228 298.932 120.95 299.655 121.841 299.655C122.732 299.655 123.454 298.932 123.454 298.041V274.024H127.154C127.585 274.024 127.935 274.374 127.935 274.805V298.041C127.935 298.932 128.657 299.654 129.548 299.654C130.439 299.654 131.161 298.932 131.161 298.041V274.805C131.161 272.596 129.364 270.798 127.154 270.798H127.155ZM98.6192 258.309C98.6192 255.91 101.556 253.987 105.304 252.948C104.56 253.57 104.124 254.309 104.124 255.104C104.124 257.312 107.456 259.102 111.567 259.102C115.678 259.102 119.01 257.312 119.01 255.104C119.01 254.309 118.574 253.571 117.829 252.948C121.578 253.987 124.515 255.91 124.515 258.309C124.515 261.968 117.691 264.518 111.567 264.518C105.443 264.518 98.6186 261.968 98.6186 258.309H98.6192Z"/>
        <path d="M200.103 274.247C204.073 271.947 206.778 267.426 206.778 262.235C206.778 254.723 201.113 248.611 194.15 248.611C189.425 248.611 185.3 251.428 183.135 255.584C180.97 251.427 176.845 248.611 172.12 248.611C165.157 248.611 159.492 254.723 159.492 262.235C159.492 267.426 162.198 271.947 166.167 274.247C162.198 276.546 159.492 281.066 159.492 286.257C159.492 293.769 165.157 299.881 172.12 299.881C176.845 299.881 180.97 297.065 183.135 292.908C185.3 297.065 189.425 299.881 194.15 299.881C201.113 299.881 206.778 293.769 206.778 286.257C206.778 281.066 204.073 276.545 200.103 274.247ZM184.899 264.038C188.714 264.843 191.711 268.204 192.385 272.443C188.57 271.638 185.573 268.278 184.899 264.038ZM188.196 274.247C186.073 275.476 184.314 277.343 183.135 279.606C181.956 277.343 180.196 275.476 178.073 274.247C180.196 273.017 181.956 271.151 183.135 268.887C184.314 271.151 186.073 273.017 188.196 274.247ZM173.884 272.444C174.558 268.204 177.556 264.844 181.371 264.039C180.696 268.279 177.699 271.639 173.884 272.444ZM181.371 284.454C177.556 283.649 174.558 280.289 173.884 276.049C177.699 276.854 180.696 280.215 181.371 284.454ZM192.385 276.049C191.711 280.289 188.714 283.649 184.899 284.454C185.573 280.215 188.57 276.854 192.385 276.049ZM194.149 251.838C199.334 251.838 203.552 256.502 203.552 262.235C203.552 267.402 200.124 271.687 195.653 272.488C194.924 266.412 190.473 261.582 184.854 260.753C185.509 255.721 189.421 251.838 194.149 251.838L194.149 251.838ZM162.717 262.235C162.717 256.502 166.935 251.838 172.119 251.838C176.847 251.838 180.76 255.721 181.414 260.752C175.795 261.582 171.344 266.412 170.614 272.487C166.145 271.687 162.717 267.401 162.717 262.235L162.717 262.235ZM172.119 296.655C166.934 296.655 162.717 291.991 162.717 286.257C162.717 281.091 166.145 276.805 170.615 276.005C171.345 282.081 175.796 286.911 181.415 287.741C180.76 292.772 176.847 296.655 172.119 296.655H172.119ZM194.149 296.655C189.421 296.655 185.509 292.772 184.855 287.741C190.474 286.911 194.924 282.081 195.654 276.005C200.124 276.805 203.552 281.091 203.552 286.257C203.552 291.991 199.334 296.655 194.15 296.655H194.149Z"/>
        <path d="M350.046 277.867C347.545 275.366 344.431 273.937 341.372 273.608C344.197 273.087 346.893 271.645 349.068 269.47C354.288 264.25 354.889 256.359 350.409 251.878C345.93 247.398 338.038 248 332.818 253.219C330.559 255.479 329.168 258.239 328.677 261.006C328.057 258.573 326.742 256.19 324.749 254.198C319.529 248.978 311.637 248.376 307.158 252.857C302.677 257.337 303.279 265.228 308.499 270.448C310.991 272.941 314.092 274.378 317.14 274.714C314.327 275.24 311.644 276.678 309.477 278.845C304.257 284.064 303.655 291.956 308.136 296.436C310.152 298.453 312.86 299.44 315.704 299.44C319.178 299.44 322.857 297.966 325.727 295.095C327.987 292.836 329.377 290.076 329.868 287.309C330.489 289.742 331.803 292.125 333.796 294.117C336.667 296.988 340.345 298.462 343.82 298.462C346.663 298.462 349.371 297.475 351.387 295.458C355.868 290.978 355.266 283.086 350.046 277.867ZM329.263 278.042C327.124 278.042 325.384 276.302 325.384 274.163C325.384 272.023 327.124 270.284 329.263 270.284C331.402 270.284 333.143 272.024 333.143 274.163C333.143 276.302 331.403 278.042 329.263 278.042ZM335.099 255.5C337.347 253.253 340.2 252.087 342.837 252.087C344.848 252.087 346.734 252.766 348.128 254.159C349.651 255.682 350.373 257.847 350.162 260.256C349.942 262.77 348.743 265.233 346.787 267.189C344.831 269.145 342.369 270.344 339.854 270.563C338.057 270.722 336.397 270.358 335.037 269.532L340.52 264.049C340.908 264.186 341.324 264.264 341.758 264.264C343.818 264.264 345.492 262.589 345.492 260.53C345.492 258.471 343.817 256.795 341.758 256.795C339.699 256.795 338.023 258.471 338.023 260.53C338.023 260.964 338.102 261.38 338.239 261.768L332.758 267.25C330.734 263.917 331.618 258.982 335.099 255.5ZM309.439 255.137C310.834 253.743 312.719 253.065 314.73 253.065C317.367 253.065 320.221 254.231 322.468 256.478C325.95 259.96 326.834 264.895 324.811 268.228L319.329 262.746C319.466 262.358 319.544 261.942 319.544 261.508C319.544 259.449 317.869 257.773 315.809 257.773C313.75 257.773 312.075 259.449 312.075 261.508C312.075 263.567 313.751 265.242 315.809 265.242C316.244 265.242 316.66 265.164 317.047 265.027L322.529 270.509C319.196 272.532 314.262 271.649 310.78 268.167C306.819 264.205 306.217 258.36 309.439 255.138V255.137ZM323.446 292.815C319.485 296.777 313.64 297.378 310.417 294.156C308.895 292.633 308.173 290.468 308.383 288.06C308.604 285.545 309.802 283.083 311.758 281.126C313.715 279.17 316.177 277.972 318.692 277.752C318.966 277.728 319.237 277.716 319.505 277.716C320.988 277.716 322.352 278.089 323.504 278.789L318.026 284.267C317.638 284.13 317.222 284.051 316.788 284.051C314.728 284.051 313.053 285.726 313.053 287.785C313.053 289.844 314.729 291.52 316.788 291.52C318.846 291.52 320.522 289.845 320.522 287.785C320.522 287.351 320.444 286.935 320.307 286.547L325.788 281.066C327.812 284.398 326.928 289.333 323.446 292.815ZM349.106 293.178C345.883 296.4 340.039 295.799 336.077 291.837C332.596 288.355 331.712 283.42 333.735 280.088L339.217 285.569C339.08 285.958 339.001 286.373 339.001 286.807C339.001 288.867 340.677 290.542 342.736 290.542C344.796 290.542 346.471 288.867 346.471 286.807C346.471 284.748 344.795 283.073 342.736 283.073C342.302 283.073 341.886 283.151 341.498 283.288L336.019 277.809C337.201 277.092 338.58 276.735 340.028 276.735C342.665 276.735 345.518 277.9 347.766 280.148C351.728 284.11 352.329 289.955 349.107 293.177L349.106 293.178Z"/>
        <path d="M50.3741 287.935C54.8165 281.467 58.81 273.901 58.81 267.585C58.81 256.809 51.3715 253.357 44.939 252.248C44.3761 249.36 42.3543 245.449 37.3919 245.449C37.3763 245.449 37.3623 245.454 37.3473 245.454C37.3322 245.454 37.3177 245.449 37.3027 245.449C32.3397 245.449 30.318 249.36 29.755 252.248C23.3231 253.357 15.884 256.809 15.884 267.585C15.884 273.901 19.8775 281.467 24.32 287.935C22.4644 287.954 20.6141 288.667 19.2011 290.08C17.8133 291.467 17.0492 293.313 17.0492 295.276C17.0492 297.239 17.8133 299.084 19.2011 300.472C20.5894 301.86 22.4348 302.624 24.3974 302.624C26.36 302.624 28.2059 301.86 29.5937 300.472C30.2233 299.842 30.2233 298.82 29.5937 298.191C28.9635 297.561 27.9424 297.561 27.3122 298.191C26.5337 298.969 25.4986 299.398 24.3974 299.398C23.2962 299.398 22.2611 298.969 21.4825 298.191C20.7039 297.412 20.2754 296.377 20.2754 295.276C20.2754 294.175 20.7039 293.139 21.4825 292.361C23.0897 290.754 25.7056 290.754 27.3128 292.361C27.4542 292.502 27.6166 292.606 27.7886 292.684C31.9988 298.13 35.7939 302.044 36.1493 302.407C36.4655 302.731 36.8838 302.892 37.3027 302.892C37.3177 302.892 37.3322 302.889 37.3473 302.888C37.3623 302.888 37.3769 302.892 37.3919 302.892C37.8108 302.892 38.2291 302.73 38.5453 302.407C38.9007 302.043 42.6952 298.131 46.9054 292.685C47.0774 292.607 47.2404 292.502 47.3812 292.361C48.989 290.754 51.6043 290.754 53.211 292.361C53.9895 293.139 54.4186 294.175 54.4186 295.276C54.4186 296.377 53.9901 297.412 53.211 298.191C52.4324 298.969 51.3973 299.398 50.2961 299.398C49.1949 299.398 48.1598 298.969 47.3812 298.191C46.7511 297.561 45.7294 297.561 45.0998 298.191C44.4696 298.82 44.4696 299.842 45.0998 300.472C46.4881 301.86 48.3335 302.624 50.2961 302.624C52.2587 302.624 54.1046 301.86 55.4924 300.472C56.8807 299.084 57.6448 297.239 57.6448 295.276C57.6448 293.313 56.8807 291.467 55.4924 290.08C54.0799 288.667 52.2297 287.954 50.3741 287.935ZM55.5838 267.585C55.5838 277.314 44.2234 291.255 38.9152 297.239V265.763C40.5331 264.408 42.9538 264.488 44.4739 266.008C45.2525 266.787 45.6811 267.822 45.6811 268.923C45.6811 270.024 45.2525 271.059 44.4739 271.838C43.8437 272.467 43.8437 273.489 44.4739 274.119C44.789 274.434 45.202 274.591 45.6149 274.591C46.0279 274.591 46.4408 274.434 46.7554 274.119C48.1437 272.731 48.9078 270.886 48.9078 268.923C48.9078 266.96 48.1437 265.114 46.7554 263.727C45.3676 262.338 43.5222 261.574 41.5591 261.574C40.6396 261.574 39.7486 261.748 38.9152 262.069V254.964C47.3963 255.149 55.5838 257.077 55.5838 267.584V267.585ZM37.3021 248.675C37.3177 248.675 37.3317 248.671 37.3467 248.671C37.3618 248.671 37.3763 248.675 37.3914 248.675C39.9013 248.675 41.0095 250.394 41.4994 251.84C39.8551 251.724 38.4184 251.723 37.3914 251.723C37.3758 251.723 37.3618 251.727 37.3467 251.727C37.3317 251.727 37.3172 251.723 37.3021 251.723C36.2751 251.723 34.8384 251.724 33.1941 251.84C33.6845 250.394 34.7921 248.675 37.3021 248.675ZM35.689 254.967V262.041C33.0796 261.078 30.0308 261.635 27.9387 263.727C26.5503 265.115 25.7863 266.96 25.7863 268.923C25.7863 270.887 26.5503 272.731 27.9387 274.119C28.2537 274.434 28.6667 274.592 29.0791 274.592C29.4915 274.592 29.905 274.434 30.2201 274.119C30.8497 273.489 30.8497 272.468 30.2201 271.838C29.4415 271.06 29.013 270.025 29.013 268.923C29.013 267.822 29.4415 266.787 30.2201 266.009C31.7122 264.517 34.0727 264.412 35.689 265.691V297.138C30.3438 291.1 19.1102 277.26 19.1102 267.585C19.1102 257.116 27.2402 255.163 35.689 254.967Z"/>
        <path d="M621.14 129.105C615.111 129.105 610.207 124.2 610.207 118.172C610.207 112.144 615.112 107.239 621.14 107.239C627.168 107.239 632.073 112.144 632.073 118.172C632.073 124.2 627.168 129.105 621.14 129.105ZM621.14 110.465C616.891 110.465 613.433 113.922 613.433 118.172C613.433 122.421 616.891 125.879 621.14 125.879C625.389 125.879 628.847 122.421 628.847 118.172C628.847 113.922 625.389 110.465 621.14 110.465Z"/>
        <path d="M621.14 136.061C611.276 136.061 603.25 128.036 603.25 118.171C603.25 108.306 611.276 100.281 621.14 100.281C631.005 100.281 639.03 108.306 639.03 118.171C639.03 128.036 631.005 136.061 621.14 136.061ZM621.14 103.507C613.055 103.507 606.477 110.085 606.477 118.171C606.477 126.257 613.055 132.834 621.14 132.834C629.226 132.834 635.804 126.256 635.804 118.171C635.804 110.086 629.226 103.507 621.14 103.507Z"/>
        <path d="M621.14 143.198C607.34 143.198 596.114 131.971 596.114 118.172C596.114 104.372 607.34 93.1455 621.14 93.1455C634.939 93.1455 646.166 104.372 646.166 118.172C646.166 131.971 634.939 143.198 621.14 143.198ZM621.14 96.3717C609.12 96.3717 599.34 106.151 599.34 118.172C599.34 130.192 609.12 139.971 621.14 139.971C633.16 139.971 642.94 130.192 642.94 118.172C642.94 106.151 633.16 96.3717 621.14 96.3717Z"/>
        <path d="M492.104 114.805H484.999V110.391C489.646 108.751 492.691 105.78 492.691 102.316C492.691 97.0259 485.586 92.8818 476.517 92.8818C467.447 92.8818 460.342 97.0259 460.342 102.316C460.342 105.757 463.35 108.712 467.946 110.358V114.805H458.357C456.148 114.805 454.35 116.602 454.35 118.812V142.048C454.35 142.939 455.072 143.661 455.963 143.661C456.854 143.661 457.576 142.939 457.576 142.048V118.812C457.576 118.381 457.926 118.031 458.357 118.031H462.057V142.048C462.057 142.939 462.779 143.661 463.67 143.661C464.561 143.661 465.283 142.939 465.283 142.048V118.031H469.764V142.048C469.764 142.939 470.486 143.661 471.377 143.661C472.268 143.661 472.99 142.939 472.99 142.048V118.031H477.471V142.048C477.471 142.939 478.193 143.661 479.084 143.661C479.975 143.661 480.697 142.939 480.697 142.048V118.031H485.177V142.048C485.177 142.939 485.899 143.661 486.79 143.661C487.681 143.661 488.404 142.939 488.404 142.048V118.031H492.103C492.534 118.031 492.884 118.381 492.884 118.812V142.048C492.884 142.939 493.606 143.661 494.497 143.661C495.388 143.661 496.11 142.939 496.11 142.048V118.812C496.11 116.602 494.313 114.805 492.103 114.805H492.104ZM463.568 102.316C463.568 99.9165 466.505 97.9937 470.254 96.9549C469.509 97.577 469.073 98.3158 469.073 99.1105C469.073 101.319 472.405 103.109 476.516 103.109C480.627 103.109 483.959 101.319 483.959 99.1105C483.959 98.3158 483.523 97.5775 482.779 96.9549C486.527 97.9937 489.464 99.9165 489.464 102.316C489.464 105.975 482.64 108.525 476.516 108.525C470.392 108.525 463.568 105.975 463.568 102.316H463.568Z"/>
        <path d="M565.053 118.253C569.022 115.954 571.728 111.433 571.728 106.242C571.728 98.7302 566.062 92.6182 559.099 92.6182C554.374 92.6182 550.249 95.4346 548.084 99.591C545.919 95.4341 541.795 92.6182 537.069 92.6182C530.106 92.6182 524.441 98.7302 524.441 106.242C524.441 111.433 527.147 115.954 531.116 118.253C527.147 120.553 524.441 125.073 524.441 130.264C524.441 137.776 530.106 143.888 537.069 143.888C541.795 143.888 545.92 141.072 548.084 136.915C550.249 141.072 554.374 143.888 559.099 143.888C566.062 143.888 571.728 137.776 571.728 130.264C571.728 125.073 569.022 120.552 565.053 118.253ZM549.848 108.045C553.663 108.85 556.66 112.211 557.334 116.45C553.52 115.645 550.522 112.284 549.848 108.045ZM553.145 118.253C551.022 119.483 549.263 121.349 548.084 123.613C546.905 121.349 545.145 119.483 543.022 118.253C545.145 117.024 546.905 115.157 548.084 112.894C549.263 115.157 551.022 117.024 553.145 118.253ZM538.833 116.451C539.507 112.211 542.505 108.851 546.32 108.046C545.645 112.286 542.648 115.646 538.833 116.451ZM546.32 128.461C542.505 127.656 539.507 124.296 538.833 120.056C542.648 120.861 545.645 124.222 546.32 128.461ZM557.334 120.056C556.66 124.296 553.663 127.656 549.848 128.461C550.522 124.222 553.52 120.861 557.334 120.056ZM559.099 95.8443C564.283 95.8443 568.501 100.509 568.501 106.242C568.501 111.409 565.073 115.694 560.603 116.495C559.873 110.419 555.422 105.589 549.804 104.759C550.458 99.7276 554.371 95.8449 559.098 95.8449L559.099 95.8443ZM527.667 106.242C527.667 100.509 531.884 95.8443 537.068 95.8443C541.796 95.8443 545.709 99.7276 546.363 104.759C540.744 105.588 536.293 110.419 535.564 116.494C531.094 115.694 527.666 111.408 527.666 106.242L527.667 106.242ZM537.068 140.662C531.884 140.662 527.667 135.997 527.667 130.264C527.667 125.098 531.094 120.812 535.564 120.012C536.294 126.088 540.745 130.918 546.364 131.747C545.709 136.779 541.796 140.662 537.069 140.662H537.068ZM559.099 140.662C554.371 140.662 550.458 136.779 549.804 131.747C555.423 130.918 559.873 126.088 560.603 120.012C565.073 120.812 568.501 125.098 568.501 130.264C568.501 135.997 564.283 140.662 559.099 140.662H559.099Z"/>
        <path d="M714.995 121.874C712.494 119.372 709.38 117.944 706.321 117.615C709.146 117.094 711.842 115.652 714.017 113.477C719.237 108.257 719.838 100.365 715.358 95.8853C710.879 91.4047 702.987 92.0069 697.767 97.2263C695.507 99.4857 694.117 102.246 693.626 105.013C693.006 102.58 691.691 100.197 689.698 98.2044C684.478 92.9844 676.586 92.3827 672.107 96.8634C667.626 101.343 668.228 109.235 673.448 114.455C675.94 116.947 679.041 118.385 682.089 118.721C679.276 119.247 676.593 120.684 674.426 122.852C669.205 128.071 668.604 135.963 673.085 140.443C675.101 142.46 677.809 143.447 680.653 143.447C684.127 143.447 687.806 141.973 690.676 139.102C692.936 136.843 694.326 134.083 694.817 131.316C695.438 133.749 696.752 136.131 698.745 138.124C701.616 140.995 705.294 142.469 708.769 142.469C711.612 142.469 714.32 141.481 716.336 139.465C720.817 134.985 720.215 127.093 714.995 121.874ZM694.212 122.049C692.073 122.049 690.333 120.309 690.333 118.17C690.333 116.03 692.073 114.291 694.212 114.291C696.351 114.291 698.092 116.031 698.092 118.17C698.092 120.309 696.352 122.049 694.212 122.049ZM700.048 99.5072C702.296 97.2596 705.149 96.0939 707.786 96.0939C709.797 96.0939 711.683 96.7725 713.077 98.1662C714.6 99.689 715.322 101.854 715.111 104.263C714.891 106.777 713.692 109.24 711.736 111.196C709.78 113.152 707.318 114.35 704.803 114.57C703.006 114.728 701.346 114.365 699.986 113.538L705.469 108.056C705.857 108.193 706.273 108.271 706.707 108.271C708.767 108.271 710.441 106.596 710.441 104.537C710.441 102.478 708.766 100.802 706.707 100.802C704.648 100.802 702.972 102.477 702.972 104.537C702.972 104.971 703.051 105.387 703.188 105.775L697.707 111.256C695.683 107.924 696.567 102.989 700.048 99.5072ZM674.388 99.1443C675.783 97.75 677.668 97.072 679.679 97.072C682.316 97.072 685.17 98.2382 687.417 100.485C690.899 103.967 691.783 108.902 689.759 112.234L684.278 106.753C684.415 106.364 684.493 105.949 684.493 105.515C684.493 103.456 682.818 101.78 680.758 101.78C678.699 101.78 677.024 103.456 677.024 105.515C677.024 107.574 678.7 109.249 680.758 109.249C681.193 109.249 681.609 109.171 681.996 109.034L687.478 114.516C684.145 116.539 679.211 115.656 675.729 112.174C671.768 108.212 671.166 102.367 674.388 99.1448V99.1443ZM688.395 136.822C684.434 140.784 678.589 141.385 675.366 138.163C673.844 136.64 673.122 134.475 673.332 132.066C673.553 129.552 674.751 127.089 676.707 125.133C678.664 123.177 681.126 121.979 683.641 121.759C683.915 121.735 684.186 121.723 684.454 121.723C685.937 121.723 687.301 122.096 688.453 122.795L682.975 128.273C682.587 128.136 682.171 128.058 681.737 128.058C679.677 128.058 678.002 129.733 678.002 131.792C678.002 133.851 679.678 135.527 681.737 135.527C683.795 135.527 685.471 133.852 685.471 131.792C685.471 131.358 685.393 130.942 685.256 130.554L690.737 125.073C692.761 128.405 691.877 133.34 688.395 136.822ZM714.055 137.185C710.832 140.407 704.988 139.805 701.026 135.844C697.545 132.362 696.661 127.427 698.684 124.094L704.166 129.576C704.029 129.965 703.95 130.38 703.95 130.814C703.95 132.873 705.626 134.549 707.685 134.549C709.745 134.549 711.42 132.873 711.42 130.814C711.42 128.755 709.744 127.08 707.685 127.08C707.251 127.08 706.835 127.158 706.447 127.295L700.968 121.816C702.15 121.099 703.529 120.741 704.977 120.741C707.614 120.741 710.467 121.907 712.715 124.155C716.677 128.117 717.278 133.962 714.056 137.184L714.055 137.185Z"/>
        <path d="M415.324 131.942C419.766 125.474 423.759 117.908 423.759 111.591C423.759 100.815 416.321 97.3634 409.888 96.2552C409.326 93.3667 407.304 89.4561 402.341 89.4561C402.326 89.4561 402.312 89.4604 402.297 89.4604C402.282 89.4604 402.267 89.4561 402.252 89.4561C397.289 89.4561 395.267 93.3667 394.704 96.2552C388.273 97.3634 380.833 100.815 380.833 111.591C380.833 117.908 384.827 125.474 389.269 131.942C387.414 131.961 385.564 132.674 384.151 134.087C382.763 135.474 381.999 137.32 381.999 139.283C381.999 141.245 382.763 143.091 384.151 144.479C385.539 145.867 387.384 146.631 389.347 146.631C391.309 146.631 393.155 145.867 394.543 144.479C395.173 143.848 395.173 142.827 394.543 142.198C393.913 141.567 392.892 141.567 392.262 142.198C391.483 142.976 390.448 143.405 389.347 143.405C388.246 143.405 387.211 142.976 386.432 142.198C385.653 141.419 385.225 140.384 385.225 139.283C385.225 138.182 385.653 137.146 386.432 136.367C388.039 134.761 390.655 134.761 392.262 136.367C392.404 136.509 392.566 136.613 392.738 136.691C396.948 142.137 400.743 146.051 401.099 146.414C401.415 146.737 401.833 146.899 402.252 146.899C402.267 146.899 402.282 146.896 402.297 146.895C402.312 146.895 402.326 146.899 402.341 146.899C402.76 146.899 403.179 146.737 403.495 146.414C403.85 146.05 407.645 142.137 411.855 136.692C412.027 136.614 412.19 136.509 412.331 136.367C413.938 134.761 416.554 134.761 418.16 136.367C418.939 137.146 419.368 138.182 419.368 139.283C419.368 140.384 418.94 141.419 418.16 142.198C417.382 142.976 416.347 143.405 415.246 143.405C414.144 143.405 413.109 142.976 412.331 142.198C411.701 141.567 410.679 141.567 410.049 142.198C409.419 142.827 409.419 143.848 410.049 144.479C411.438 145.867 413.283 146.631 415.246 146.631C417.208 146.631 419.054 145.867 420.442 144.479C421.83 143.091 422.594 141.245 422.594 139.283C422.594 137.32 421.83 135.474 420.442 134.087C419.029 132.674 417.179 131.961 415.324 131.942ZM420.533 111.591C420.533 121.321 409.173 135.262 403.865 141.245V109.77C405.483 108.415 407.903 108.495 409.423 110.015C410.202 110.793 410.631 111.829 410.631 112.93C410.631 114.03 410.202 115.066 409.423 115.845C408.793 116.474 408.793 117.495 409.423 118.126C409.738 118.441 410.151 118.598 410.564 118.598C410.977 118.598 411.39 118.441 411.705 118.126C413.093 116.738 413.857 114.892 413.857 112.93C413.857 110.967 413.093 109.121 411.705 107.733C410.317 106.345 408.472 105.581 406.509 105.581C405.589 105.581 404.698 105.755 403.865 106.076V98.9711C412.346 99.1556 420.533 101.084 420.533 111.59V111.591ZM402.252 92.6822C402.267 92.6822 402.281 92.6779 402.296 92.6779C402.311 92.6779 402.326 92.6822 402.341 92.6822C404.851 92.6822 405.959 94.4007 406.449 95.8466C404.805 95.731 403.368 95.7294 402.341 95.7294C402.325 95.7294 402.311 95.7337 402.296 95.7337C402.281 95.7337 402.267 95.7294 402.252 95.7294C401.225 95.7294 399.788 95.731 398.144 95.8466C398.634 94.4007 399.742 92.6822 402.252 92.6822ZM400.638 98.9738V106.048C398.029 105.085 394.98 105.642 392.888 107.734C391.5 109.122 390.736 110.967 390.736 112.93C390.736 114.893 391.5 116.738 392.888 118.126C393.203 118.441 393.616 118.599 394.029 118.599C394.441 118.599 394.854 118.441 395.17 118.126C395.799 117.496 395.799 116.475 395.17 115.845C394.391 115.067 393.962 114.031 393.962 112.93C393.962 111.829 394.391 110.794 395.17 110.015C396.662 108.524 399.022 108.419 400.638 109.698V141.145C395.293 135.107 384.06 121.267 384.06 111.591C384.06 101.122 392.19 99.1701 400.638 98.9738Z"/>
    </g>
</svg>
